<mxfile host="app.diagrams.net" modified="2023-09-05T11:32:56.810Z" agent="Mozilla/5.0 (Windows NT 10.0; Win64; x64; rv:109.0) Gecko/20100101 Firefox/117.0" etag="mOsglc5OCACzUpQ3YkV9" version="21.7.2" type="github" pages="2">
  <diagram name="V1" id="PnaGG6Pf-Q-ecVbM1nB3">
    <mxGraphModel dx="5045" dy="3065" grid="1" gridSize="10" guides="1" tooltips="1" connect="1" arrows="1" fold="1" page="1" pageScale="1" pageWidth="827" pageHeight="1169" math="0" shadow="0">
      <root>
        <mxCell id="0" />
        <mxCell id="1" parent="0" />
        <mxCell id="AFzKZ3i9yK1nrJ4SzqqG-297" value="" style="rounded=0;whiteSpace=wrap;html=1;fillColor=none;" parent="1" vertex="1">
          <mxGeometry x="855" y="961" width="470" height="480" as="geometry" />
        </mxCell>
        <mxCell id="AFzKZ3i9yK1nrJ4SzqqG-1" value="" style="rounded=0;whiteSpace=wrap;html=1;" parent="1" vertex="1">
          <mxGeometry x="1077" y="578" width="430" height="50" as="geometry" />
        </mxCell>
        <mxCell id="AFzKZ3i9yK1nrJ4SzqqG-2" value="" style="rounded=0;whiteSpace=wrap;html=1;" parent="1" vertex="1">
          <mxGeometry x="1090" y="100" width="430" height="50" as="geometry" />
        </mxCell>
        <mxCell id="AFzKZ3i9yK1nrJ4SzqqG-3" value="" style="ellipse;whiteSpace=wrap;html=1;aspect=fixed;" parent="1" vertex="1">
          <mxGeometry x="15" y="300" width="30" height="30" as="geometry" />
        </mxCell>
        <mxCell id="AFzKZ3i9yK1nrJ4SzqqG-4" value="" style="ellipse;whiteSpace=wrap;html=1;aspect=fixed;" parent="1" vertex="1">
          <mxGeometry x="125" y="220" width="30" height="30" as="geometry" />
        </mxCell>
        <mxCell id="AFzKZ3i9yK1nrJ4SzqqG-5" value="" style="ellipse;whiteSpace=wrap;html=1;aspect=fixed;" parent="1" vertex="1">
          <mxGeometry x="125" y="300" width="30" height="30" as="geometry" />
        </mxCell>
        <mxCell id="AFzKZ3i9yK1nrJ4SzqqG-6" value="" style="ellipse;whiteSpace=wrap;html=1;aspect=fixed;" parent="1" vertex="1">
          <mxGeometry x="125" y="380" width="30" height="30" as="geometry" />
        </mxCell>
        <mxCell id="AFzKZ3i9yK1nrJ4SzqqG-7" value="" style="ellipse;whiteSpace=wrap;html=1;aspect=fixed;" parent="1" vertex="1">
          <mxGeometry x="235" y="330" width="30" height="30" as="geometry" />
        </mxCell>
        <mxCell id="AFzKZ3i9yK1nrJ4SzqqG-8" value="" style="endArrow=classic;html=1;rounded=0;entryX=0;entryY=1;entryDx=0;entryDy=0;exitX=1;exitY=0;exitDx=0;exitDy=0;" parent="1" source="AFzKZ3i9yK1nrJ4SzqqG-3" target="AFzKZ3i9yK1nrJ4SzqqG-4" edge="1">
          <mxGeometry width="50" height="50" relative="1" as="geometry">
            <mxPoint x="45" y="310" as="sourcePoint" />
            <mxPoint x="95" y="260" as="targetPoint" />
          </mxGeometry>
        </mxCell>
        <mxCell id="AFzKZ3i9yK1nrJ4SzqqG-9" value="" style="endArrow=classic;html=1;rounded=0;entryX=0;entryY=0.5;entryDx=0;entryDy=0;exitX=1;exitY=0.5;exitDx=0;exitDy=0;" parent="1" source="AFzKZ3i9yK1nrJ4SzqqG-3" target="AFzKZ3i9yK1nrJ4SzqqG-5" edge="1">
          <mxGeometry width="50" height="50" relative="1" as="geometry">
            <mxPoint x="51" y="314" as="sourcePoint" />
            <mxPoint x="139" y="256" as="targetPoint" />
          </mxGeometry>
        </mxCell>
        <mxCell id="AFzKZ3i9yK1nrJ4SzqqG-10" value="" style="endArrow=classic;html=1;rounded=0;entryX=0;entryY=0;entryDx=0;entryDy=0;exitX=1;exitY=1;exitDx=0;exitDy=0;" parent="1" source="AFzKZ3i9yK1nrJ4SzqqG-3" target="AFzKZ3i9yK1nrJ4SzqqG-6" edge="1">
          <mxGeometry width="50" height="50" relative="1" as="geometry">
            <mxPoint x="61" y="324" as="sourcePoint" />
            <mxPoint x="149" y="266" as="targetPoint" />
          </mxGeometry>
        </mxCell>
        <mxCell id="AFzKZ3i9yK1nrJ4SzqqG-11" value="" style="endArrow=classic;html=1;rounded=0;entryX=0;entryY=0.5;entryDx=0;entryDy=0;exitX=1;exitY=0.5;exitDx=0;exitDy=0;" parent="1" source="AFzKZ3i9yK1nrJ4SzqqG-5" target="AFzKZ3i9yK1nrJ4SzqqG-7" edge="1">
          <mxGeometry width="50" height="50" relative="1" as="geometry">
            <mxPoint x="71" y="334" as="sourcePoint" />
            <mxPoint x="159" y="276" as="targetPoint" />
          </mxGeometry>
        </mxCell>
        <mxCell id="AFzKZ3i9yK1nrJ4SzqqG-12" value="" style="endArrow=classic;html=1;rounded=0;exitX=1;exitY=0;exitDx=0;exitDy=0;" parent="1" edge="1">
          <mxGeometry width="50" height="50" relative="1" as="geometry">
            <mxPoint x="155" y="388" as="sourcePoint" />
            <mxPoint x="235" y="350" as="targetPoint" />
          </mxGeometry>
        </mxCell>
        <mxCell id="AFzKZ3i9yK1nrJ4SzqqG-13" value="n2" style="text;strokeColor=none;align=center;fillColor=none;html=1;verticalAlign=middle;whiteSpace=wrap;rounded=0;" parent="1" vertex="1">
          <mxGeometry x="110" y="220" width="60" height="30" as="geometry" />
        </mxCell>
        <mxCell id="AFzKZ3i9yK1nrJ4SzqqG-14" value="n1" style="text;strokeColor=none;align=center;fillColor=none;html=1;verticalAlign=middle;whiteSpace=wrap;rounded=0;" parent="1" vertex="1">
          <mxGeometry y="300" width="60" height="30" as="geometry" />
        </mxCell>
        <mxCell id="AFzKZ3i9yK1nrJ4SzqqG-15" value="n3" style="text;strokeColor=none;align=center;fillColor=none;html=1;verticalAlign=middle;whiteSpace=wrap;rounded=0;" parent="1" vertex="1">
          <mxGeometry x="110" y="300" width="60" height="30" as="geometry" />
        </mxCell>
        <mxCell id="AFzKZ3i9yK1nrJ4SzqqG-16" value="n4" style="text;strokeColor=none;align=center;fillColor=none;html=1;verticalAlign=middle;whiteSpace=wrap;rounded=0;" parent="1" vertex="1">
          <mxGeometry x="110" y="380" width="60" height="30" as="geometry" />
        </mxCell>
        <mxCell id="AFzKZ3i9yK1nrJ4SzqqG-17" value="n5" style="text;strokeColor=none;align=center;fillColor=none;html=1;verticalAlign=middle;whiteSpace=wrap;rounded=0;" parent="1" vertex="1">
          <mxGeometry x="220" y="330" width="60" height="30" as="geometry" />
        </mxCell>
        <mxCell id="AFzKZ3i9yK1nrJ4SzqqG-18" value="e1" style="text;strokeColor=none;align=center;fillColor=none;html=1;verticalAlign=middle;whiteSpace=wrap;rounded=0;" parent="1" vertex="1">
          <mxGeometry x="51" y="253" width="60" height="30" as="geometry" />
        </mxCell>
        <mxCell id="AFzKZ3i9yK1nrJ4SzqqG-19" value="e2" style="text;strokeColor=none;align=center;fillColor=none;html=1;verticalAlign=middle;whiteSpace=wrap;rounded=0;" parent="1" vertex="1">
          <mxGeometry x="54" y="292" width="60" height="30" as="geometry" />
        </mxCell>
        <mxCell id="AFzKZ3i9yK1nrJ4SzqqG-20" value="e3" style="text;strokeColor=none;align=center;fillColor=none;html=1;verticalAlign=middle;whiteSpace=wrap;rounded=0;" parent="1" vertex="1">
          <mxGeometry x="54" y="329" width="60" height="30" as="geometry" />
        </mxCell>
        <mxCell id="AFzKZ3i9yK1nrJ4SzqqG-21" value="e4" style="text;strokeColor=none;align=center;fillColor=none;html=1;verticalAlign=middle;whiteSpace=wrap;rounded=0;" parent="1" vertex="1">
          <mxGeometry x="165" y="306" width="60" height="30" as="geometry" />
        </mxCell>
        <mxCell id="AFzKZ3i9yK1nrJ4SzqqG-22" value="e5" style="text;strokeColor=none;align=center;fillColor=none;html=1;verticalAlign=middle;whiteSpace=wrap;rounded=0;" parent="1" vertex="1">
          <mxGeometry x="165" y="345" width="60" height="30" as="geometry" />
        </mxCell>
        <mxCell id="AFzKZ3i9yK1nrJ4SzqqG-23" value="" style="html=1;shadow=0;dashed=0;align=center;verticalAlign=middle;shape=mxgraph.arrows2.arrow;dy=0.68;dx=15;notch=0;" parent="1" vertex="1">
          <mxGeometry x="406" y="106" width="30" height="33" as="geometry" />
        </mxCell>
        <mxCell id="AFzKZ3i9yK1nrJ4SzqqG-24" value="&lt;ul&gt;&lt;li&gt;&lt;div align=&quot;left&quot;&gt;节点n1代表subject，记作SS状态，如果存在多个subject则可以引入编号，用红色表示&lt;/div&gt;&lt;/li&gt;&lt;li&gt;叶子节点所在的Action表示匹配完成，用绿色表示&lt;/li&gt;&lt;li&gt;&lt;div align=&quot;left&quot;&gt;中间状态id与action的中边的id一致，例如S3=e3，记作Sn状态，用黄色表示&lt;/div&gt;&lt;/li&gt;&lt;li&gt;每个边上代表一个匹配规则，subject的规则为SP，Action的规则与TKG上的边的编号保持一致，例如AP1，AP2，...，AP5&lt;br&gt;&lt;/li&gt;&lt;/ul&gt;" style="text;strokeColor=none;align=left;fillColor=none;html=1;verticalAlign=middle;whiteSpace=wrap;rounded=0;" parent="1" vertex="1">
          <mxGeometry x="480" y="210" width="510" height="100" as="geometry" />
        </mxCell>
        <mxCell id="AFzKZ3i9yK1nrJ4SzqqG-25" value="&lt;div&gt;&lt;b&gt;原始状态图SG&lt;/b&gt;&lt;/div&gt;&lt;div&gt;&lt;b&gt;&lt;br&gt;&lt;/b&gt;&lt;/div&gt;&lt;div&gt;&lt;b&gt;注意SG的状态机不等同TKG，&lt;/b&gt;&lt;/div&gt;&lt;div&gt;&lt;b&gt;SG是分支匹配，&lt;/b&gt;&lt;/div&gt;&lt;div&gt;&lt;b&gt;TKG是全链路匹配&lt;br&gt;&lt;/b&gt;&lt;/div&gt;" style="text;strokeColor=none;align=center;fillColor=none;html=1;verticalAlign=middle;whiteSpace=wrap;rounded=0;" parent="1" vertex="1">
          <mxGeometry x="36" y="457" width="199" height="30" as="geometry" />
        </mxCell>
        <mxCell id="AFzKZ3i9yK1nrJ4SzqqG-26" value="&lt;div&gt;Moore状态机&lt;/div&gt;&lt;div&gt;(Sequence Table)&lt;br&gt;&lt;/div&gt;" style="text;strokeColor=none;align=center;fillColor=none;html=1;verticalAlign=middle;whiteSpace=wrap;rounded=0;" parent="1" vertex="1">
          <mxGeometry x="361" y="150" width="104" height="30" as="geometry" />
        </mxCell>
        <mxCell id="AFzKZ3i9yK1nrJ4SzqqG-27" value="" style="endArrow=classic;html=1;rounded=0;exitX=1;exitY=0.5;exitDx=0;exitDy=0;entryX=0;entryY=0.5;entryDx=0;entryDy=0;" parent="1" source="AFzKZ3i9yK1nrJ4SzqqG-28" target="AFzKZ3i9yK1nrJ4SzqqG-29" edge="1">
          <mxGeometry width="50" height="50" relative="1" as="geometry">
            <mxPoint x="740" y="144" as="sourcePoint" />
            <mxPoint x="560" y="284" as="targetPoint" />
          </mxGeometry>
        </mxCell>
        <mxCell id="AFzKZ3i9yK1nrJ4SzqqG-28" value="SS" style="ellipse;whiteSpace=wrap;html=1;aspect=fixed;container=0;fillColor=#FF0000;" parent="1" vertex="1">
          <mxGeometry x="655" y="64" width="30" height="30" as="geometry" />
        </mxCell>
        <mxCell id="AFzKZ3i9yK1nrJ4SzqqG-29" value="S1" style="ellipse;whiteSpace=wrap;html=1;aspect=fixed;container=0;fillColor=#66FF66;" parent="1" vertex="1">
          <mxGeometry x="730" y="64" width="30" height="30" as="geometry" />
        </mxCell>
        <mxCell id="AFzKZ3i9yK1nrJ4SzqqG-30" value="" style="endArrow=classic;html=1;rounded=0;exitX=1;exitY=0.5;exitDx=0;exitDy=0;entryX=0;entryY=0.5;entryDx=0;entryDy=0;" parent="1" source="AFzKZ3i9yK1nrJ4SzqqG-31" target="AFzKZ3i9yK1nrJ4SzqqG-32" edge="1">
          <mxGeometry width="50" height="50" relative="1" as="geometry">
            <mxPoint x="740" y="187" as="sourcePoint" />
            <mxPoint x="560" y="327" as="targetPoint" />
          </mxGeometry>
        </mxCell>
        <mxCell id="AFzKZ3i9yK1nrJ4SzqqG-31" value="SS" style="ellipse;whiteSpace=wrap;html=1;aspect=fixed;container=0;fillColor=#FF0000;" parent="1" vertex="1">
          <mxGeometry x="655" y="107" width="30" height="30" as="geometry" />
        </mxCell>
        <mxCell id="AFzKZ3i9yK1nrJ4SzqqG-32" value="S2" style="ellipse;whiteSpace=wrap;html=1;aspect=fixed;container=0;fillColor=#FFFF66;" parent="1" vertex="1">
          <mxGeometry x="730" y="107" width="30" height="30" as="geometry" />
        </mxCell>
        <mxCell id="AFzKZ3i9yK1nrJ4SzqqG-33" value="S4" style="ellipse;whiteSpace=wrap;html=1;aspect=fixed;container=0;fillColor=#66FF66;" parent="1" vertex="1">
          <mxGeometry x="810" y="107" width="30" height="30" as="geometry" />
        </mxCell>
        <mxCell id="AFzKZ3i9yK1nrJ4SzqqG-34" value="" style="endArrow=classic;html=1;rounded=0;exitX=1;exitY=0.5;exitDx=0;exitDy=0;entryX=0;entryY=0.5;entryDx=0;entryDy=0;" parent="1" source="AFzKZ3i9yK1nrJ4SzqqG-32" target="AFzKZ3i9yK1nrJ4SzqqG-33" edge="1">
          <mxGeometry width="50" height="50" relative="1" as="geometry">
            <mxPoint x="695" y="132" as="sourcePoint" />
            <mxPoint x="740" y="132" as="targetPoint" />
          </mxGeometry>
        </mxCell>
        <mxCell id="AFzKZ3i9yK1nrJ4SzqqG-35" value="" style="endArrow=classic;html=1;rounded=0;exitX=1;exitY=0.5;exitDx=0;exitDy=0;entryX=0;entryY=0.5;entryDx=0;entryDy=0;" parent="1" source="AFzKZ3i9yK1nrJ4SzqqG-36" target="AFzKZ3i9yK1nrJ4SzqqG-37" edge="1">
          <mxGeometry width="50" height="50" relative="1" as="geometry">
            <mxPoint x="740" y="234" as="sourcePoint" />
            <mxPoint x="560" y="374" as="targetPoint" />
          </mxGeometry>
        </mxCell>
        <mxCell id="AFzKZ3i9yK1nrJ4SzqqG-36" value="SS" style="ellipse;whiteSpace=wrap;html=1;aspect=fixed;container=0;fillColor=#FF0000;" parent="1" vertex="1">
          <mxGeometry x="655" y="154" width="30" height="30" as="geometry" />
        </mxCell>
        <mxCell id="AFzKZ3i9yK1nrJ4SzqqG-37" value="S3" style="ellipse;whiteSpace=wrap;html=1;aspect=fixed;container=0;fillColor=#FFFF66;" parent="1" vertex="1">
          <mxGeometry x="730" y="154" width="30" height="30" as="geometry" />
        </mxCell>
        <mxCell id="AFzKZ3i9yK1nrJ4SzqqG-38" value="S5" style="ellipse;whiteSpace=wrap;html=1;aspect=fixed;container=0;fillColor=#66FF66;" parent="1" vertex="1">
          <mxGeometry x="810" y="154" width="30" height="30" as="geometry" />
        </mxCell>
        <mxCell id="AFzKZ3i9yK1nrJ4SzqqG-39" value="" style="endArrow=classic;html=1;rounded=0;exitX=1;exitY=0.5;exitDx=0;exitDy=0;entryX=0;entryY=0.5;entryDx=0;entryDy=0;" parent="1" source="AFzKZ3i9yK1nrJ4SzqqG-37" target="AFzKZ3i9yK1nrJ4SzqqG-38" edge="1">
          <mxGeometry width="50" height="50" relative="1" as="geometry">
            <mxPoint x="695" y="179" as="sourcePoint" />
            <mxPoint x="740" y="179" as="targetPoint" />
          </mxGeometry>
        </mxCell>
        <mxCell id="AFzKZ3i9yK1nrJ4SzqqG-40" value="" style="html=1;shadow=0;dashed=0;align=center;verticalAlign=middle;shape=mxgraph.arrows2.arrow;dy=0.68;dx=15;notch=0;" parent="1" vertex="1">
          <mxGeometry x="390" y="560" width="30" height="33" as="geometry" />
        </mxCell>
        <mxCell id="AFzKZ3i9yK1nrJ4SzqqG-41" value="&lt;div&gt;Mealy状态机&lt;/div&gt;&lt;div&gt;(Sequence Table)&lt;br&gt;&lt;/div&gt;" style="text;strokeColor=none;align=center;fillColor=none;html=1;verticalAlign=middle;whiteSpace=wrap;rounded=0;" parent="1" vertex="1">
          <mxGeometry x="345" y="604" width="104" height="30" as="geometry" />
        </mxCell>
        <mxCell id="AFzKZ3i9yK1nrJ4SzqqG-42" value="" style="endArrow=classic;html=1;rounded=0;exitX=1;exitY=0.5;exitDx=0;exitDy=0;entryX=0;entryY=0.5;entryDx=0;entryDy=0;" parent="1" edge="1">
          <mxGeometry width="50" height="50" relative="1" as="geometry">
            <mxPoint x="610" y="78.58" as="sourcePoint" />
            <mxPoint x="655" y="78.58" as="targetPoint" />
          </mxGeometry>
        </mxCell>
        <mxCell id="AFzKZ3i9yK1nrJ4SzqqG-43" value="" style="endArrow=classic;html=1;rounded=0;exitX=1;exitY=0.5;exitDx=0;exitDy=0;entryX=0;entryY=0.5;entryDx=0;entryDy=0;" parent="1" edge="1">
          <mxGeometry width="50" height="50" relative="1" as="geometry">
            <mxPoint x="610" y="123.17" as="sourcePoint" />
            <mxPoint x="655" y="123.17" as="targetPoint" />
          </mxGeometry>
        </mxCell>
        <mxCell id="AFzKZ3i9yK1nrJ4SzqqG-44" value="" style="endArrow=classic;html=1;rounded=0;exitX=1;exitY=0.5;exitDx=0;exitDy=0;entryX=0;entryY=0.5;entryDx=0;entryDy=0;" parent="1" edge="1">
          <mxGeometry width="50" height="50" relative="1" as="geometry">
            <mxPoint x="610" y="123.17" as="sourcePoint" />
            <mxPoint x="655" y="123.17" as="targetPoint" />
          </mxGeometry>
        </mxCell>
        <mxCell id="AFzKZ3i9yK1nrJ4SzqqG-45" value="" style="endArrow=classic;html=1;rounded=0;exitX=1;exitY=0.5;exitDx=0;exitDy=0;entryX=0;entryY=0.5;entryDx=0;entryDy=0;" parent="1" edge="1">
          <mxGeometry width="50" height="50" relative="1" as="geometry">
            <mxPoint x="610" y="169" as="sourcePoint" />
            <mxPoint x="655" y="169" as="targetPoint" />
          </mxGeometry>
        </mxCell>
        <mxCell id="AFzKZ3i9yK1nrJ4SzqqG-46" value="&lt;b&gt;SG rule1&lt;/b&gt;" style="text;strokeColor=none;align=center;fillColor=none;html=1;verticalAlign=middle;whiteSpace=wrap;rounded=0;" parent="1" vertex="1">
          <mxGeometry x="500" y="62" width="80" height="30" as="geometry" />
        </mxCell>
        <mxCell id="AFzKZ3i9yK1nrJ4SzqqG-47" value="&lt;b&gt;SG rule2&lt;/b&gt;" style="text;strokeColor=none;align=center;fillColor=none;html=1;verticalAlign=middle;whiteSpace=wrap;rounded=0;" parent="1" vertex="1">
          <mxGeometry x="498" y="108" width="80" height="30" as="geometry" />
        </mxCell>
        <mxCell id="AFzKZ3i9yK1nrJ4SzqqG-48" value="&lt;b&gt;SG rule3&lt;/b&gt;" style="text;strokeColor=none;align=center;fillColor=none;html=1;verticalAlign=middle;whiteSpace=wrap;rounded=0;" parent="1" vertex="1">
          <mxGeometry x="499" y="154" width="80" height="30" as="geometry" />
        </mxCell>
        <mxCell id="AFzKZ3i9yK1nrJ4SzqqG-49" value="SP" style="text;strokeColor=none;align=center;fillColor=none;html=1;verticalAlign=middle;whiteSpace=wrap;rounded=0;" parent="1" vertex="1">
          <mxGeometry x="595" y="50" width="60" height="30" as="geometry" />
        </mxCell>
        <mxCell id="AFzKZ3i9yK1nrJ4SzqqG-50" value="SP" style="text;strokeColor=none;align=center;fillColor=none;html=1;verticalAlign=middle;whiteSpace=wrap;rounded=0;" parent="1" vertex="1">
          <mxGeometry x="595" y="94" width="60" height="30" as="geometry" />
        </mxCell>
        <mxCell id="AFzKZ3i9yK1nrJ4SzqqG-51" value="SP" style="text;strokeColor=none;align=center;fillColor=none;html=1;verticalAlign=middle;whiteSpace=wrap;rounded=0;" parent="1" vertex="1">
          <mxGeometry x="595" y="139" width="60" height="30" as="geometry" />
        </mxCell>
        <mxCell id="AFzKZ3i9yK1nrJ4SzqqG-52" value="AP1" style="text;strokeColor=none;align=center;fillColor=none;html=1;verticalAlign=middle;whiteSpace=wrap;rounded=0;" parent="1" vertex="1">
          <mxGeometry x="680" y="50" width="60" height="30" as="geometry" />
        </mxCell>
        <mxCell id="AFzKZ3i9yK1nrJ4SzqqG-53" value="AP2" style="text;strokeColor=none;align=center;fillColor=none;html=1;verticalAlign=middle;whiteSpace=wrap;rounded=0;" parent="1" vertex="1">
          <mxGeometry x="680" y="91" width="60" height="30" as="geometry" />
        </mxCell>
        <mxCell id="AFzKZ3i9yK1nrJ4SzqqG-54" value="AP4" style="text;strokeColor=none;align=center;fillColor=none;html=1;verticalAlign=middle;whiteSpace=wrap;rounded=0;" parent="1" vertex="1">
          <mxGeometry x="750" y="92" width="60" height="30" as="geometry" />
        </mxCell>
        <mxCell id="AFzKZ3i9yK1nrJ4SzqqG-55" value="AP3" style="text;strokeColor=none;align=center;fillColor=none;html=1;verticalAlign=middle;whiteSpace=wrap;rounded=0;" parent="1" vertex="1">
          <mxGeometry x="678" y="138" width="60" height="30" as="geometry" />
        </mxCell>
        <mxCell id="AFzKZ3i9yK1nrJ4SzqqG-56" value="AP5" style="text;strokeColor=none;align=center;fillColor=none;html=1;verticalAlign=middle;whiteSpace=wrap;rounded=0;" parent="1" vertex="1">
          <mxGeometry x="748" y="139" width="60" height="30" as="geometry" />
        </mxCell>
        <mxCell id="AFzKZ3i9yK1nrJ4SzqqG-57" value="S1" style="ellipse;whiteSpace=wrap;html=1;aspect=fixed;fillColor=#FF0000;" parent="1" vertex="1">
          <mxGeometry x="658" y="423" width="30" height="30" as="geometry" />
        </mxCell>
        <mxCell id="AFzKZ3i9yK1nrJ4SzqqG-58" value="S2" style="ellipse;whiteSpace=wrap;html=1;aspect=fixed;fillColor=#33FF33;" parent="1" vertex="1">
          <mxGeometry x="768" y="343" width="30" height="30" as="geometry" />
        </mxCell>
        <mxCell id="AFzKZ3i9yK1nrJ4SzqqG-59" value="S3" style="ellipse;whiteSpace=wrap;html=1;aspect=fixed;fillColor=#FFFF33;" parent="1" vertex="1">
          <mxGeometry x="768" y="423" width="30" height="30" as="geometry" />
        </mxCell>
        <mxCell id="AFzKZ3i9yK1nrJ4SzqqG-60" value="S4" style="ellipse;whiteSpace=wrap;html=1;aspect=fixed;fillColor=#FFFF33;" parent="1" vertex="1">
          <mxGeometry x="768" y="503" width="30" height="30" as="geometry" />
        </mxCell>
        <mxCell id="AFzKZ3i9yK1nrJ4SzqqG-61" value="S5" style="ellipse;whiteSpace=wrap;html=1;aspect=fixed;fillColor=#33FF33;" parent="1" vertex="1">
          <mxGeometry x="878" y="453" width="30" height="30" as="geometry" />
        </mxCell>
        <mxCell id="AFzKZ3i9yK1nrJ4SzqqG-62" value="" style="endArrow=classic;html=1;rounded=0;entryX=0;entryY=1;entryDx=0;entryDy=0;exitX=1;exitY=0;exitDx=0;exitDy=0;" parent="1" source="AFzKZ3i9yK1nrJ4SzqqG-57" target="AFzKZ3i9yK1nrJ4SzqqG-58" edge="1">
          <mxGeometry width="50" height="50" relative="1" as="geometry">
            <mxPoint x="688" y="433" as="sourcePoint" />
            <mxPoint x="738" y="383" as="targetPoint" />
          </mxGeometry>
        </mxCell>
        <mxCell id="AFzKZ3i9yK1nrJ4SzqqG-63" value="" style="endArrow=classic;html=1;rounded=0;entryX=0;entryY=0.5;entryDx=0;entryDy=0;exitX=1;exitY=0.5;exitDx=0;exitDy=0;" parent="1" source="AFzKZ3i9yK1nrJ4SzqqG-57" target="AFzKZ3i9yK1nrJ4SzqqG-59" edge="1">
          <mxGeometry width="50" height="50" relative="1" as="geometry">
            <mxPoint x="694" y="437" as="sourcePoint" />
            <mxPoint x="782" y="379" as="targetPoint" />
          </mxGeometry>
        </mxCell>
        <mxCell id="AFzKZ3i9yK1nrJ4SzqqG-64" value="" style="endArrow=classic;html=1;rounded=0;entryX=0;entryY=0;entryDx=0;entryDy=0;exitX=1;exitY=1;exitDx=0;exitDy=0;" parent="1" source="AFzKZ3i9yK1nrJ4SzqqG-57" target="AFzKZ3i9yK1nrJ4SzqqG-60" edge="1">
          <mxGeometry width="50" height="50" relative="1" as="geometry">
            <mxPoint x="704" y="447" as="sourcePoint" />
            <mxPoint x="792" y="389" as="targetPoint" />
          </mxGeometry>
        </mxCell>
        <mxCell id="AFzKZ3i9yK1nrJ4SzqqG-65" value="" style="endArrow=classic;html=1;rounded=0;entryX=0;entryY=0.5;entryDx=0;entryDy=0;exitX=1;exitY=0.5;exitDx=0;exitDy=0;" parent="1" source="AFzKZ3i9yK1nrJ4SzqqG-59" target="AFzKZ3i9yK1nrJ4SzqqG-61" edge="1">
          <mxGeometry width="50" height="50" relative="1" as="geometry">
            <mxPoint x="714" y="457" as="sourcePoint" />
            <mxPoint x="802" y="399" as="targetPoint" />
          </mxGeometry>
        </mxCell>
        <mxCell id="AFzKZ3i9yK1nrJ4SzqqG-66" value="" style="endArrow=classic;html=1;rounded=0;exitX=1;exitY=0;exitDx=0;exitDy=0;" parent="1" edge="1">
          <mxGeometry width="50" height="50" relative="1" as="geometry">
            <mxPoint x="798" y="511" as="sourcePoint" />
            <mxPoint x="878" y="473" as="targetPoint" />
          </mxGeometry>
        </mxCell>
        <mxCell id="AFzKZ3i9yK1nrJ4SzqqG-67" value="AP1" style="text;strokeColor=none;align=center;fillColor=none;html=1;verticalAlign=middle;whiteSpace=wrap;rounded=0;" parent="1" vertex="1">
          <mxGeometry x="694" y="376" width="60" height="30" as="geometry" />
        </mxCell>
        <mxCell id="AFzKZ3i9yK1nrJ4SzqqG-68" value="AP2" style="text;strokeColor=none;align=center;fillColor=none;html=1;verticalAlign=middle;whiteSpace=wrap;rounded=0;" parent="1" vertex="1">
          <mxGeometry x="697" y="415" width="60" height="30" as="geometry" />
        </mxCell>
        <mxCell id="AFzKZ3i9yK1nrJ4SzqqG-69" value="AP3" style="text;strokeColor=none;align=center;fillColor=none;html=1;verticalAlign=middle;whiteSpace=wrap;rounded=0;" parent="1" vertex="1">
          <mxGeometry x="697" y="452" width="60" height="30" as="geometry" />
        </mxCell>
        <mxCell id="AFzKZ3i9yK1nrJ4SzqqG-70" value="AP4" style="text;strokeColor=none;align=center;fillColor=none;html=1;verticalAlign=middle;whiteSpace=wrap;rounded=0;" parent="1" vertex="1">
          <mxGeometry x="808" y="429" width="60" height="30" as="geometry" />
        </mxCell>
        <mxCell id="AFzKZ3i9yK1nrJ4SzqqG-71" value="AP5" style="text;strokeColor=none;align=center;fillColor=none;html=1;verticalAlign=middle;whiteSpace=wrap;rounded=0;" parent="1" vertex="1">
          <mxGeometry x="808" y="468" width="60" height="30" as="geometry" />
        </mxCell>
        <mxCell id="AFzKZ3i9yK1nrJ4SzqqG-72" value="&lt;b&gt;SG rule&lt;/b&gt;" style="text;strokeColor=none;align=center;fillColor=none;html=1;verticalAlign=middle;whiteSpace=wrap;rounded=0;" parent="1" vertex="1">
          <mxGeometry x="500" y="427" width="80" height="30" as="geometry" />
        </mxCell>
        <mxCell id="AFzKZ3i9yK1nrJ4SzqqG-73" value="" style="shape=table;startSize=0;container=1;collapsible=0;childLayout=tableLayout;" parent="1" vertex="1">
          <mxGeometry x="610" y="560" width="360" height="240" as="geometry" />
        </mxCell>
        <mxCell id="AFzKZ3i9yK1nrJ4SzqqG-74" value="" style="shape=tableRow;horizontal=0;startSize=0;swimlaneHead=0;swimlaneBody=0;strokeColor=inherit;top=0;left=0;bottom=0;right=0;collapsible=0;dropTarget=0;fillColor=none;points=[[0,0.5],[1,0.5]];portConstraint=eastwest;" parent="AFzKZ3i9yK1nrJ4SzqqG-73" vertex="1">
          <mxGeometry width="360" height="40" as="geometry" />
        </mxCell>
        <mxCell id="AFzKZ3i9yK1nrJ4SzqqG-75" value="规则\状态" style="shape=partialRectangle;html=1;whiteSpace=wrap;connectable=0;strokeColor=inherit;overflow=hidden;fillColor=none;top=0;left=0;bottom=0;right=0;pointerEvents=1;" parent="AFzKZ3i9yK1nrJ4SzqqG-74" vertex="1">
          <mxGeometry width="60" height="40" as="geometry">
            <mxRectangle width="60" height="40" as="alternateBounds" />
          </mxGeometry>
        </mxCell>
        <mxCell id="AFzKZ3i9yK1nrJ4SzqqG-76" value="&lt;div&gt;S1&lt;/div&gt;" style="shape=partialRectangle;html=1;whiteSpace=wrap;connectable=0;strokeColor=inherit;overflow=hidden;fillColor=#FF0000;top=0;left=0;bottom=0;right=0;pointerEvents=1;" parent="AFzKZ3i9yK1nrJ4SzqqG-74" vertex="1">
          <mxGeometry x="60" width="60" height="40" as="geometry">
            <mxRectangle width="60" height="40" as="alternateBounds" />
          </mxGeometry>
        </mxCell>
        <mxCell id="AFzKZ3i9yK1nrJ4SzqqG-77" value="S2" style="shape=partialRectangle;html=1;whiteSpace=wrap;connectable=0;strokeColor=inherit;overflow=hidden;fillColor=#33FF33;top=0;left=0;bottom=0;right=0;pointerEvents=1;" parent="AFzKZ3i9yK1nrJ4SzqqG-74" vertex="1">
          <mxGeometry x="120" width="60" height="40" as="geometry">
            <mxRectangle width="60" height="40" as="alternateBounds" />
          </mxGeometry>
        </mxCell>
        <mxCell id="AFzKZ3i9yK1nrJ4SzqqG-78" value="S3" style="shape=partialRectangle;html=1;whiteSpace=wrap;connectable=0;strokeColor=inherit;overflow=hidden;fillColor=#FFFF99;top=0;left=0;bottom=0;right=0;pointerEvents=1;" parent="AFzKZ3i9yK1nrJ4SzqqG-74" vertex="1">
          <mxGeometry x="180" width="60" height="40" as="geometry">
            <mxRectangle width="60" height="40" as="alternateBounds" />
          </mxGeometry>
        </mxCell>
        <mxCell id="AFzKZ3i9yK1nrJ4SzqqG-79" value="S4" style="shape=partialRectangle;html=1;whiteSpace=wrap;connectable=0;strokeColor=inherit;overflow=hidden;fillColor=#FFFF99;top=0;left=0;bottom=0;right=0;pointerEvents=1;" parent="AFzKZ3i9yK1nrJ4SzqqG-74" vertex="1">
          <mxGeometry x="240" width="60" height="40" as="geometry">
            <mxRectangle width="60" height="40" as="alternateBounds" />
          </mxGeometry>
        </mxCell>
        <mxCell id="AFzKZ3i9yK1nrJ4SzqqG-80" value="S5" style="shape=partialRectangle;html=1;whiteSpace=wrap;connectable=0;strokeColor=inherit;overflow=hidden;fillColor=#33FF33;top=0;left=0;bottom=0;right=0;pointerEvents=1;" parent="AFzKZ3i9yK1nrJ4SzqqG-74" vertex="1">
          <mxGeometry x="300" width="60" height="40" as="geometry">
            <mxRectangle width="60" height="40" as="alternateBounds" />
          </mxGeometry>
        </mxCell>
        <mxCell id="AFzKZ3i9yK1nrJ4SzqqG-81" value="" style="shape=tableRow;horizontal=0;startSize=0;swimlaneHead=0;swimlaneBody=0;strokeColor=inherit;top=0;left=0;bottom=0;right=0;collapsible=0;dropTarget=0;fillColor=none;points=[[0,0.5],[1,0.5]];portConstraint=eastwest;" parent="AFzKZ3i9yK1nrJ4SzqqG-73" vertex="1">
          <mxGeometry y="40" width="360" height="40" as="geometry" />
        </mxCell>
        <mxCell id="AFzKZ3i9yK1nrJ4SzqqG-82" value="AP1" style="shape=partialRectangle;html=1;whiteSpace=wrap;connectable=0;strokeColor=inherit;overflow=hidden;fillColor=none;top=0;left=0;bottom=0;right=0;pointerEvents=1;" parent="AFzKZ3i9yK1nrJ4SzqqG-81" vertex="1">
          <mxGeometry width="60" height="40" as="geometry">
            <mxRectangle width="60" height="40" as="alternateBounds" />
          </mxGeometry>
        </mxCell>
        <mxCell id="AFzKZ3i9yK1nrJ4SzqqG-83" value="S2" style="shape=partialRectangle;html=1;whiteSpace=wrap;connectable=0;strokeColor=inherit;overflow=hidden;fillColor=#33FF33;top=0;left=0;bottom=0;right=0;pointerEvents=1;" parent="AFzKZ3i9yK1nrJ4SzqqG-81" vertex="1">
          <mxGeometry x="60" width="60" height="40" as="geometry">
            <mxRectangle width="60" height="40" as="alternateBounds" />
          </mxGeometry>
        </mxCell>
        <mxCell id="AFzKZ3i9yK1nrJ4SzqqG-84" style="shape=partialRectangle;html=1;whiteSpace=wrap;connectable=0;strokeColor=inherit;overflow=hidden;fillColor=#33FF33;top=0;left=0;bottom=0;right=0;pointerEvents=1;" parent="AFzKZ3i9yK1nrJ4SzqqG-81" vertex="1">
          <mxGeometry x="120" width="60" height="40" as="geometry">
            <mxRectangle width="60" height="40" as="alternateBounds" />
          </mxGeometry>
        </mxCell>
        <mxCell id="AFzKZ3i9yK1nrJ4SzqqG-85" value="" style="shape=partialRectangle;html=1;whiteSpace=wrap;connectable=0;strokeColor=inherit;overflow=hidden;fillColor=none;top=0;left=0;bottom=0;right=0;pointerEvents=1;" parent="AFzKZ3i9yK1nrJ4SzqqG-81" vertex="1">
          <mxGeometry x="180" width="60" height="40" as="geometry">
            <mxRectangle width="60" height="40" as="alternateBounds" />
          </mxGeometry>
        </mxCell>
        <mxCell id="AFzKZ3i9yK1nrJ4SzqqG-86" value="" style="shape=partialRectangle;html=1;whiteSpace=wrap;connectable=0;strokeColor=inherit;overflow=hidden;fillColor=none;top=0;left=0;bottom=0;right=0;pointerEvents=1;" parent="AFzKZ3i9yK1nrJ4SzqqG-81" vertex="1">
          <mxGeometry x="240" width="60" height="40" as="geometry">
            <mxRectangle width="60" height="40" as="alternateBounds" />
          </mxGeometry>
        </mxCell>
        <mxCell id="AFzKZ3i9yK1nrJ4SzqqG-87" value="" style="shape=partialRectangle;html=1;whiteSpace=wrap;connectable=0;strokeColor=inherit;overflow=hidden;fillColor=#33FF33;top=0;left=0;bottom=0;right=0;pointerEvents=1;" parent="AFzKZ3i9yK1nrJ4SzqqG-81" vertex="1">
          <mxGeometry x="300" width="60" height="40" as="geometry">
            <mxRectangle width="60" height="40" as="alternateBounds" />
          </mxGeometry>
        </mxCell>
        <mxCell id="AFzKZ3i9yK1nrJ4SzqqG-88" value="" style="shape=tableRow;horizontal=0;startSize=0;swimlaneHead=0;swimlaneBody=0;strokeColor=inherit;top=0;left=0;bottom=0;right=0;collapsible=0;dropTarget=0;fillColor=none;points=[[0,0.5],[1,0.5]];portConstraint=eastwest;" parent="AFzKZ3i9yK1nrJ4SzqqG-73" vertex="1">
          <mxGeometry y="80" width="360" height="40" as="geometry" />
        </mxCell>
        <mxCell id="AFzKZ3i9yK1nrJ4SzqqG-89" value="AP2" style="shape=partialRectangle;html=1;whiteSpace=wrap;connectable=0;strokeColor=inherit;overflow=hidden;fillColor=none;top=0;left=0;bottom=0;right=0;pointerEvents=1;" parent="AFzKZ3i9yK1nrJ4SzqqG-88" vertex="1">
          <mxGeometry width="60" height="40" as="geometry">
            <mxRectangle width="60" height="40" as="alternateBounds" />
          </mxGeometry>
        </mxCell>
        <mxCell id="AFzKZ3i9yK1nrJ4SzqqG-90" value="S3" style="shape=partialRectangle;html=1;whiteSpace=wrap;connectable=0;strokeColor=inherit;overflow=hidden;fillColor=#FFFF99;top=0;left=0;bottom=0;right=0;pointerEvents=1;" parent="AFzKZ3i9yK1nrJ4SzqqG-88" vertex="1">
          <mxGeometry x="60" width="60" height="40" as="geometry">
            <mxRectangle width="60" height="40" as="alternateBounds" />
          </mxGeometry>
        </mxCell>
        <mxCell id="AFzKZ3i9yK1nrJ4SzqqG-91" style="shape=partialRectangle;html=1;whiteSpace=wrap;connectable=0;strokeColor=inherit;overflow=hidden;fillColor=#33FF33;top=0;left=0;bottom=0;right=0;pointerEvents=1;" parent="AFzKZ3i9yK1nrJ4SzqqG-88" vertex="1">
          <mxGeometry x="120" width="60" height="40" as="geometry">
            <mxRectangle width="60" height="40" as="alternateBounds" />
          </mxGeometry>
        </mxCell>
        <mxCell id="AFzKZ3i9yK1nrJ4SzqqG-92" value="" style="shape=partialRectangle;html=1;whiteSpace=wrap;connectable=0;strokeColor=inherit;overflow=hidden;fillColor=none;top=0;left=0;bottom=0;right=0;pointerEvents=1;" parent="AFzKZ3i9yK1nrJ4SzqqG-88" vertex="1">
          <mxGeometry x="180" width="60" height="40" as="geometry">
            <mxRectangle width="60" height="40" as="alternateBounds" />
          </mxGeometry>
        </mxCell>
        <mxCell id="AFzKZ3i9yK1nrJ4SzqqG-93" value="" style="shape=partialRectangle;html=1;whiteSpace=wrap;connectable=0;strokeColor=inherit;overflow=hidden;fillColor=none;top=0;left=0;bottom=0;right=0;pointerEvents=1;" parent="AFzKZ3i9yK1nrJ4SzqqG-88" vertex="1">
          <mxGeometry x="240" width="60" height="40" as="geometry">
            <mxRectangle width="60" height="40" as="alternateBounds" />
          </mxGeometry>
        </mxCell>
        <mxCell id="AFzKZ3i9yK1nrJ4SzqqG-94" value="" style="shape=partialRectangle;html=1;whiteSpace=wrap;connectable=0;strokeColor=inherit;overflow=hidden;fillColor=#33FF33;top=0;left=0;bottom=0;right=0;pointerEvents=1;" parent="AFzKZ3i9yK1nrJ4SzqqG-88" vertex="1">
          <mxGeometry x="300" width="60" height="40" as="geometry">
            <mxRectangle width="60" height="40" as="alternateBounds" />
          </mxGeometry>
        </mxCell>
        <mxCell id="AFzKZ3i9yK1nrJ4SzqqG-95" value="" style="shape=tableRow;horizontal=0;startSize=0;swimlaneHead=0;swimlaneBody=0;strokeColor=inherit;top=0;left=0;bottom=0;right=0;collapsible=0;dropTarget=0;fillColor=none;points=[[0,0.5],[1,0.5]];portConstraint=eastwest;" parent="AFzKZ3i9yK1nrJ4SzqqG-73" vertex="1">
          <mxGeometry y="120" width="360" height="40" as="geometry" />
        </mxCell>
        <mxCell id="AFzKZ3i9yK1nrJ4SzqqG-96" value="AP3" style="shape=partialRectangle;html=1;whiteSpace=wrap;connectable=0;strokeColor=inherit;overflow=hidden;fillColor=none;top=0;left=0;bottom=0;right=0;pointerEvents=1;" parent="AFzKZ3i9yK1nrJ4SzqqG-95" vertex="1">
          <mxGeometry width="60" height="40" as="geometry">
            <mxRectangle width="60" height="40" as="alternateBounds" />
          </mxGeometry>
        </mxCell>
        <mxCell id="AFzKZ3i9yK1nrJ4SzqqG-97" value="S4" style="shape=partialRectangle;html=1;whiteSpace=wrap;connectable=0;strokeColor=inherit;overflow=hidden;fillColor=#FFFF99;top=0;left=0;bottom=0;right=0;pointerEvents=1;" parent="AFzKZ3i9yK1nrJ4SzqqG-95" vertex="1">
          <mxGeometry x="60" width="60" height="40" as="geometry">
            <mxRectangle width="60" height="40" as="alternateBounds" />
          </mxGeometry>
        </mxCell>
        <mxCell id="AFzKZ3i9yK1nrJ4SzqqG-98" style="shape=partialRectangle;html=1;whiteSpace=wrap;connectable=0;strokeColor=inherit;overflow=hidden;fillColor=#33FF33;top=0;left=0;bottom=0;right=0;pointerEvents=1;" parent="AFzKZ3i9yK1nrJ4SzqqG-95" vertex="1">
          <mxGeometry x="120" width="60" height="40" as="geometry">
            <mxRectangle width="60" height="40" as="alternateBounds" />
          </mxGeometry>
        </mxCell>
        <mxCell id="AFzKZ3i9yK1nrJ4SzqqG-99" value="" style="shape=partialRectangle;html=1;whiteSpace=wrap;connectable=0;strokeColor=inherit;overflow=hidden;fillColor=none;top=0;left=0;bottom=0;right=0;pointerEvents=1;" parent="AFzKZ3i9yK1nrJ4SzqqG-95" vertex="1">
          <mxGeometry x="180" width="60" height="40" as="geometry">
            <mxRectangle width="60" height="40" as="alternateBounds" />
          </mxGeometry>
        </mxCell>
        <mxCell id="AFzKZ3i9yK1nrJ4SzqqG-100" value="" style="shape=partialRectangle;html=1;whiteSpace=wrap;connectable=0;strokeColor=inherit;overflow=hidden;fillColor=none;top=0;left=0;bottom=0;right=0;pointerEvents=1;" parent="AFzKZ3i9yK1nrJ4SzqqG-95" vertex="1">
          <mxGeometry x="240" width="60" height="40" as="geometry">
            <mxRectangle width="60" height="40" as="alternateBounds" />
          </mxGeometry>
        </mxCell>
        <mxCell id="AFzKZ3i9yK1nrJ4SzqqG-101" value="" style="shape=partialRectangle;html=1;whiteSpace=wrap;connectable=0;strokeColor=inherit;overflow=hidden;fillColor=#33FF33;top=0;left=0;bottom=0;right=0;pointerEvents=1;" parent="AFzKZ3i9yK1nrJ4SzqqG-95" vertex="1">
          <mxGeometry x="300" width="60" height="40" as="geometry">
            <mxRectangle width="60" height="40" as="alternateBounds" />
          </mxGeometry>
        </mxCell>
        <mxCell id="AFzKZ3i9yK1nrJ4SzqqG-102" value="" style="shape=tableRow;horizontal=0;startSize=0;swimlaneHead=0;swimlaneBody=0;strokeColor=inherit;top=0;left=0;bottom=0;right=0;collapsible=0;dropTarget=0;fillColor=none;points=[[0,0.5],[1,0.5]];portConstraint=eastwest;" parent="AFzKZ3i9yK1nrJ4SzqqG-73" vertex="1">
          <mxGeometry y="160" width="360" height="40" as="geometry" />
        </mxCell>
        <mxCell id="AFzKZ3i9yK1nrJ4SzqqG-103" value="AP4" style="shape=partialRectangle;html=1;whiteSpace=wrap;connectable=0;strokeColor=inherit;overflow=hidden;fillColor=none;top=0;left=0;bottom=0;right=0;pointerEvents=1;" parent="AFzKZ3i9yK1nrJ4SzqqG-102" vertex="1">
          <mxGeometry width="60" height="40" as="geometry">
            <mxRectangle width="60" height="40" as="alternateBounds" />
          </mxGeometry>
        </mxCell>
        <mxCell id="AFzKZ3i9yK1nrJ4SzqqG-104" value="" style="shape=partialRectangle;html=1;whiteSpace=wrap;connectable=0;strokeColor=inherit;overflow=hidden;fillColor=none;top=0;left=0;bottom=0;right=0;pointerEvents=1;" parent="AFzKZ3i9yK1nrJ4SzqqG-102" vertex="1">
          <mxGeometry x="60" width="60" height="40" as="geometry">
            <mxRectangle width="60" height="40" as="alternateBounds" />
          </mxGeometry>
        </mxCell>
        <mxCell id="AFzKZ3i9yK1nrJ4SzqqG-105" style="shape=partialRectangle;html=1;whiteSpace=wrap;connectable=0;strokeColor=inherit;overflow=hidden;fillColor=#33FF33;top=0;left=0;bottom=0;right=0;pointerEvents=1;" parent="AFzKZ3i9yK1nrJ4SzqqG-102" vertex="1">
          <mxGeometry x="120" width="60" height="40" as="geometry">
            <mxRectangle width="60" height="40" as="alternateBounds" />
          </mxGeometry>
        </mxCell>
        <mxCell id="AFzKZ3i9yK1nrJ4SzqqG-106" value="S5" style="shape=partialRectangle;html=1;whiteSpace=wrap;connectable=0;strokeColor=inherit;overflow=hidden;fillColor=#33FF33;top=0;left=0;bottom=0;right=0;pointerEvents=1;" parent="AFzKZ3i9yK1nrJ4SzqqG-102" vertex="1">
          <mxGeometry x="180" width="60" height="40" as="geometry">
            <mxRectangle width="60" height="40" as="alternateBounds" />
          </mxGeometry>
        </mxCell>
        <mxCell id="AFzKZ3i9yK1nrJ4SzqqG-107" value="" style="shape=partialRectangle;html=1;whiteSpace=wrap;connectable=0;strokeColor=inherit;overflow=hidden;fillColor=none;top=0;left=0;bottom=0;right=0;pointerEvents=1;" parent="AFzKZ3i9yK1nrJ4SzqqG-102" vertex="1">
          <mxGeometry x="240" width="60" height="40" as="geometry">
            <mxRectangle width="60" height="40" as="alternateBounds" />
          </mxGeometry>
        </mxCell>
        <mxCell id="AFzKZ3i9yK1nrJ4SzqqG-108" value="" style="shape=partialRectangle;html=1;whiteSpace=wrap;connectable=0;strokeColor=inherit;overflow=hidden;fillColor=#33FF33;top=0;left=0;bottom=0;right=0;pointerEvents=1;" parent="AFzKZ3i9yK1nrJ4SzqqG-102" vertex="1">
          <mxGeometry x="300" width="60" height="40" as="geometry">
            <mxRectangle width="60" height="40" as="alternateBounds" />
          </mxGeometry>
        </mxCell>
        <mxCell id="AFzKZ3i9yK1nrJ4SzqqG-109" value="" style="shape=tableRow;horizontal=0;startSize=0;swimlaneHead=0;swimlaneBody=0;strokeColor=inherit;top=0;left=0;bottom=0;right=0;collapsible=0;dropTarget=0;fillColor=none;points=[[0,0.5],[1,0.5]];portConstraint=eastwest;" parent="AFzKZ3i9yK1nrJ4SzqqG-73" vertex="1">
          <mxGeometry y="200" width="360" height="40" as="geometry" />
        </mxCell>
        <mxCell id="AFzKZ3i9yK1nrJ4SzqqG-110" value="AP5" style="shape=partialRectangle;html=1;whiteSpace=wrap;connectable=0;strokeColor=inherit;overflow=hidden;fillColor=none;top=0;left=0;bottom=0;right=0;pointerEvents=1;" parent="AFzKZ3i9yK1nrJ4SzqqG-109" vertex="1">
          <mxGeometry width="60" height="40" as="geometry">
            <mxRectangle width="60" height="40" as="alternateBounds" />
          </mxGeometry>
        </mxCell>
        <mxCell id="AFzKZ3i9yK1nrJ4SzqqG-111" value="" style="shape=partialRectangle;html=1;whiteSpace=wrap;connectable=0;strokeColor=inherit;overflow=hidden;fillColor=none;top=0;left=0;bottom=0;right=0;pointerEvents=1;" parent="AFzKZ3i9yK1nrJ4SzqqG-109" vertex="1">
          <mxGeometry x="60" width="60" height="40" as="geometry">
            <mxRectangle width="60" height="40" as="alternateBounds" />
          </mxGeometry>
        </mxCell>
        <mxCell id="AFzKZ3i9yK1nrJ4SzqqG-112" style="shape=partialRectangle;html=1;whiteSpace=wrap;connectable=0;strokeColor=inherit;overflow=hidden;fillColor=#33FF33;top=0;left=0;bottom=0;right=0;pointerEvents=1;" parent="AFzKZ3i9yK1nrJ4SzqqG-109" vertex="1">
          <mxGeometry x="120" width="60" height="40" as="geometry">
            <mxRectangle width="60" height="40" as="alternateBounds" />
          </mxGeometry>
        </mxCell>
        <mxCell id="AFzKZ3i9yK1nrJ4SzqqG-113" value="" style="shape=partialRectangle;html=1;whiteSpace=wrap;connectable=0;strokeColor=inherit;overflow=hidden;fillColor=none;top=0;left=0;bottom=0;right=0;pointerEvents=1;" parent="AFzKZ3i9yK1nrJ4SzqqG-109" vertex="1">
          <mxGeometry x="180" width="60" height="40" as="geometry">
            <mxRectangle width="60" height="40" as="alternateBounds" />
          </mxGeometry>
        </mxCell>
        <mxCell id="AFzKZ3i9yK1nrJ4SzqqG-114" value="S5" style="shape=partialRectangle;html=1;whiteSpace=wrap;connectable=0;strokeColor=inherit;overflow=hidden;fillColor=#33FF33;top=0;left=0;bottom=0;right=0;pointerEvents=1;" parent="AFzKZ3i9yK1nrJ4SzqqG-109" vertex="1">
          <mxGeometry x="240" width="60" height="40" as="geometry">
            <mxRectangle width="60" height="40" as="alternateBounds" />
          </mxGeometry>
        </mxCell>
        <mxCell id="AFzKZ3i9yK1nrJ4SzqqG-115" value="" style="shape=partialRectangle;html=1;whiteSpace=wrap;connectable=0;strokeColor=inherit;overflow=hidden;fillColor=#33FF33;top=0;left=0;bottom=0;right=0;pointerEvents=1;" parent="AFzKZ3i9yK1nrJ4SzqqG-109" vertex="1">
          <mxGeometry x="300" width="60" height="40" as="geometry">
            <mxRectangle width="60" height="40" as="alternateBounds" />
          </mxGeometry>
        </mxCell>
        <mxCell id="AFzKZ3i9yK1nrJ4SzqqG-116" value="&lt;div&gt;&lt;b&gt;SG rule&lt;/b&gt;&lt;/div&gt;&lt;div&gt;&lt;b&gt;matrix&lt;br&gt;&lt;/b&gt;&lt;/div&gt;" style="text;strokeColor=none;align=center;fillColor=none;html=1;verticalAlign=middle;whiteSpace=wrap;rounded=0;" parent="1" vertex="1">
          <mxGeometry x="498" y="665" width="80" height="30" as="geometry" />
        </mxCell>
        <mxCell id="AFzKZ3i9yK1nrJ4SzqqG-117" value="" style="endArrow=none;html=1;rounded=0;" parent="1" edge="1">
          <mxGeometry width="50" height="50" relative="1" as="geometry">
            <mxPoint x="460" y="330" as="sourcePoint" />
            <mxPoint x="1670" y="330" as="targetPoint" />
          </mxGeometry>
        </mxCell>
        <mxCell id="AFzKZ3i9yK1nrJ4SzqqG-118" style="edgeStyle=orthogonalEdgeStyle;rounded=0;orthogonalLoop=1;jettySize=auto;html=1;exitX=0.5;exitY=1;exitDx=0;exitDy=0;entryX=0.5;entryY=0;entryDx=0;entryDy=0;" parent="1" source="AFzKZ3i9yK1nrJ4SzqqG-121" target="AFzKZ3i9yK1nrJ4SzqqG-124" edge="1">
          <mxGeometry relative="1" as="geometry" />
        </mxCell>
        <mxCell id="AFzKZ3i9yK1nrJ4SzqqG-119" style="rounded=0;orthogonalLoop=1;jettySize=auto;html=1;exitX=0.5;exitY=1;exitDx=0;exitDy=0;entryX=0.5;entryY=0;entryDx=0;entryDy=0;" parent="1" source="AFzKZ3i9yK1nrJ4SzqqG-121" target="AFzKZ3i9yK1nrJ4SzqqG-125" edge="1">
          <mxGeometry relative="1" as="geometry" />
        </mxCell>
        <mxCell id="AFzKZ3i9yK1nrJ4SzqqG-120" style="rounded=0;orthogonalLoop=1;jettySize=auto;html=1;exitX=0.5;exitY=1;exitDx=0;exitDy=0;entryX=0.5;entryY=0;entryDx=0;entryDy=0;" parent="1" source="AFzKZ3i9yK1nrJ4SzqqG-121" target="AFzKZ3i9yK1nrJ4SzqqG-126" edge="1">
          <mxGeometry relative="1" as="geometry" />
        </mxCell>
        <mxCell id="AFzKZ3i9yK1nrJ4SzqqG-121" value="SS" style="ellipse;whiteSpace=wrap;html=1;aspect=fixed;container=0;fillColor=#FF0000;" parent="1" vertex="1">
          <mxGeometry x="1510" y="-28" width="30" height="30" as="geometry" />
        </mxCell>
        <mxCell id="AFzKZ3i9yK1nrJ4SzqqG-122" style="edgeStyle=orthogonalEdgeStyle;rounded=0;orthogonalLoop=1;jettySize=auto;html=1;exitX=0.5;exitY=1;exitDx=0;exitDy=0;entryX=0.5;entryY=0;entryDx=0;entryDy=0;" parent="1" source="AFzKZ3i9yK1nrJ4SzqqG-123" target="AFzKZ3i9yK1nrJ4SzqqG-121" edge="1">
          <mxGeometry relative="1" as="geometry" />
        </mxCell>
        <mxCell id="AFzKZ3i9yK1nrJ4SzqqG-123" value="" style="ellipse;whiteSpace=wrap;html=1;aspect=fixed;container=0;fillColor=none;" parent="1" vertex="1">
          <mxGeometry x="1510" y="-90" width="30" height="30" as="geometry" />
        </mxCell>
        <mxCell id="AFzKZ3i9yK1nrJ4SzqqG-124" value="S2" style="ellipse;whiteSpace=wrap;html=1;aspect=fixed;container=0;fillColor=#FFFF99;" parent="1" vertex="1">
          <mxGeometry x="1510" y="34" width="30" height="30" as="geometry" />
        </mxCell>
        <mxCell id="AFzKZ3i9yK1nrJ4SzqqG-125" value="" style="ellipse;whiteSpace=wrap;html=1;aspect=fixed;container=0;fillColor=none;" parent="1" vertex="1">
          <mxGeometry x="1440" y="35" width="30" height="30" as="geometry" />
        </mxCell>
        <mxCell id="AFzKZ3i9yK1nrJ4SzqqG-126" value="S3" style="ellipse;whiteSpace=wrap;html=1;aspect=fixed;container=0;fillColor=#FFFF99;" parent="1" vertex="1">
          <mxGeometry x="1370" y="35" width="30" height="30" as="geometry" />
        </mxCell>
        <mxCell id="AFzKZ3i9yK1nrJ4SzqqG-127" value="" style="ellipse;whiteSpace=wrap;html=1;aspect=fixed;container=0;fillColor=none;" parent="1" vertex="1">
          <mxGeometry x="1290" y="35" width="30" height="30" as="geometry" />
        </mxCell>
        <mxCell id="AFzKZ3i9yK1nrJ4SzqqG-128" value="" style="ellipse;whiteSpace=wrap;html=1;aspect=fixed;container=0;fillColor=none;" parent="1" vertex="1">
          <mxGeometry x="1800" y="33" width="30" height="30" as="geometry" />
        </mxCell>
        <mxCell id="AFzKZ3i9yK1nrJ4SzqqG-129" value="" style="ellipse;whiteSpace=wrap;html=1;aspect=fixed;container=0;fillColor=none;" parent="1" vertex="1">
          <mxGeometry x="1730" y="34" width="30" height="30" as="geometry" />
        </mxCell>
        <mxCell id="AFzKZ3i9yK1nrJ4SzqqG-130" value="S1" style="ellipse;whiteSpace=wrap;html=1;aspect=fixed;container=0;fillColor=#33FF33;" parent="1" vertex="1">
          <mxGeometry x="1660" y="34" width="30" height="30" as="geometry" />
        </mxCell>
        <mxCell id="AFzKZ3i9yK1nrJ4SzqqG-131" value="" style="ellipse;whiteSpace=wrap;html=1;aspect=fixed;container=0;fillColor=none;" parent="1" vertex="1">
          <mxGeometry x="1580" y="34" width="30" height="30" as="geometry" />
        </mxCell>
        <mxCell id="AFzKZ3i9yK1nrJ4SzqqG-132" value="" style="endArrow=classic;html=1;rounded=0;exitX=0.5;exitY=1;exitDx=0;exitDy=0;entryX=0.5;entryY=0;entryDx=0;entryDy=0;" parent="1" source="AFzKZ3i9yK1nrJ4SzqqG-121" target="AFzKZ3i9yK1nrJ4SzqqG-131" edge="1">
          <mxGeometry width="50" height="50" relative="1" as="geometry">
            <mxPoint x="1380" y="316" as="sourcePoint" />
            <mxPoint x="1430" y="266" as="targetPoint" />
          </mxGeometry>
        </mxCell>
        <mxCell id="AFzKZ3i9yK1nrJ4SzqqG-133" value="" style="endArrow=classic;html=1;rounded=0;exitX=0.5;exitY=1;exitDx=0;exitDy=0;" parent="1" source="AFzKZ3i9yK1nrJ4SzqqG-121" edge="1">
          <mxGeometry width="50" height="50" relative="1" as="geometry">
            <mxPoint x="1390" y="326" as="sourcePoint" />
            <mxPoint x="1305" y="36" as="targetPoint" />
          </mxGeometry>
        </mxCell>
        <mxCell id="AFzKZ3i9yK1nrJ4SzqqG-134" value="" style="endArrow=classic;html=1;rounded=0;entryX=0.5;entryY=0;entryDx=0;entryDy=0;exitX=0.5;exitY=1;exitDx=0;exitDy=0;" parent="1" source="AFzKZ3i9yK1nrJ4SzqqG-121" target="AFzKZ3i9yK1nrJ4SzqqG-130" edge="1">
          <mxGeometry width="50" height="50" relative="1" as="geometry">
            <mxPoint x="1400" y="336" as="sourcePoint" />
            <mxPoint x="1450" y="286" as="targetPoint" />
          </mxGeometry>
        </mxCell>
        <mxCell id="AFzKZ3i9yK1nrJ4SzqqG-135" value="" style="endArrow=classic;html=1;rounded=0;entryX=0.5;entryY=0;entryDx=0;entryDy=0;exitX=0.5;exitY=1;exitDx=0;exitDy=0;" parent="1" source="AFzKZ3i9yK1nrJ4SzqqG-121" target="AFzKZ3i9yK1nrJ4SzqqG-129" edge="1">
          <mxGeometry width="50" height="50" relative="1" as="geometry">
            <mxPoint x="1410" y="346" as="sourcePoint" />
            <mxPoint x="1460" y="296" as="targetPoint" />
          </mxGeometry>
        </mxCell>
        <mxCell id="AFzKZ3i9yK1nrJ4SzqqG-136" value="" style="endArrow=classic;html=1;rounded=0;entryX=0.5;entryY=0;entryDx=0;entryDy=0;exitX=0.5;exitY=1;exitDx=0;exitDy=0;" parent="1" source="AFzKZ3i9yK1nrJ4SzqqG-121" target="AFzKZ3i9yK1nrJ4SzqqG-128" edge="1">
          <mxGeometry width="50" height="50" relative="1" as="geometry">
            <mxPoint x="1420" y="356" as="sourcePoint" />
            <mxPoint x="1470" y="306" as="targetPoint" />
          </mxGeometry>
        </mxCell>
        <mxCell id="AFzKZ3i9yK1nrJ4SzqqG-137" value="" style="ellipse;whiteSpace=wrap;html=1;aspect=fixed;container=0;fillColor=none;" parent="1" vertex="1">
          <mxGeometry x="1480" y="108" width="30" height="30" as="geometry" />
        </mxCell>
        <mxCell id="AFzKZ3i9yK1nrJ4SzqqG-138" value="" style="ellipse;whiteSpace=wrap;html=1;aspect=fixed;container=0;fillColor=none;" parent="1" vertex="1">
          <mxGeometry x="1410" y="109" width="30" height="30" as="geometry" />
        </mxCell>
        <mxCell id="AFzKZ3i9yK1nrJ4SzqqG-139" value="" style="ellipse;whiteSpace=wrap;html=1;aspect=fixed;container=0;fillColor=none;" parent="1" vertex="1">
          <mxGeometry x="1340" y="109" width="30" height="30" as="geometry" />
        </mxCell>
        <mxCell id="AFzKZ3i9yK1nrJ4SzqqG-140" value="" style="ellipse;whiteSpace=wrap;html=1;aspect=fixed;container=0;fillColor=none;" parent="1" vertex="1">
          <mxGeometry x="1260" y="109" width="30" height="30" as="geometry" />
        </mxCell>
        <mxCell id="AFzKZ3i9yK1nrJ4SzqqG-141" value="" style="endArrow=classic;html=1;rounded=0;exitX=0.5;exitY=1;exitDx=0;exitDy=0;entryX=0.5;entryY=0;entryDx=0;entryDy=0;" parent="1" source="AFzKZ3i9yK1nrJ4SzqqG-126" target="AFzKZ3i9yK1nrJ4SzqqG-140" edge="1">
          <mxGeometry width="50" height="50" relative="1" as="geometry">
            <mxPoint x="1350" y="190" as="sourcePoint" />
            <mxPoint x="1400" y="140" as="targetPoint" />
          </mxGeometry>
        </mxCell>
        <mxCell id="AFzKZ3i9yK1nrJ4SzqqG-142" value="" style="endArrow=classic;html=1;rounded=0;exitX=0.5;exitY=1;exitDx=0;exitDy=0;entryX=0.5;entryY=0;entryDx=0;entryDy=0;" parent="1" source="AFzKZ3i9yK1nrJ4SzqqG-126" target="AFzKZ3i9yK1nrJ4SzqqG-139" edge="1">
          <mxGeometry width="50" height="50" relative="1" as="geometry">
            <mxPoint x="1360" y="200" as="sourcePoint" />
            <mxPoint x="1410" y="150" as="targetPoint" />
          </mxGeometry>
        </mxCell>
        <mxCell id="AFzKZ3i9yK1nrJ4SzqqG-143" value="" style="endArrow=classic;html=1;rounded=0;exitX=0.5;exitY=1;exitDx=0;exitDy=0;entryX=0.5;entryY=0;entryDx=0;entryDy=0;" parent="1" source="AFzKZ3i9yK1nrJ4SzqqG-126" target="AFzKZ3i9yK1nrJ4SzqqG-138" edge="1">
          <mxGeometry width="50" height="50" relative="1" as="geometry">
            <mxPoint x="1370" y="210" as="sourcePoint" />
            <mxPoint x="1420" y="160" as="targetPoint" />
          </mxGeometry>
        </mxCell>
        <mxCell id="AFzKZ3i9yK1nrJ4SzqqG-144" value="" style="endArrow=classic;html=1;rounded=0;exitX=0.5;exitY=1;exitDx=0;exitDy=0;entryX=0.5;entryY=0;entryDx=0;entryDy=0;" parent="1" source="AFzKZ3i9yK1nrJ4SzqqG-126" target="AFzKZ3i9yK1nrJ4SzqqG-137" edge="1">
          <mxGeometry width="50" height="50" relative="1" as="geometry">
            <mxPoint x="1380" y="220" as="sourcePoint" />
            <mxPoint x="1430" y="170" as="targetPoint" />
          </mxGeometry>
        </mxCell>
        <mxCell id="AFzKZ3i9yK1nrJ4SzqqG-145" value="S5" style="ellipse;whiteSpace=wrap;html=1;aspect=fixed;container=0;fillColor=#33FF33;" parent="1" vertex="1">
          <mxGeometry x="1380" y="180" width="30" height="30" as="geometry" />
        </mxCell>
        <mxCell id="AFzKZ3i9yK1nrJ4SzqqG-146" value="" style="ellipse;whiteSpace=wrap;html=1;aspect=fixed;container=0;fillColor=none;" parent="1" vertex="1">
          <mxGeometry x="1300" y="180" width="30" height="30" as="geometry" />
        </mxCell>
        <mxCell id="AFzKZ3i9yK1nrJ4SzqqG-147" value="" style="endArrow=classic;html=1;rounded=0;exitX=0.5;exitY=1;exitDx=0;exitDy=0;entryX=0.5;entryY=0;entryDx=0;entryDy=0;" parent="1" source="AFzKZ3i9yK1nrJ4SzqqG-139" target="AFzKZ3i9yK1nrJ4SzqqG-146" edge="1">
          <mxGeometry width="50" height="50" relative="1" as="geometry">
            <mxPoint x="1395" y="75" as="sourcePoint" />
            <mxPoint x="1285" y="119" as="targetPoint" />
          </mxGeometry>
        </mxCell>
        <mxCell id="AFzKZ3i9yK1nrJ4SzqqG-148" value="" style="endArrow=classic;html=1;rounded=0;exitX=0.5;exitY=1;exitDx=0;exitDy=0;entryX=0.5;entryY=0;entryDx=0;entryDy=0;" parent="1" source="AFzKZ3i9yK1nrJ4SzqqG-139" target="AFzKZ3i9yK1nrJ4SzqqG-145" edge="1">
          <mxGeometry width="50" height="50" relative="1" as="geometry">
            <mxPoint x="1405" y="85" as="sourcePoint" />
            <mxPoint x="1295" y="129" as="targetPoint" />
          </mxGeometry>
        </mxCell>
        <mxCell id="AFzKZ3i9yK1nrJ4SzqqG-149" value="&lt;b&gt;SG rule1 matched&lt;br&gt;&lt;/b&gt;" style="text;strokeColor=none;align=center;fillColor=none;html=1;verticalAlign=middle;whiteSpace=wrap;rounded=0;" parent="1" vertex="1">
          <mxGeometry x="1635" y="65" width="80" height="30" as="geometry" />
        </mxCell>
        <mxCell id="AFzKZ3i9yK1nrJ4SzqqG-150" value="&lt;b&gt;SG rule2 matching failed&lt;br&gt;&lt;/b&gt;" style="text;strokeColor=none;align=center;fillColor=none;html=1;verticalAlign=middle;whiteSpace=wrap;rounded=0;" parent="1" vertex="1">
          <mxGeometry x="1474" y="65" width="105" height="30" as="geometry" />
        </mxCell>
        <mxCell id="AFzKZ3i9yK1nrJ4SzqqG-151" value="&lt;div align=&quot;justify&quot;&gt;SG rule3 AP5匹配失败，保持父节点状态，状态可不唯一&lt;br&gt;&lt;/div&gt;" style="text;strokeColor=none;align=center;fillColor=none;html=1;verticalAlign=middle;whiteSpace=wrap;rounded=0;" parent="1" vertex="1">
          <mxGeometry x="1100" y="109" width="140" height="30" as="geometry" />
        </mxCell>
        <mxCell id="AFzKZ3i9yK1nrJ4SzqqG-152" value="&lt;b&gt;SG rule3 matched&lt;br&gt;&lt;/b&gt;" style="text;strokeColor=none;align=center;fillColor=none;html=1;verticalAlign=middle;whiteSpace=wrap;rounded=0;" parent="1" vertex="1">
          <mxGeometry x="1355" y="220" width="80" height="30" as="geometry" />
        </mxCell>
        <mxCell id="AFzKZ3i9yK1nrJ4SzqqG-153" style="edgeStyle=orthogonalEdgeStyle;rounded=0;orthogonalLoop=1;jettySize=auto;html=1;exitX=0.5;exitY=1;exitDx=0;exitDy=0;entryX=0.5;entryY=0;entryDx=0;entryDy=0;" parent="1" source="AFzKZ3i9yK1nrJ4SzqqG-156" target="AFzKZ3i9yK1nrJ4SzqqG-159" edge="1">
          <mxGeometry relative="1" as="geometry" />
        </mxCell>
        <mxCell id="AFzKZ3i9yK1nrJ4SzqqG-154" style="rounded=0;orthogonalLoop=1;jettySize=auto;html=1;exitX=0.5;exitY=1;exitDx=0;exitDy=0;entryX=0.5;entryY=0;entryDx=0;entryDy=0;" parent="1" source="AFzKZ3i9yK1nrJ4SzqqG-156" target="AFzKZ3i9yK1nrJ4SzqqG-160" edge="1">
          <mxGeometry relative="1" as="geometry" />
        </mxCell>
        <mxCell id="AFzKZ3i9yK1nrJ4SzqqG-155" style="rounded=0;orthogonalLoop=1;jettySize=auto;html=1;exitX=0.5;exitY=1;exitDx=0;exitDy=0;entryX=0.5;entryY=0;entryDx=0;entryDy=0;" parent="1" source="AFzKZ3i9yK1nrJ4SzqqG-156" target="AFzKZ3i9yK1nrJ4SzqqG-161" edge="1">
          <mxGeometry relative="1" as="geometry" />
        </mxCell>
        <mxCell id="AFzKZ3i9yK1nrJ4SzqqG-156" value="S1" style="ellipse;whiteSpace=wrap;html=1;aspect=fixed;container=0;fillColor=#FF0000;" parent="1" vertex="1">
          <mxGeometry x="1486" y="452" width="30" height="30" as="geometry" />
        </mxCell>
        <mxCell id="AFzKZ3i9yK1nrJ4SzqqG-157" style="edgeStyle=orthogonalEdgeStyle;rounded=0;orthogonalLoop=1;jettySize=auto;html=1;exitX=0.5;exitY=1;exitDx=0;exitDy=0;entryX=0.5;entryY=0;entryDx=0;entryDy=0;" parent="1" source="AFzKZ3i9yK1nrJ4SzqqG-158" target="AFzKZ3i9yK1nrJ4SzqqG-156" edge="1">
          <mxGeometry relative="1" as="geometry" />
        </mxCell>
        <mxCell id="AFzKZ3i9yK1nrJ4SzqqG-158" value="" style="ellipse;whiteSpace=wrap;html=1;aspect=fixed;container=0;fillColor=none;" parent="1" vertex="1">
          <mxGeometry x="1486" y="390" width="30" height="30" as="geometry" />
        </mxCell>
        <mxCell id="AFzKZ3i9yK1nrJ4SzqqG-159" value="S3" style="ellipse;whiteSpace=wrap;html=1;aspect=fixed;container=0;fillColor=#FFFF99;" parent="1" vertex="1">
          <mxGeometry x="1486" y="514" width="30" height="30" as="geometry" />
        </mxCell>
        <mxCell id="AFzKZ3i9yK1nrJ4SzqqG-160" value="" style="ellipse;whiteSpace=wrap;html=1;aspect=fixed;container=0;fillColor=none;" parent="1" vertex="1">
          <mxGeometry x="1416" y="515" width="30" height="30" as="geometry" />
        </mxCell>
        <mxCell id="AFzKZ3i9yK1nrJ4SzqqG-161" value="&lt;div&gt;S4&lt;br&gt;&lt;/div&gt;" style="ellipse;whiteSpace=wrap;html=1;aspect=fixed;container=0;fillColor=#FFFF99;" parent="1" vertex="1">
          <mxGeometry x="1346" y="515" width="30" height="30" as="geometry" />
        </mxCell>
        <mxCell id="AFzKZ3i9yK1nrJ4SzqqG-162" value="" style="ellipse;whiteSpace=wrap;html=1;aspect=fixed;container=0;fillColor=none;" parent="1" vertex="1">
          <mxGeometry x="1266" y="515" width="30" height="30" as="geometry" />
        </mxCell>
        <mxCell id="AFzKZ3i9yK1nrJ4SzqqG-163" value="" style="ellipse;whiteSpace=wrap;html=1;aspect=fixed;container=0;fillColor=none;" parent="1" vertex="1">
          <mxGeometry x="1776" y="513" width="30" height="30" as="geometry" />
        </mxCell>
        <mxCell id="AFzKZ3i9yK1nrJ4SzqqG-164" value="" style="ellipse;whiteSpace=wrap;html=1;aspect=fixed;container=0;fillColor=none;" parent="1" vertex="1">
          <mxGeometry x="1706" y="514" width="30" height="30" as="geometry" />
        </mxCell>
        <mxCell id="AFzKZ3i9yK1nrJ4SzqqG-165" value="S2" style="ellipse;whiteSpace=wrap;html=1;aspect=fixed;container=0;fillColor=#33FF33;" parent="1" vertex="1">
          <mxGeometry x="1636" y="514" width="30" height="30" as="geometry" />
        </mxCell>
        <mxCell id="AFzKZ3i9yK1nrJ4SzqqG-166" value="" style="ellipse;whiteSpace=wrap;html=1;aspect=fixed;container=0;fillColor=none;" parent="1" vertex="1">
          <mxGeometry x="1556" y="514" width="30" height="30" as="geometry" />
        </mxCell>
        <mxCell id="AFzKZ3i9yK1nrJ4SzqqG-167" value="" style="endArrow=classic;html=1;rounded=0;exitX=0.5;exitY=1;exitDx=0;exitDy=0;entryX=0.5;entryY=0;entryDx=0;entryDy=0;" parent="1" source="AFzKZ3i9yK1nrJ4SzqqG-156" target="AFzKZ3i9yK1nrJ4SzqqG-166" edge="1">
          <mxGeometry width="50" height="50" relative="1" as="geometry">
            <mxPoint x="1356" y="796" as="sourcePoint" />
            <mxPoint x="1406" y="746" as="targetPoint" />
          </mxGeometry>
        </mxCell>
        <mxCell id="AFzKZ3i9yK1nrJ4SzqqG-168" value="" style="endArrow=classic;html=1;rounded=0;exitX=0.5;exitY=1;exitDx=0;exitDy=0;" parent="1" source="AFzKZ3i9yK1nrJ4SzqqG-156" edge="1">
          <mxGeometry width="50" height="50" relative="1" as="geometry">
            <mxPoint x="1366" y="806" as="sourcePoint" />
            <mxPoint x="1281" y="516" as="targetPoint" />
          </mxGeometry>
        </mxCell>
        <mxCell id="AFzKZ3i9yK1nrJ4SzqqG-169" value="" style="endArrow=classic;html=1;rounded=0;entryX=0.5;entryY=0;entryDx=0;entryDy=0;exitX=0.5;exitY=1;exitDx=0;exitDy=0;" parent="1" source="AFzKZ3i9yK1nrJ4SzqqG-156" target="AFzKZ3i9yK1nrJ4SzqqG-165" edge="1">
          <mxGeometry width="50" height="50" relative="1" as="geometry">
            <mxPoint x="1376" y="816" as="sourcePoint" />
            <mxPoint x="1426" y="766" as="targetPoint" />
          </mxGeometry>
        </mxCell>
        <mxCell id="AFzKZ3i9yK1nrJ4SzqqG-170" value="" style="endArrow=classic;html=1;rounded=0;entryX=0.5;entryY=0;entryDx=0;entryDy=0;exitX=0.5;exitY=1;exitDx=0;exitDy=0;" parent="1" source="AFzKZ3i9yK1nrJ4SzqqG-156" target="AFzKZ3i9yK1nrJ4SzqqG-164" edge="1">
          <mxGeometry width="50" height="50" relative="1" as="geometry">
            <mxPoint x="1386" y="826" as="sourcePoint" />
            <mxPoint x="1436" y="776" as="targetPoint" />
          </mxGeometry>
        </mxCell>
        <mxCell id="AFzKZ3i9yK1nrJ4SzqqG-171" value="" style="endArrow=classic;html=1;rounded=0;entryX=0.5;entryY=0;entryDx=0;entryDy=0;exitX=0.5;exitY=1;exitDx=0;exitDy=0;" parent="1" source="AFzKZ3i9yK1nrJ4SzqqG-156" target="AFzKZ3i9yK1nrJ4SzqqG-163" edge="1">
          <mxGeometry width="50" height="50" relative="1" as="geometry">
            <mxPoint x="1396" y="836" as="sourcePoint" />
            <mxPoint x="1446" y="786" as="targetPoint" />
          </mxGeometry>
        </mxCell>
        <mxCell id="AFzKZ3i9yK1nrJ4SzqqG-172" value="" style="ellipse;whiteSpace=wrap;html=1;aspect=fixed;container=0;fillColor=none;" parent="1" vertex="1">
          <mxGeometry x="1456" y="588" width="30" height="30" as="geometry" />
        </mxCell>
        <mxCell id="AFzKZ3i9yK1nrJ4SzqqG-173" value="" style="ellipse;whiteSpace=wrap;html=1;aspect=fixed;container=0;fillColor=none;" parent="1" vertex="1">
          <mxGeometry x="1386" y="589" width="30" height="30" as="geometry" />
        </mxCell>
        <mxCell id="AFzKZ3i9yK1nrJ4SzqqG-174" value="" style="ellipse;whiteSpace=wrap;html=1;aspect=fixed;container=0;fillColor=none;" parent="1" vertex="1">
          <mxGeometry x="1316" y="589" width="30" height="30" as="geometry" />
        </mxCell>
        <mxCell id="AFzKZ3i9yK1nrJ4SzqqG-175" value="" style="ellipse;whiteSpace=wrap;html=1;aspect=fixed;container=0;fillColor=none;" parent="1" vertex="1">
          <mxGeometry x="1236" y="589" width="30" height="30" as="geometry" />
        </mxCell>
        <mxCell id="AFzKZ3i9yK1nrJ4SzqqG-176" value="" style="endArrow=classic;html=1;rounded=0;exitX=0.5;exitY=1;exitDx=0;exitDy=0;entryX=0.5;entryY=0;entryDx=0;entryDy=0;" parent="1" source="AFzKZ3i9yK1nrJ4SzqqG-161" target="AFzKZ3i9yK1nrJ4SzqqG-175" edge="1">
          <mxGeometry width="50" height="50" relative="1" as="geometry">
            <mxPoint x="1326" y="670" as="sourcePoint" />
            <mxPoint x="1376" y="620" as="targetPoint" />
          </mxGeometry>
        </mxCell>
        <mxCell id="AFzKZ3i9yK1nrJ4SzqqG-177" value="" style="endArrow=classic;html=1;rounded=0;exitX=0.5;exitY=1;exitDx=0;exitDy=0;entryX=0.5;entryY=0;entryDx=0;entryDy=0;" parent="1" source="AFzKZ3i9yK1nrJ4SzqqG-161" target="AFzKZ3i9yK1nrJ4SzqqG-174" edge="1">
          <mxGeometry width="50" height="50" relative="1" as="geometry">
            <mxPoint x="1336" y="680" as="sourcePoint" />
            <mxPoint x="1386" y="630" as="targetPoint" />
          </mxGeometry>
        </mxCell>
        <mxCell id="AFzKZ3i9yK1nrJ4SzqqG-178" value="" style="endArrow=classic;html=1;rounded=0;exitX=0.5;exitY=1;exitDx=0;exitDy=0;entryX=0.5;entryY=0;entryDx=0;entryDy=0;" parent="1" source="AFzKZ3i9yK1nrJ4SzqqG-161" target="AFzKZ3i9yK1nrJ4SzqqG-173" edge="1">
          <mxGeometry width="50" height="50" relative="1" as="geometry">
            <mxPoint x="1346" y="690" as="sourcePoint" />
            <mxPoint x="1396" y="640" as="targetPoint" />
          </mxGeometry>
        </mxCell>
        <mxCell id="AFzKZ3i9yK1nrJ4SzqqG-179" value="" style="endArrow=classic;html=1;rounded=0;exitX=0.5;exitY=1;exitDx=0;exitDy=0;entryX=0.5;entryY=0;entryDx=0;entryDy=0;" parent="1" source="AFzKZ3i9yK1nrJ4SzqqG-161" target="AFzKZ3i9yK1nrJ4SzqqG-172" edge="1">
          <mxGeometry width="50" height="50" relative="1" as="geometry">
            <mxPoint x="1356" y="700" as="sourcePoint" />
            <mxPoint x="1406" y="650" as="targetPoint" />
          </mxGeometry>
        </mxCell>
        <mxCell id="AFzKZ3i9yK1nrJ4SzqqG-180" value="S5" style="ellipse;whiteSpace=wrap;html=1;aspect=fixed;container=0;fillColor=#33FF33;" parent="1" vertex="1">
          <mxGeometry x="1356" y="660" width="30" height="30" as="geometry" />
        </mxCell>
        <mxCell id="AFzKZ3i9yK1nrJ4SzqqG-181" value="" style="ellipse;whiteSpace=wrap;html=1;aspect=fixed;container=0;fillColor=none;" parent="1" vertex="1">
          <mxGeometry x="1276" y="660" width="30" height="30" as="geometry" />
        </mxCell>
        <mxCell id="AFzKZ3i9yK1nrJ4SzqqG-182" value="" style="endArrow=classic;html=1;rounded=0;exitX=0.5;exitY=1;exitDx=0;exitDy=0;entryX=0.5;entryY=0;entryDx=0;entryDy=0;" parent="1" source="AFzKZ3i9yK1nrJ4SzqqG-174" target="AFzKZ3i9yK1nrJ4SzqqG-181" edge="1">
          <mxGeometry width="50" height="50" relative="1" as="geometry">
            <mxPoint x="1371" y="555" as="sourcePoint" />
            <mxPoint x="1261" y="599" as="targetPoint" />
          </mxGeometry>
        </mxCell>
        <mxCell id="AFzKZ3i9yK1nrJ4SzqqG-183" value="" style="endArrow=classic;html=1;rounded=0;exitX=0.5;exitY=1;exitDx=0;exitDy=0;entryX=0.5;entryY=0;entryDx=0;entryDy=0;" parent="1" source="AFzKZ3i9yK1nrJ4SzqqG-174" target="AFzKZ3i9yK1nrJ4SzqqG-180" edge="1">
          <mxGeometry width="50" height="50" relative="1" as="geometry">
            <mxPoint x="1381" y="565" as="sourcePoint" />
            <mxPoint x="1271" y="609" as="targetPoint" />
          </mxGeometry>
        </mxCell>
        <mxCell id="AFzKZ3i9yK1nrJ4SzqqG-184" value="&lt;b&gt;SG rule matched&lt;br&gt;&lt;/b&gt;" style="text;strokeColor=none;align=center;fillColor=none;html=1;verticalAlign=middle;whiteSpace=wrap;rounded=0;" parent="1" vertex="1">
          <mxGeometry x="1611" y="545" width="80" height="30" as="geometry" />
        </mxCell>
        <mxCell id="AFzKZ3i9yK1nrJ4SzqqG-185" value="&lt;div&gt;&lt;b&gt;SG rule2 matching failed&lt;/b&gt;&lt;/div&gt;" style="text;strokeColor=none;align=center;fillColor=none;html=1;verticalAlign=middle;whiteSpace=wrap;rounded=0;" parent="1" vertex="1">
          <mxGeometry x="1450" y="545" width="105" height="30" as="geometry" />
        </mxCell>
        <mxCell id="AFzKZ3i9yK1nrJ4SzqqG-186" value="&lt;div&gt;&lt;b&gt;SG rule3 matched&lt;/b&gt;&lt;/div&gt;" style="text;strokeColor=none;align=center;fillColor=none;html=1;verticalAlign=middle;whiteSpace=wrap;rounded=0;" parent="1" vertex="1">
          <mxGeometry x="1331" y="700" width="80" height="30" as="geometry" />
        </mxCell>
        <mxCell id="AFzKZ3i9yK1nrJ4SzqqG-187" value="在SG rule matrix中S4状态下没有匹配到规则，保持S4状态，状态不唯一" style="text;strokeColor=none;align=center;fillColor=none;html=1;verticalAlign=middle;whiteSpace=wrap;rounded=0;" parent="1" vertex="1">
          <mxGeometry x="1077" y="587" width="153" height="30" as="geometry" />
        </mxCell>
        <mxCell id="AFzKZ3i9yK1nrJ4SzqqG-188" value="" style="endArrow=none;html=1;rounded=0;" parent="1" edge="1">
          <mxGeometry width="50" height="50" relative="1" as="geometry">
            <mxPoint x="15" y="880" as="sourcePoint" />
            <mxPoint x="1880" y="880" as="targetPoint" />
          </mxGeometry>
        </mxCell>
        <mxCell id="AFzKZ3i9yK1nrJ4SzqqG-189" value="" style="endArrow=none;html=1;rounded=0;" parent="1" edge="1">
          <mxGeometry width="50" height="50" relative="1" as="geometry">
            <mxPoint x="15" y="-120" as="sourcePoint" />
            <mxPoint x="1880" y="-120" as="targetPoint" />
          </mxGeometry>
        </mxCell>
        <mxCell id="AFzKZ3i9yK1nrJ4SzqqG-190" value="&lt;font style=&quot;font-size: 36px;&quot;&gt;一、状态机枚举&lt;/font&gt;" style="text;strokeColor=none;align=center;fillColor=none;html=1;verticalAlign=middle;whiteSpace=wrap;rounded=0;" parent="1" vertex="1">
          <mxGeometry x="-20" y="-100" width="300" height="30" as="geometry" />
        </mxCell>
        <mxCell id="AFzKZ3i9yK1nrJ4SzqqG-191" value="&lt;font style=&quot;font-size: 36px;&quot;&gt;二、状态机选择&lt;/font&gt;" style="text;strokeColor=none;align=center;fillColor=none;html=1;verticalAlign=middle;whiteSpace=wrap;rounded=0;" parent="1" vertex="1">
          <mxGeometry x="-10" y="910" width="290" height="30" as="geometry" />
        </mxCell>
        <mxCell id="AFzKZ3i9yK1nrJ4SzqqG-192" value="" style="ellipse;whiteSpace=wrap;html=1;aspect=fixed;" parent="1" vertex="1">
          <mxGeometry x="25" y="1180" width="30" height="30" as="geometry" />
        </mxCell>
        <mxCell id="AFzKZ3i9yK1nrJ4SzqqG-193" value="" style="ellipse;whiteSpace=wrap;html=1;aspect=fixed;" parent="1" vertex="1">
          <mxGeometry x="135" y="1100" width="30" height="30" as="geometry" />
        </mxCell>
        <mxCell id="AFzKZ3i9yK1nrJ4SzqqG-194" value="" style="ellipse;whiteSpace=wrap;html=1;aspect=fixed;" parent="1" vertex="1">
          <mxGeometry x="135" y="1180" width="30" height="30" as="geometry" />
        </mxCell>
        <mxCell id="AFzKZ3i9yK1nrJ4SzqqG-195" value="" style="ellipse;whiteSpace=wrap;html=1;aspect=fixed;" parent="1" vertex="1">
          <mxGeometry x="135" y="1260" width="30" height="30" as="geometry" />
        </mxCell>
        <mxCell id="AFzKZ3i9yK1nrJ4SzqqG-196" value="" style="ellipse;whiteSpace=wrap;html=1;aspect=fixed;" parent="1" vertex="1">
          <mxGeometry x="245" y="1210" width="30" height="30" as="geometry" />
        </mxCell>
        <mxCell id="AFzKZ3i9yK1nrJ4SzqqG-197" value="" style="endArrow=classic;html=1;rounded=0;entryX=0;entryY=1;entryDx=0;entryDy=0;exitX=1;exitY=0;exitDx=0;exitDy=0;" parent="1" source="AFzKZ3i9yK1nrJ4SzqqG-192" target="AFzKZ3i9yK1nrJ4SzqqG-193" edge="1">
          <mxGeometry width="50" height="50" relative="1" as="geometry">
            <mxPoint x="55" y="1190" as="sourcePoint" />
            <mxPoint x="105" y="1140" as="targetPoint" />
          </mxGeometry>
        </mxCell>
        <mxCell id="AFzKZ3i9yK1nrJ4SzqqG-198" value="" style="endArrow=classic;html=1;rounded=0;entryX=0;entryY=0.5;entryDx=0;entryDy=0;exitX=1;exitY=0.5;exitDx=0;exitDy=0;" parent="1" source="AFzKZ3i9yK1nrJ4SzqqG-192" target="AFzKZ3i9yK1nrJ4SzqqG-194" edge="1">
          <mxGeometry width="50" height="50" relative="1" as="geometry">
            <mxPoint x="61" y="1194" as="sourcePoint" />
            <mxPoint x="149" y="1136" as="targetPoint" />
          </mxGeometry>
        </mxCell>
        <mxCell id="AFzKZ3i9yK1nrJ4SzqqG-199" value="" style="endArrow=classic;html=1;rounded=0;entryX=0;entryY=0;entryDx=0;entryDy=0;exitX=1;exitY=1;exitDx=0;exitDy=0;" parent="1" source="AFzKZ3i9yK1nrJ4SzqqG-192" target="AFzKZ3i9yK1nrJ4SzqqG-195" edge="1">
          <mxGeometry width="50" height="50" relative="1" as="geometry">
            <mxPoint x="71" y="1204" as="sourcePoint" />
            <mxPoint x="159" y="1146" as="targetPoint" />
          </mxGeometry>
        </mxCell>
        <mxCell id="AFzKZ3i9yK1nrJ4SzqqG-200" value="" style="endArrow=classic;html=1;rounded=0;entryX=0;entryY=0.5;entryDx=0;entryDy=0;exitX=1;exitY=0.5;exitDx=0;exitDy=0;" parent="1" source="AFzKZ3i9yK1nrJ4SzqqG-194" target="AFzKZ3i9yK1nrJ4SzqqG-196" edge="1">
          <mxGeometry width="50" height="50" relative="1" as="geometry">
            <mxPoint x="81" y="1214" as="sourcePoint" />
            <mxPoint x="169" y="1156" as="targetPoint" />
          </mxGeometry>
        </mxCell>
        <mxCell id="AFzKZ3i9yK1nrJ4SzqqG-201" value="" style="endArrow=classic;html=1;rounded=0;exitX=1;exitY=0;exitDx=0;exitDy=0;" parent="1" edge="1">
          <mxGeometry width="50" height="50" relative="1" as="geometry">
            <mxPoint x="165" y="1268" as="sourcePoint" />
            <mxPoint x="245" y="1230" as="targetPoint" />
          </mxGeometry>
        </mxCell>
        <mxCell id="AFzKZ3i9yK1nrJ4SzqqG-202" value="n2" style="text;strokeColor=none;align=center;fillColor=none;html=1;verticalAlign=middle;whiteSpace=wrap;rounded=0;" parent="1" vertex="1">
          <mxGeometry x="120" y="1100" width="60" height="30" as="geometry" />
        </mxCell>
        <mxCell id="AFzKZ3i9yK1nrJ4SzqqG-203" value="n1" style="text;strokeColor=none;align=center;fillColor=none;html=1;verticalAlign=middle;whiteSpace=wrap;rounded=0;" parent="1" vertex="1">
          <mxGeometry x="10" y="1180" width="60" height="30" as="geometry" />
        </mxCell>
        <mxCell id="AFzKZ3i9yK1nrJ4SzqqG-204" value="n3" style="text;strokeColor=none;align=center;fillColor=none;html=1;verticalAlign=middle;whiteSpace=wrap;rounded=0;" parent="1" vertex="1">
          <mxGeometry x="120" y="1180" width="60" height="30" as="geometry" />
        </mxCell>
        <mxCell id="AFzKZ3i9yK1nrJ4SzqqG-205" value="n4" style="text;strokeColor=none;align=center;fillColor=none;html=1;verticalAlign=middle;whiteSpace=wrap;rounded=0;" parent="1" vertex="1">
          <mxGeometry x="120" y="1260" width="60" height="30" as="geometry" />
        </mxCell>
        <mxCell id="AFzKZ3i9yK1nrJ4SzqqG-206" value="n5" style="text;strokeColor=none;align=center;fillColor=none;html=1;verticalAlign=middle;whiteSpace=wrap;rounded=0;" parent="1" vertex="1">
          <mxGeometry x="230" y="1210" width="60" height="30" as="geometry" />
        </mxCell>
        <mxCell id="AFzKZ3i9yK1nrJ4SzqqG-207" value="e1" style="text;strokeColor=none;align=center;fillColor=none;html=1;verticalAlign=middle;whiteSpace=wrap;rounded=0;" parent="1" vertex="1">
          <mxGeometry x="61" y="1133" width="60" height="30" as="geometry" />
        </mxCell>
        <mxCell id="AFzKZ3i9yK1nrJ4SzqqG-208" value="e2" style="text;strokeColor=none;align=center;fillColor=none;html=1;verticalAlign=middle;whiteSpace=wrap;rounded=0;" parent="1" vertex="1">
          <mxGeometry x="64" y="1172" width="60" height="30" as="geometry" />
        </mxCell>
        <mxCell id="AFzKZ3i9yK1nrJ4SzqqG-209" value="e3" style="text;strokeColor=none;align=center;fillColor=none;html=1;verticalAlign=middle;whiteSpace=wrap;rounded=0;" parent="1" vertex="1">
          <mxGeometry x="64" y="1209" width="60" height="30" as="geometry" />
        </mxCell>
        <mxCell id="AFzKZ3i9yK1nrJ4SzqqG-210" value="e4" style="text;strokeColor=none;align=center;fillColor=none;html=1;verticalAlign=middle;whiteSpace=wrap;rounded=0;" parent="1" vertex="1">
          <mxGeometry x="175" y="1186" width="60" height="30" as="geometry" />
        </mxCell>
        <mxCell id="AFzKZ3i9yK1nrJ4SzqqG-211" value="e5" style="text;strokeColor=none;align=center;fillColor=none;html=1;verticalAlign=middle;whiteSpace=wrap;rounded=0;" parent="1" vertex="1">
          <mxGeometry x="175" y="1225" width="60" height="30" as="geometry" />
        </mxCell>
        <mxCell id="AFzKZ3i9yK1nrJ4SzqqG-212" value="&lt;b&gt;TKG&amp;nbsp; T1991&lt;/b&gt;" style="text;strokeColor=none;align=center;fillColor=none;html=1;verticalAlign=middle;whiteSpace=wrap;rounded=0;" parent="1" vertex="1">
          <mxGeometry x="110" y="1309" width="80" height="30" as="geometry" />
        </mxCell>
        <mxCell id="AFzKZ3i9yK1nrJ4SzqqG-213" value="&lt;div align=&quot;left&quot;&gt;&quot;tkg_detection&quot;: &lt;br&gt;&amp;nbsp;&amp;nbsp;&amp;nbsp;&amp;nbsp;&amp;nbsp;&amp;nbsp;&amp;nbsp; {&lt;br&gt;&amp;nbsp;&amp;nbsp;&amp;nbsp;&amp;nbsp;&amp;nbsp;&amp;nbsp;&amp;nbsp;&amp;nbsp;&amp;nbsp;&amp;nbsp;&amp;nbsp; &quot;edge_orders&quot;: &lt;br&gt;&amp;nbsp;&amp;nbsp;&amp;nbsp;&amp;nbsp;&amp;nbsp;&amp;nbsp;&amp;nbsp;&amp;nbsp;&amp;nbsp;&amp;nbsp;&amp;nbsp; [&lt;br&gt;&amp;nbsp;&amp;nbsp;&amp;nbsp;&amp;nbsp;&amp;nbsp;&amp;nbsp;&amp;nbsp;&amp;nbsp;&amp;nbsp;&amp;nbsp;&amp;nbsp;&amp;nbsp;&amp;nbsp;&amp;nbsp;&amp;nbsp; {&lt;br&gt;&amp;nbsp;&amp;nbsp;&amp;nbsp;&amp;nbsp;&amp;nbsp;&amp;nbsp;&amp;nbsp;&amp;nbsp;&amp;nbsp;&amp;nbsp;&amp;nbsp;&amp;nbsp;&amp;nbsp;&amp;nbsp;&amp;nbsp;&amp;nbsp;&amp;nbsp;&amp;nbsp;&amp;nbsp; &quot;edges&quot;: [2, 1, 3],&lt;br&gt;&amp;nbsp;&amp;nbsp;&amp;nbsp;&amp;nbsp;&amp;nbsp;&amp;nbsp;&amp;nbsp;&amp;nbsp;&amp;nbsp;&amp;nbsp;&amp;nbsp;&amp;nbsp;&amp;nbsp;&amp;nbsp;&amp;nbsp; }&lt;br&gt;&amp;nbsp;&amp;nbsp;&amp;nbsp;&amp;nbsp;&amp;nbsp;&amp;nbsp;&amp;nbsp;&amp;nbsp;&amp;nbsp;&amp;nbsp;&amp;nbsp; ],&lt;br&gt;&amp;nbsp;&amp;nbsp;&amp;nbsp;&amp;nbsp;&amp;nbsp;&amp;nbsp;&amp;nbsp;&amp;nbsp;&amp;nbsp;&amp;nbsp;&amp;nbsp; &quot;or_edges&quot;: &lt;br&gt;&amp;nbsp;&amp;nbsp;&amp;nbsp;&amp;nbsp;&amp;nbsp;&amp;nbsp;&amp;nbsp;&amp;nbsp;&amp;nbsp;&amp;nbsp;&amp;nbsp; [&lt;br&gt;&amp;nbsp;&amp;nbsp;&amp;nbsp;&amp;nbsp;&amp;nbsp;&amp;nbsp;&amp;nbsp;&amp;nbsp;&amp;nbsp;&amp;nbsp;&amp;nbsp;&amp;nbsp;&amp;nbsp;&amp;nbsp;&amp;nbsp; {&lt;br&gt;&amp;nbsp;&amp;nbsp;&amp;nbsp;&amp;nbsp;&amp;nbsp;&amp;nbsp;&amp;nbsp;&amp;nbsp;&amp;nbsp;&amp;nbsp;&amp;nbsp;&amp;nbsp;&amp;nbsp;&amp;nbsp;&amp;nbsp;&amp;nbsp;&amp;nbsp;&amp;nbsp;&amp;nbsp; &quot;edges&quot;: [4, 5]&lt;br&gt;&amp;nbsp;&amp;nbsp;&amp;nbsp;&amp;nbsp;&amp;nbsp;&amp;nbsp;&amp;nbsp;&amp;nbsp;&amp;nbsp;&amp;nbsp;&amp;nbsp;&amp;nbsp;&amp;nbsp;&amp;nbsp;&amp;nbsp; }&lt;br&gt;&amp;nbsp;&amp;nbsp;&amp;nbsp;&amp;nbsp;&amp;nbsp;&amp;nbsp;&amp;nbsp;&amp;nbsp;&amp;nbsp;&amp;nbsp;&amp;nbsp; ]&lt;br&gt;&amp;nbsp;&amp;nbsp;&amp;nbsp;&amp;nbsp;&amp;nbsp;&amp;nbsp;&amp;nbsp; }&lt;/div&gt;" style="text;strokeColor=#000000;align=left;fillColor=none;html=1;verticalAlign=middle;whiteSpace=wrap;rounded=0;" parent="1" vertex="1">
          <mxGeometry x="460" y="1061" width="190" height="280" as="geometry" />
        </mxCell>
        <mxCell id="AFzKZ3i9yK1nrJ4SzqqG-214" value="" style="html=1;shadow=0;dashed=0;align=center;verticalAlign=middle;shape=mxgraph.arrows2.arrow;dy=0.68;dx=15;notch=0;" parent="1" vertex="1">
          <mxGeometry x="750" y="1184.5" width="30" height="33" as="geometry" />
        </mxCell>
        <mxCell id="AFzKZ3i9yK1nrJ4SzqqG-215" value="" style="endArrow=classic;html=1;rounded=0;exitX=1;exitY=0.5;exitDx=0;exitDy=0;entryX=0;entryY=0.5;entryDx=0;entryDy=0;" parent="1" source="AFzKZ3i9yK1nrJ4SzqqG-216" target="AFzKZ3i9yK1nrJ4SzqqG-217" edge="1">
          <mxGeometry width="50" height="50" relative="1" as="geometry">
            <mxPoint x="1117" y="1086" as="sourcePoint" />
            <mxPoint x="937" y="1226" as="targetPoint" />
          </mxGeometry>
        </mxCell>
        <mxCell id="AFzKZ3i9yK1nrJ4SzqqG-216" value="S2" style="ellipse;whiteSpace=wrap;html=1;aspect=fixed;container=0;fillColor=#FF0000;" parent="1" vertex="1">
          <mxGeometry x="1032" y="1006" width="30" height="30" as="geometry" />
        </mxCell>
        <mxCell id="AFzKZ3i9yK1nrJ4SzqqG-217" value="S1" style="ellipse;whiteSpace=wrap;html=1;aspect=fixed;container=0;fillColor=#FFFF66;" parent="1" vertex="1">
          <mxGeometry x="1107" y="1006" width="30" height="30" as="geometry" />
        </mxCell>
        <mxCell id="AFzKZ3i9yK1nrJ4SzqqG-218" value="S3" style="ellipse;whiteSpace=wrap;html=1;aspect=fixed;container=0;fillColor=#FFFF99;" parent="1" vertex="1">
          <mxGeometry x="1187" y="1006" width="30" height="30" as="geometry" />
        </mxCell>
        <mxCell id="AFzKZ3i9yK1nrJ4SzqqG-219" value="" style="endArrow=classic;html=1;rounded=0;exitX=1;exitY=0.5;exitDx=0;exitDy=0;entryX=0;entryY=0.5;entryDx=0;entryDy=0;" parent="1" source="AFzKZ3i9yK1nrJ4SzqqG-217" target="AFzKZ3i9yK1nrJ4SzqqG-218" edge="1">
          <mxGeometry width="50" height="50" relative="1" as="geometry">
            <mxPoint x="1072" y="1031" as="sourcePoint" />
            <mxPoint x="1117" y="1031" as="targetPoint" />
          </mxGeometry>
        </mxCell>
        <mxCell id="AFzKZ3i9yK1nrJ4SzqqG-220" value="" style="endArrow=classic;html=1;rounded=0;exitX=1;exitY=0.5;exitDx=0;exitDy=0;entryX=0;entryY=0.5;entryDx=0;entryDy=0;" parent="1" edge="1">
          <mxGeometry width="50" height="50" relative="1" as="geometry">
            <mxPoint x="987" y="1022.1700000000001" as="sourcePoint" />
            <mxPoint x="1032" y="1022.1700000000001" as="targetPoint" />
          </mxGeometry>
        </mxCell>
        <mxCell id="AFzKZ3i9yK1nrJ4SzqqG-221" value="" style="endArrow=classic;html=1;rounded=0;exitX=1;exitY=0.5;exitDx=0;exitDy=0;entryX=0;entryY=0.5;entryDx=0;entryDy=0;" parent="1" edge="1">
          <mxGeometry width="50" height="50" relative="1" as="geometry">
            <mxPoint x="987" y="1022.1700000000001" as="sourcePoint" />
            <mxPoint x="1032" y="1022.1700000000001" as="targetPoint" />
          </mxGeometry>
        </mxCell>
        <mxCell id="AFzKZ3i9yK1nrJ4SzqqG-222" value="&lt;b&gt;T1999 rule1(R1)&lt;/b&gt;" style="text;strokeColor=none;align=center;fillColor=none;html=1;verticalAlign=middle;whiteSpace=wrap;rounded=0;" parent="1" vertex="1">
          <mxGeometry x="875" y="1007" width="95" height="30" as="geometry" />
        </mxCell>
        <mxCell id="AFzKZ3i9yK1nrJ4SzqqG-225" value="S4" style="ellipse;whiteSpace=wrap;html=1;aspect=fixed;container=0;fillColor=#66FF66;" parent="1" vertex="1">
          <mxGeometry x="1267" y="1006" width="30" height="30" as="geometry" />
        </mxCell>
        <mxCell id="AFzKZ3i9yK1nrJ4SzqqG-226" value="" style="endArrow=classic;html=1;rounded=0;entryX=0;entryY=0.5;entryDx=0;entryDy=0;exitX=1;exitY=0.5;exitDx=0;exitDy=0;" parent="1" source="AFzKZ3i9yK1nrJ4SzqqG-218" target="AFzKZ3i9yK1nrJ4SzqqG-225" edge="1">
          <mxGeometry width="50" height="50" relative="1" as="geometry">
            <mxPoint x="1225" y="1031" as="sourcePoint" />
            <mxPoint x="1197" y="1031" as="targetPoint" />
          </mxGeometry>
        </mxCell>
        <mxCell id="AFzKZ3i9yK1nrJ4SzqqG-227" value="" style="endArrow=classic;html=1;rounded=0;exitX=1;exitY=0.5;exitDx=0;exitDy=0;entryX=0;entryY=0.5;entryDx=0;entryDy=0;" parent="1" source="AFzKZ3i9yK1nrJ4SzqqG-228" target="AFzKZ3i9yK1nrJ4SzqqG-229" edge="1">
          <mxGeometry width="50" height="50" relative="1" as="geometry">
            <mxPoint x="1115" y="1141" as="sourcePoint" />
            <mxPoint x="935" y="1281" as="targetPoint" />
          </mxGeometry>
        </mxCell>
        <mxCell id="AFzKZ3i9yK1nrJ4SzqqG-228" value="S2" style="ellipse;whiteSpace=wrap;html=1;aspect=fixed;container=0;fillColor=#FF0000;" parent="1" vertex="1">
          <mxGeometry x="1030" y="1061" width="30" height="30" as="geometry" />
        </mxCell>
        <mxCell id="AFzKZ3i9yK1nrJ4SzqqG-229" value="S1" style="ellipse;whiteSpace=wrap;html=1;aspect=fixed;container=0;fillColor=#FFFF66;" parent="1" vertex="1">
          <mxGeometry x="1105" y="1061" width="30" height="30" as="geometry" />
        </mxCell>
        <mxCell id="AFzKZ3i9yK1nrJ4SzqqG-230" value="S4" style="ellipse;whiteSpace=wrap;html=1;aspect=fixed;container=0;fillColor=#FFFF99;" parent="1" vertex="1">
          <mxGeometry x="1185" y="1061" width="30" height="30" as="geometry" />
        </mxCell>
        <mxCell id="AFzKZ3i9yK1nrJ4SzqqG-231" value="" style="endArrow=classic;html=1;rounded=0;exitX=1;exitY=0.5;exitDx=0;exitDy=0;entryX=0;entryY=0.5;entryDx=0;entryDy=0;" parent="1" source="AFzKZ3i9yK1nrJ4SzqqG-229" target="AFzKZ3i9yK1nrJ4SzqqG-230" edge="1">
          <mxGeometry width="50" height="50" relative="1" as="geometry">
            <mxPoint x="1070" y="1086" as="sourcePoint" />
            <mxPoint x="1115" y="1086" as="targetPoint" />
          </mxGeometry>
        </mxCell>
        <mxCell id="AFzKZ3i9yK1nrJ4SzqqG-232" value="" style="endArrow=classic;html=1;rounded=0;exitX=1;exitY=0.5;exitDx=0;exitDy=0;entryX=0;entryY=0.5;entryDx=0;entryDy=0;" parent="1" edge="1">
          <mxGeometry width="50" height="50" relative="1" as="geometry">
            <mxPoint x="985" y="1077.17" as="sourcePoint" />
            <mxPoint x="1030" y="1077.17" as="targetPoint" />
          </mxGeometry>
        </mxCell>
        <mxCell id="AFzKZ3i9yK1nrJ4SzqqG-233" value="" style="endArrow=classic;html=1;rounded=0;exitX=1;exitY=0.5;exitDx=0;exitDy=0;entryX=0;entryY=0.5;entryDx=0;entryDy=0;" parent="1" edge="1">
          <mxGeometry width="50" height="50" relative="1" as="geometry">
            <mxPoint x="985" y="1077.17" as="sourcePoint" />
            <mxPoint x="1030" y="1077.17" as="targetPoint" />
          </mxGeometry>
        </mxCell>
        <mxCell id="AFzKZ3i9yK1nrJ4SzqqG-234" value="S3" style="ellipse;whiteSpace=wrap;html=1;aspect=fixed;container=0;fillColor=#66FF66;" parent="1" vertex="1">
          <mxGeometry x="1265" y="1061" width="30" height="30" as="geometry" />
        </mxCell>
        <mxCell id="AFzKZ3i9yK1nrJ4SzqqG-235" value="" style="endArrow=classic;html=1;rounded=0;entryX=0;entryY=0.5;entryDx=0;entryDy=0;exitX=1;exitY=0.5;exitDx=0;exitDy=0;" parent="1" source="AFzKZ3i9yK1nrJ4SzqqG-230" target="AFzKZ3i9yK1nrJ4SzqqG-234" edge="1">
          <mxGeometry width="50" height="50" relative="1" as="geometry">
            <mxPoint x="1223" y="1086" as="sourcePoint" />
            <mxPoint x="1195" y="1086" as="targetPoint" />
          </mxGeometry>
        </mxCell>
        <mxCell id="AFzKZ3i9yK1nrJ4SzqqG-236" value="&lt;b&gt;T1999 rule2(R2)&lt;/b&gt;" style="text;strokeColor=none;align=center;fillColor=none;html=1;verticalAlign=middle;whiteSpace=wrap;rounded=0;" parent="1" vertex="1">
          <mxGeometry x="876" y="1061" width="94" height="30" as="geometry" />
        </mxCell>
        <mxCell id="AFzKZ3i9yK1nrJ4SzqqG-237" value="" style="endArrow=classic;html=1;rounded=0;exitX=1;exitY=0.5;exitDx=0;exitDy=0;entryX=0;entryY=0.5;entryDx=0;entryDy=0;" parent="1" source="AFzKZ3i9yK1nrJ4SzqqG-238" target="AFzKZ3i9yK1nrJ4SzqqG-239" edge="1">
          <mxGeometry width="50" height="50" relative="1" as="geometry">
            <mxPoint x="1117" y="1195.5" as="sourcePoint" />
            <mxPoint x="937" y="1335.5" as="targetPoint" />
          </mxGeometry>
        </mxCell>
        <mxCell id="AFzKZ3i9yK1nrJ4SzqqG-238" value="S2" style="ellipse;whiteSpace=wrap;html=1;aspect=fixed;container=0;fillColor=#FF0000;" parent="1" vertex="1">
          <mxGeometry x="1032" y="1115.5" width="30" height="30" as="geometry" />
        </mxCell>
        <mxCell id="AFzKZ3i9yK1nrJ4SzqqG-239" value="S4" style="ellipse;whiteSpace=wrap;html=1;aspect=fixed;container=0;fillColor=#FFFF66;" parent="1" vertex="1">
          <mxGeometry x="1107" y="1115.5" width="30" height="30" as="geometry" />
        </mxCell>
        <mxCell id="AFzKZ3i9yK1nrJ4SzqqG-240" value="S1" style="ellipse;whiteSpace=wrap;html=1;aspect=fixed;container=0;fillColor=#FFFF99;" parent="1" vertex="1">
          <mxGeometry x="1187" y="1115.5" width="30" height="30" as="geometry" />
        </mxCell>
        <mxCell id="AFzKZ3i9yK1nrJ4SzqqG-241" value="" style="endArrow=classic;html=1;rounded=0;exitX=1;exitY=0.5;exitDx=0;exitDy=0;entryX=0;entryY=0.5;entryDx=0;entryDy=0;" parent="1" source="AFzKZ3i9yK1nrJ4SzqqG-239" target="AFzKZ3i9yK1nrJ4SzqqG-240" edge="1">
          <mxGeometry width="50" height="50" relative="1" as="geometry">
            <mxPoint x="1072" y="1140.5" as="sourcePoint" />
            <mxPoint x="1117" y="1140.5" as="targetPoint" />
          </mxGeometry>
        </mxCell>
        <mxCell id="AFzKZ3i9yK1nrJ4SzqqG-242" value="" style="endArrow=classic;html=1;rounded=0;exitX=1;exitY=0.5;exitDx=0;exitDy=0;entryX=0;entryY=0.5;entryDx=0;entryDy=0;" parent="1" edge="1">
          <mxGeometry width="50" height="50" relative="1" as="geometry">
            <mxPoint x="987" y="1131.67" as="sourcePoint" />
            <mxPoint x="1032" y="1131.67" as="targetPoint" />
          </mxGeometry>
        </mxCell>
        <mxCell id="AFzKZ3i9yK1nrJ4SzqqG-243" value="" style="endArrow=classic;html=1;rounded=0;exitX=1;exitY=0.5;exitDx=0;exitDy=0;entryX=0;entryY=0.5;entryDx=0;entryDy=0;" parent="1" edge="1">
          <mxGeometry width="50" height="50" relative="1" as="geometry">
            <mxPoint x="987" y="1131.67" as="sourcePoint" />
            <mxPoint x="1032" y="1131.67" as="targetPoint" />
          </mxGeometry>
        </mxCell>
        <mxCell id="AFzKZ3i9yK1nrJ4SzqqG-244" value="&lt;b&gt;T1999 rule3(R3)&lt;/b&gt;" style="text;strokeColor=none;align=center;fillColor=none;html=1;verticalAlign=middle;whiteSpace=wrap;rounded=0;" parent="1" vertex="1">
          <mxGeometry x="872" y="1116.5" width="105" height="30" as="geometry" />
        </mxCell>
        <mxCell id="AFzKZ3i9yK1nrJ4SzqqG-245" value="S3" style="ellipse;whiteSpace=wrap;html=1;aspect=fixed;container=0;fillColor=#66FF66;" parent="1" vertex="1">
          <mxGeometry x="1267" y="1115.5" width="30" height="30" as="geometry" />
        </mxCell>
        <mxCell id="AFzKZ3i9yK1nrJ4SzqqG-246" value="" style="endArrow=classic;html=1;rounded=0;entryX=0;entryY=0.5;entryDx=0;entryDy=0;exitX=1;exitY=0.5;exitDx=0;exitDy=0;" parent="1" source="AFzKZ3i9yK1nrJ4SzqqG-240" target="AFzKZ3i9yK1nrJ4SzqqG-245" edge="1">
          <mxGeometry width="50" height="50" relative="1" as="geometry">
            <mxPoint x="1225" y="1140.5" as="sourcePoint" />
            <mxPoint x="1197" y="1140.5" as="targetPoint" />
          </mxGeometry>
        </mxCell>
        <mxCell id="AFzKZ3i9yK1nrJ4SzqqG-247" value="" style="endArrow=classic;html=1;rounded=0;exitX=1;exitY=0.5;exitDx=0;exitDy=0;entryX=0;entryY=0.5;entryDx=0;entryDy=0;" parent="1" source="AFzKZ3i9yK1nrJ4SzqqG-248" target="AFzKZ3i9yK1nrJ4SzqqG-249" edge="1">
          <mxGeometry width="50" height="50" relative="1" as="geometry">
            <mxPoint x="1115" y="1250.5" as="sourcePoint" />
            <mxPoint x="935" y="1390.5" as="targetPoint" />
          </mxGeometry>
        </mxCell>
        <mxCell id="AFzKZ3i9yK1nrJ4SzqqG-248" value="S4" style="ellipse;whiteSpace=wrap;html=1;aspect=fixed;container=0;fillColor=#FF0000;" parent="1" vertex="1">
          <mxGeometry x="1030" y="1170.5" width="30" height="30" as="geometry" />
        </mxCell>
        <mxCell id="AFzKZ3i9yK1nrJ4SzqqG-249" value="S2" style="ellipse;whiteSpace=wrap;html=1;aspect=fixed;container=0;fillColor=#FFFF66;" parent="1" vertex="1">
          <mxGeometry x="1105" y="1170.5" width="30" height="30" as="geometry" />
        </mxCell>
        <mxCell id="AFzKZ3i9yK1nrJ4SzqqG-250" value="S1" style="ellipse;whiteSpace=wrap;html=1;aspect=fixed;container=0;fillColor=#FFFF99;" parent="1" vertex="1">
          <mxGeometry x="1185" y="1170.5" width="30" height="30" as="geometry" />
        </mxCell>
        <mxCell id="AFzKZ3i9yK1nrJ4SzqqG-251" value="" style="endArrow=classic;html=1;rounded=0;exitX=1;exitY=0.5;exitDx=0;exitDy=0;entryX=0;entryY=0.5;entryDx=0;entryDy=0;" parent="1" source="AFzKZ3i9yK1nrJ4SzqqG-249" target="AFzKZ3i9yK1nrJ4SzqqG-250" edge="1">
          <mxGeometry width="50" height="50" relative="1" as="geometry">
            <mxPoint x="1070" y="1195.5" as="sourcePoint" />
            <mxPoint x="1115" y="1195.5" as="targetPoint" />
          </mxGeometry>
        </mxCell>
        <mxCell id="AFzKZ3i9yK1nrJ4SzqqG-252" value="" style="endArrow=classic;html=1;rounded=0;exitX=1;exitY=0.5;exitDx=0;exitDy=0;entryX=0;entryY=0.5;entryDx=0;entryDy=0;" parent="1" edge="1">
          <mxGeometry width="50" height="50" relative="1" as="geometry">
            <mxPoint x="985" y="1186.67" as="sourcePoint" />
            <mxPoint x="1030" y="1186.67" as="targetPoint" />
          </mxGeometry>
        </mxCell>
        <mxCell id="AFzKZ3i9yK1nrJ4SzqqG-253" value="" style="endArrow=classic;html=1;rounded=0;exitX=1;exitY=0.5;exitDx=0;exitDy=0;entryX=0;entryY=0.5;entryDx=0;entryDy=0;" parent="1" edge="1">
          <mxGeometry width="50" height="50" relative="1" as="geometry">
            <mxPoint x="985" y="1186.67" as="sourcePoint" />
            <mxPoint x="1030" y="1186.67" as="targetPoint" />
          </mxGeometry>
        </mxCell>
        <mxCell id="AFzKZ3i9yK1nrJ4SzqqG-254" value="S3" style="ellipse;whiteSpace=wrap;html=1;aspect=fixed;container=0;fillColor=#66FF66;" parent="1" vertex="1">
          <mxGeometry x="1265" y="1170.5" width="30" height="30" as="geometry" />
        </mxCell>
        <mxCell id="AFzKZ3i9yK1nrJ4SzqqG-255" value="" style="endArrow=classic;html=1;rounded=0;entryX=0;entryY=0.5;entryDx=0;entryDy=0;exitX=1;exitY=0.5;exitDx=0;exitDy=0;" parent="1" source="AFzKZ3i9yK1nrJ4SzqqG-250" target="AFzKZ3i9yK1nrJ4SzqqG-254" edge="1">
          <mxGeometry width="50" height="50" relative="1" as="geometry">
            <mxPoint x="1223" y="1195.5" as="sourcePoint" />
            <mxPoint x="1195" y="1195.5" as="targetPoint" />
          </mxGeometry>
        </mxCell>
        <mxCell id="AFzKZ3i9yK1nrJ4SzqqG-256" value="&lt;b&gt;T1999 rule4(R4)&lt;/b&gt;" style="text;strokeColor=none;align=center;fillColor=none;html=1;verticalAlign=middle;whiteSpace=wrap;rounded=0;" parent="1" vertex="1">
          <mxGeometry x="875" y="1170.5" width="95" height="30" as="geometry" />
        </mxCell>
        <mxCell id="AFzKZ3i9yK1nrJ4SzqqG-257" value="" style="endArrow=classic;html=1;rounded=0;exitX=1;exitY=0.5;exitDx=0;exitDy=0;entryX=0;entryY=0.5;entryDx=0;entryDy=0;" parent="1" source="AFzKZ3i9yK1nrJ4SzqqG-258" target="AFzKZ3i9yK1nrJ4SzqqG-259" edge="1">
          <mxGeometry width="50" height="50" relative="1" as="geometry">
            <mxPoint x="1115" y="1300" as="sourcePoint" />
            <mxPoint x="935" y="1440" as="targetPoint" />
          </mxGeometry>
        </mxCell>
        <mxCell id="AFzKZ3i9yK1nrJ4SzqqG-258" value="S2" style="ellipse;whiteSpace=wrap;html=1;aspect=fixed;container=0;fillColor=#FF0000;" parent="1" vertex="1">
          <mxGeometry x="1030" y="1220" width="30" height="30" as="geometry" />
        </mxCell>
        <mxCell id="AFzKZ3i9yK1nrJ4SzqqG-259" value="S1" style="ellipse;whiteSpace=wrap;html=1;aspect=fixed;container=0;fillColor=#FFFF66;" parent="1" vertex="1">
          <mxGeometry x="1105" y="1220" width="30" height="30" as="geometry" />
        </mxCell>
        <mxCell id="AFzKZ3i9yK1nrJ4SzqqG-260" value="S3" style="ellipse;whiteSpace=wrap;html=1;aspect=fixed;container=0;fillColor=#FFFF99;" parent="1" vertex="1">
          <mxGeometry x="1185" y="1220" width="30" height="30" as="geometry" />
        </mxCell>
        <mxCell id="AFzKZ3i9yK1nrJ4SzqqG-261" value="" style="endArrow=classic;html=1;rounded=0;exitX=1;exitY=0.5;exitDx=0;exitDy=0;entryX=0;entryY=0.5;entryDx=0;entryDy=0;" parent="1" source="AFzKZ3i9yK1nrJ4SzqqG-259" target="AFzKZ3i9yK1nrJ4SzqqG-260" edge="1">
          <mxGeometry width="50" height="50" relative="1" as="geometry">
            <mxPoint x="1070" y="1245" as="sourcePoint" />
            <mxPoint x="1115" y="1245" as="targetPoint" />
          </mxGeometry>
        </mxCell>
        <mxCell id="AFzKZ3i9yK1nrJ4SzqqG-262" value="" style="endArrow=classic;html=1;rounded=0;exitX=1;exitY=0.5;exitDx=0;exitDy=0;entryX=0;entryY=0.5;entryDx=0;entryDy=0;" parent="1" edge="1">
          <mxGeometry width="50" height="50" relative="1" as="geometry">
            <mxPoint x="985" y="1236.17" as="sourcePoint" />
            <mxPoint x="1030" y="1236.17" as="targetPoint" />
          </mxGeometry>
        </mxCell>
        <mxCell id="AFzKZ3i9yK1nrJ4SzqqG-263" value="" style="endArrow=classic;html=1;rounded=0;exitX=1;exitY=0.5;exitDx=0;exitDy=0;entryX=0;entryY=0.5;entryDx=0;entryDy=0;" parent="1" edge="1">
          <mxGeometry width="50" height="50" relative="1" as="geometry">
            <mxPoint x="985" y="1236.17" as="sourcePoint" />
            <mxPoint x="1030" y="1236.17" as="targetPoint" />
          </mxGeometry>
        </mxCell>
        <mxCell id="AFzKZ3i9yK1nrJ4SzqqG-264" value="&lt;b&gt;T1999 rule5(R5)&lt;/b&gt;" style="text;strokeColor=none;align=center;fillColor=none;html=1;verticalAlign=middle;whiteSpace=wrap;rounded=0;" parent="1" vertex="1">
          <mxGeometry x="873" y="1221" width="97" height="30" as="geometry" />
        </mxCell>
        <mxCell id="AFzKZ3i9yK1nrJ4SzqqG-265" value="S5" style="ellipse;whiteSpace=wrap;html=1;aspect=fixed;container=0;fillColor=#66FF66;" parent="1" vertex="1">
          <mxGeometry x="1265" y="1220" width="30" height="30" as="geometry" />
        </mxCell>
        <mxCell id="AFzKZ3i9yK1nrJ4SzqqG-266" value="" style="endArrow=classic;html=1;rounded=0;entryX=0;entryY=0.5;entryDx=0;entryDy=0;exitX=1;exitY=0.5;exitDx=0;exitDy=0;" parent="1" source="AFzKZ3i9yK1nrJ4SzqqG-260" target="AFzKZ3i9yK1nrJ4SzqqG-265" edge="1">
          <mxGeometry width="50" height="50" relative="1" as="geometry">
            <mxPoint x="1223" y="1245" as="sourcePoint" />
            <mxPoint x="1195" y="1245" as="targetPoint" />
          </mxGeometry>
        </mxCell>
        <mxCell id="AFzKZ3i9yK1nrJ4SzqqG-267" value="" style="endArrow=classic;html=1;rounded=0;exitX=1;exitY=0.5;exitDx=0;exitDy=0;entryX=0;entryY=0.5;entryDx=0;entryDy=0;" parent="1" source="AFzKZ3i9yK1nrJ4SzqqG-268" target="AFzKZ3i9yK1nrJ4SzqqG-269" edge="1">
          <mxGeometry width="50" height="50" relative="1" as="geometry">
            <mxPoint x="1113" y="1355" as="sourcePoint" />
            <mxPoint x="933" y="1495" as="targetPoint" />
          </mxGeometry>
        </mxCell>
        <mxCell id="AFzKZ3i9yK1nrJ4SzqqG-268" value="S2" style="ellipse;whiteSpace=wrap;html=1;aspect=fixed;container=0;fillColor=#FF0000;" parent="1" vertex="1">
          <mxGeometry x="1028" y="1275" width="30" height="30" as="geometry" />
        </mxCell>
        <mxCell id="AFzKZ3i9yK1nrJ4SzqqG-269" value="S1" style="ellipse;whiteSpace=wrap;html=1;aspect=fixed;container=0;fillColor=#FFFF66;" parent="1" vertex="1">
          <mxGeometry x="1103" y="1275" width="30" height="30" as="geometry" />
        </mxCell>
        <mxCell id="AFzKZ3i9yK1nrJ4SzqqG-270" value="S5" style="ellipse;whiteSpace=wrap;html=1;aspect=fixed;container=0;fillColor=#FFFF99;" parent="1" vertex="1">
          <mxGeometry x="1183" y="1275" width="30" height="30" as="geometry" />
        </mxCell>
        <mxCell id="AFzKZ3i9yK1nrJ4SzqqG-271" value="" style="endArrow=classic;html=1;rounded=0;exitX=1;exitY=0.5;exitDx=0;exitDy=0;entryX=0;entryY=0.5;entryDx=0;entryDy=0;" parent="1" source="AFzKZ3i9yK1nrJ4SzqqG-269" target="AFzKZ3i9yK1nrJ4SzqqG-270" edge="1">
          <mxGeometry width="50" height="50" relative="1" as="geometry">
            <mxPoint x="1068" y="1300" as="sourcePoint" />
            <mxPoint x="1113" y="1300" as="targetPoint" />
          </mxGeometry>
        </mxCell>
        <mxCell id="AFzKZ3i9yK1nrJ4SzqqG-272" value="" style="endArrow=classic;html=1;rounded=0;exitX=1;exitY=0.5;exitDx=0;exitDy=0;entryX=0;entryY=0.5;entryDx=0;entryDy=0;" parent="1" edge="1">
          <mxGeometry width="50" height="50" relative="1" as="geometry">
            <mxPoint x="983" y="1291.17" as="sourcePoint" />
            <mxPoint x="1028" y="1291.17" as="targetPoint" />
          </mxGeometry>
        </mxCell>
        <mxCell id="AFzKZ3i9yK1nrJ4SzqqG-273" value="" style="endArrow=classic;html=1;rounded=0;exitX=1;exitY=0.5;exitDx=0;exitDy=0;entryX=0;entryY=0.5;entryDx=0;entryDy=0;" parent="1" edge="1">
          <mxGeometry width="50" height="50" relative="1" as="geometry">
            <mxPoint x="983" y="1291.17" as="sourcePoint" />
            <mxPoint x="1028" y="1291.17" as="targetPoint" />
          </mxGeometry>
        </mxCell>
        <mxCell id="AFzKZ3i9yK1nrJ4SzqqG-274" value="S3" style="ellipse;whiteSpace=wrap;html=1;aspect=fixed;container=0;fillColor=#66FF66;" parent="1" vertex="1">
          <mxGeometry x="1263" y="1275" width="30" height="30" as="geometry" />
        </mxCell>
        <mxCell id="AFzKZ3i9yK1nrJ4SzqqG-275" value="" style="endArrow=classic;html=1;rounded=0;entryX=0;entryY=0.5;entryDx=0;entryDy=0;exitX=1;exitY=0.5;exitDx=0;exitDy=0;" parent="1" source="AFzKZ3i9yK1nrJ4SzqqG-270" target="AFzKZ3i9yK1nrJ4SzqqG-274" edge="1">
          <mxGeometry width="50" height="50" relative="1" as="geometry">
            <mxPoint x="1221" y="1300" as="sourcePoint" />
            <mxPoint x="1193" y="1300" as="targetPoint" />
          </mxGeometry>
        </mxCell>
        <mxCell id="AFzKZ3i9yK1nrJ4SzqqG-276" value="&lt;b&gt;T1999 rule6(R6)&lt;/b&gt;" style="text;strokeColor=none;align=center;fillColor=none;html=1;verticalAlign=middle;whiteSpace=wrap;rounded=0;" parent="1" vertex="1">
          <mxGeometry x="873" y="1275" width="97" height="30" as="geometry" />
        </mxCell>
        <mxCell id="AFzKZ3i9yK1nrJ4SzqqG-277" value="" style="endArrow=classic;html=1;rounded=0;exitX=1;exitY=0.5;exitDx=0;exitDy=0;entryX=0;entryY=0.5;entryDx=0;entryDy=0;" parent="1" source="AFzKZ3i9yK1nrJ4SzqqG-278" target="AFzKZ3i9yK1nrJ4SzqqG-279" edge="1">
          <mxGeometry width="50" height="50" relative="1" as="geometry">
            <mxPoint x="1115" y="1409.5" as="sourcePoint" />
            <mxPoint x="935" y="1549.5" as="targetPoint" />
          </mxGeometry>
        </mxCell>
        <mxCell id="AFzKZ3i9yK1nrJ4SzqqG-278" value="S2" style="ellipse;whiteSpace=wrap;html=1;aspect=fixed;container=0;fillColor=#FF0000;" parent="1" vertex="1">
          <mxGeometry x="1030" y="1329.5" width="30" height="30" as="geometry" />
        </mxCell>
        <mxCell id="AFzKZ3i9yK1nrJ4SzqqG-279" value="S5" style="ellipse;whiteSpace=wrap;html=1;aspect=fixed;container=0;fillColor=#FFFF66;" parent="1" vertex="1">
          <mxGeometry x="1105" y="1329.5" width="30" height="30" as="geometry" />
        </mxCell>
        <mxCell id="AFzKZ3i9yK1nrJ4SzqqG-280" value="S1" style="ellipse;whiteSpace=wrap;html=1;aspect=fixed;container=0;fillColor=#FFFF99;" parent="1" vertex="1">
          <mxGeometry x="1185" y="1329.5" width="30" height="30" as="geometry" />
        </mxCell>
        <mxCell id="AFzKZ3i9yK1nrJ4SzqqG-281" value="" style="endArrow=classic;html=1;rounded=0;exitX=1;exitY=0.5;exitDx=0;exitDy=0;entryX=0;entryY=0.5;entryDx=0;entryDy=0;" parent="1" source="AFzKZ3i9yK1nrJ4SzqqG-279" target="AFzKZ3i9yK1nrJ4SzqqG-280" edge="1">
          <mxGeometry width="50" height="50" relative="1" as="geometry">
            <mxPoint x="1070" y="1354.5" as="sourcePoint" />
            <mxPoint x="1115" y="1354.5" as="targetPoint" />
          </mxGeometry>
        </mxCell>
        <mxCell id="AFzKZ3i9yK1nrJ4SzqqG-282" value="" style="endArrow=classic;html=1;rounded=0;exitX=1;exitY=0.5;exitDx=0;exitDy=0;entryX=0;entryY=0.5;entryDx=0;entryDy=0;" parent="1" edge="1">
          <mxGeometry width="50" height="50" relative="1" as="geometry">
            <mxPoint x="985" y="1345.67" as="sourcePoint" />
            <mxPoint x="1030" y="1345.67" as="targetPoint" />
          </mxGeometry>
        </mxCell>
        <mxCell id="AFzKZ3i9yK1nrJ4SzqqG-283" value="" style="endArrow=classic;html=1;rounded=0;exitX=1;exitY=0.5;exitDx=0;exitDy=0;entryX=0;entryY=0.5;entryDx=0;entryDy=0;" parent="1" edge="1">
          <mxGeometry width="50" height="50" relative="1" as="geometry">
            <mxPoint x="985" y="1345.67" as="sourcePoint" />
            <mxPoint x="1030" y="1345.67" as="targetPoint" />
          </mxGeometry>
        </mxCell>
        <mxCell id="AFzKZ3i9yK1nrJ4SzqqG-284" value="&lt;b&gt;T1999 rule7(R7)&lt;/b&gt;" style="text;strokeColor=none;align=center;fillColor=none;html=1;verticalAlign=middle;whiteSpace=wrap;rounded=0;" parent="1" vertex="1">
          <mxGeometry x="873" y="1330.5" width="97" height="30" as="geometry" />
        </mxCell>
        <mxCell id="AFzKZ3i9yK1nrJ4SzqqG-285" value="S3" style="ellipse;whiteSpace=wrap;html=1;aspect=fixed;container=0;fillColor=#66FF66;" parent="1" vertex="1">
          <mxGeometry x="1265" y="1329.5" width="30" height="30" as="geometry" />
        </mxCell>
        <mxCell id="AFzKZ3i9yK1nrJ4SzqqG-286" value="" style="endArrow=classic;html=1;rounded=0;entryX=0;entryY=0.5;entryDx=0;entryDy=0;exitX=1;exitY=0.5;exitDx=0;exitDy=0;" parent="1" source="AFzKZ3i9yK1nrJ4SzqqG-280" target="AFzKZ3i9yK1nrJ4SzqqG-285" edge="1">
          <mxGeometry width="50" height="50" relative="1" as="geometry">
            <mxPoint x="1223" y="1354.5" as="sourcePoint" />
            <mxPoint x="1195" y="1354.5" as="targetPoint" />
          </mxGeometry>
        </mxCell>
        <mxCell id="AFzKZ3i9yK1nrJ4SzqqG-287" value="" style="endArrow=classic;html=1;rounded=0;exitX=1;exitY=0.5;exitDx=0;exitDy=0;entryX=0;entryY=0.5;entryDx=0;entryDy=0;" parent="1" source="AFzKZ3i9yK1nrJ4SzqqG-288" target="AFzKZ3i9yK1nrJ4SzqqG-289" edge="1">
          <mxGeometry width="50" height="50" relative="1" as="geometry">
            <mxPoint x="1113" y="1464.5" as="sourcePoint" />
            <mxPoint x="933" y="1604.5" as="targetPoint" />
          </mxGeometry>
        </mxCell>
        <mxCell id="AFzKZ3i9yK1nrJ4SzqqG-288" value="S5" style="ellipse;whiteSpace=wrap;html=1;aspect=fixed;container=0;fillColor=#FF0000;" parent="1" vertex="1">
          <mxGeometry x="1028" y="1384.5" width="30" height="30" as="geometry" />
        </mxCell>
        <mxCell id="AFzKZ3i9yK1nrJ4SzqqG-289" value="S2" style="ellipse;whiteSpace=wrap;html=1;aspect=fixed;container=0;fillColor=#FFFF66;" parent="1" vertex="1">
          <mxGeometry x="1103" y="1384.5" width="30" height="30" as="geometry" />
        </mxCell>
        <mxCell id="AFzKZ3i9yK1nrJ4SzqqG-290" value="S1" style="ellipse;whiteSpace=wrap;html=1;aspect=fixed;container=0;fillColor=#FFFF99;" parent="1" vertex="1">
          <mxGeometry x="1183" y="1384.5" width="30" height="30" as="geometry" />
        </mxCell>
        <mxCell id="AFzKZ3i9yK1nrJ4SzqqG-291" value="" style="endArrow=classic;html=1;rounded=0;exitX=1;exitY=0.5;exitDx=0;exitDy=0;entryX=0;entryY=0.5;entryDx=0;entryDy=0;" parent="1" source="AFzKZ3i9yK1nrJ4SzqqG-289" target="AFzKZ3i9yK1nrJ4SzqqG-290" edge="1">
          <mxGeometry width="50" height="50" relative="1" as="geometry">
            <mxPoint x="1068" y="1409.5" as="sourcePoint" />
            <mxPoint x="1113" y="1409.5" as="targetPoint" />
          </mxGeometry>
        </mxCell>
        <mxCell id="AFzKZ3i9yK1nrJ4SzqqG-292" value="" style="endArrow=classic;html=1;rounded=0;exitX=1;exitY=0.5;exitDx=0;exitDy=0;entryX=0;entryY=0.5;entryDx=0;entryDy=0;" parent="1" edge="1">
          <mxGeometry width="50" height="50" relative="1" as="geometry">
            <mxPoint x="983" y="1400.67" as="sourcePoint" />
            <mxPoint x="1028" y="1400.67" as="targetPoint" />
          </mxGeometry>
        </mxCell>
        <mxCell id="AFzKZ3i9yK1nrJ4SzqqG-293" value="" style="endArrow=classic;html=1;rounded=0;exitX=1;exitY=0.5;exitDx=0;exitDy=0;entryX=0;entryY=0.5;entryDx=0;entryDy=0;" parent="1" edge="1">
          <mxGeometry width="50" height="50" relative="1" as="geometry">
            <mxPoint x="983" y="1400.67" as="sourcePoint" />
            <mxPoint x="1028" y="1400.67" as="targetPoint" />
          </mxGeometry>
        </mxCell>
        <mxCell id="AFzKZ3i9yK1nrJ4SzqqG-294" value="S3" style="ellipse;whiteSpace=wrap;html=1;aspect=fixed;container=0;fillColor=#66FF66;" parent="1" vertex="1">
          <mxGeometry x="1263" y="1384.5" width="30" height="30" as="geometry" />
        </mxCell>
        <mxCell id="AFzKZ3i9yK1nrJ4SzqqG-295" value="" style="endArrow=classic;html=1;rounded=0;entryX=0;entryY=0.5;entryDx=0;entryDy=0;exitX=1;exitY=0.5;exitDx=0;exitDy=0;" parent="1" source="AFzKZ3i9yK1nrJ4SzqqG-290" target="AFzKZ3i9yK1nrJ4SzqqG-294" edge="1">
          <mxGeometry width="50" height="50" relative="1" as="geometry">
            <mxPoint x="1221" y="1409.5" as="sourcePoint" />
            <mxPoint x="1193" y="1409.5" as="targetPoint" />
          </mxGeometry>
        </mxCell>
        <mxCell id="AFzKZ3i9yK1nrJ4SzqqG-296" value="&lt;b&gt;T1999 rule8(R8)&lt;/b&gt;" style="text;strokeColor=none;align=center;fillColor=none;html=1;verticalAlign=middle;whiteSpace=wrap;rounded=0;" parent="1" vertex="1">
          <mxGeometry x="873" y="1384.5" width="97" height="30" as="geometry" />
        </mxCell>
        <mxCell id="AFzKZ3i9yK1nrJ4SzqqG-298" value="SP2" style="text;strokeColor=none;align=center;fillColor=none;html=1;verticalAlign=middle;whiteSpace=wrap;rounded=0;" parent="1" vertex="1">
          <mxGeometry x="976" y="1000" width="60" height="30" as="geometry" />
        </mxCell>
        <mxCell id="AFzKZ3i9yK1nrJ4SzqqG-299" value="SP2" style="text;strokeColor=none;align=center;fillColor=none;html=1;verticalAlign=middle;whiteSpace=wrap;rounded=0;" parent="1" vertex="1">
          <mxGeometry x="975" y="1051" width="60" height="30" as="geometry" />
        </mxCell>
        <mxCell id="AFzKZ3i9yK1nrJ4SzqqG-300" value="SP2" style="text;strokeColor=none;align=center;fillColor=none;html=1;verticalAlign=middle;whiteSpace=wrap;rounded=0;" parent="1" vertex="1">
          <mxGeometry x="975" y="1107" width="60" height="30" as="geometry" />
        </mxCell>
        <mxCell id="AFzKZ3i9yK1nrJ4SzqqG-302" value="SP2" style="text;strokeColor=none;align=center;fillColor=none;html=1;verticalAlign=middle;whiteSpace=wrap;rounded=0;" parent="1" vertex="1">
          <mxGeometry x="976" y="1210" width="60" height="30" as="geometry" />
        </mxCell>
        <mxCell id="AFzKZ3i9yK1nrJ4SzqqG-303" value="SP4" style="text;strokeColor=none;align=center;fillColor=none;html=1;verticalAlign=middle;whiteSpace=wrap;rounded=0;" parent="1" vertex="1">
          <mxGeometry x="976" y="1163" width="60" height="30" as="geometry" />
        </mxCell>
        <mxCell id="AFzKZ3i9yK1nrJ4SzqqG-304" value="SP5" style="text;strokeColor=none;align=center;fillColor=none;html=1;verticalAlign=middle;whiteSpace=wrap;rounded=0;" parent="1" vertex="1">
          <mxGeometry x="975" y="1377" width="60" height="30" as="geometry" />
        </mxCell>
        <mxCell id="AFzKZ3i9yK1nrJ4SzqqG-305" value="SP2" style="text;strokeColor=none;align=center;fillColor=none;html=1;verticalAlign=middle;whiteSpace=wrap;rounded=0;" parent="1" vertex="1">
          <mxGeometry x="976" y="1322" width="60" height="30" as="geometry" />
        </mxCell>
        <mxCell id="AFzKZ3i9yK1nrJ4SzqqG-306" value="SP2" style="text;strokeColor=none;align=center;fillColor=none;html=1;verticalAlign=middle;whiteSpace=wrap;rounded=0;" parent="1" vertex="1">
          <mxGeometry x="977" y="1266" width="60" height="30" as="geometry" />
        </mxCell>
        <mxCell id="AFzKZ3i9yK1nrJ4SzqqG-307" value="AP3" style="text;strokeColor=none;align=center;fillColor=none;html=1;verticalAlign=middle;whiteSpace=wrap;rounded=0;" parent="1" vertex="1">
          <mxGeometry x="1125" y="999" width="60" height="30" as="geometry" />
        </mxCell>
        <mxCell id="AFzKZ3i9yK1nrJ4SzqqG-308" value="AP4" style="text;strokeColor=none;align=center;fillColor=none;html=1;verticalAlign=middle;whiteSpace=wrap;rounded=0;" parent="1" vertex="1">
          <mxGeometry x="1124" y="1050" width="60" height="30" as="geometry" />
        </mxCell>
        <mxCell id="AFzKZ3i9yK1nrJ4SzqqG-309" value="AP1" style="text;strokeColor=none;align=center;fillColor=none;html=1;verticalAlign=middle;whiteSpace=wrap;rounded=0;" parent="1" vertex="1">
          <mxGeometry x="1124" y="1106" width="60" height="30" as="geometry" />
        </mxCell>
        <mxCell id="AFzKZ3i9yK1nrJ4SzqqG-310" value="AP3" style="text;strokeColor=none;align=center;fillColor=none;html=1;verticalAlign=middle;whiteSpace=wrap;rounded=0;" parent="1" vertex="1">
          <mxGeometry x="1125" y="1209" width="60" height="30" as="geometry" />
        </mxCell>
        <mxCell id="AFzKZ3i9yK1nrJ4SzqqG-311" value="AP1" style="text;strokeColor=none;align=center;fillColor=none;html=1;verticalAlign=middle;whiteSpace=wrap;rounded=0;" parent="1" vertex="1">
          <mxGeometry x="1125" y="1162" width="60" height="30" as="geometry" />
        </mxCell>
        <mxCell id="AFzKZ3i9yK1nrJ4SzqqG-312" value="AP1" style="text;strokeColor=none;align=center;fillColor=none;html=1;verticalAlign=middle;whiteSpace=wrap;rounded=0;" parent="1" vertex="1">
          <mxGeometry x="1124" y="1376" width="60" height="30" as="geometry" />
        </mxCell>
        <mxCell id="AFzKZ3i9yK1nrJ4SzqqG-313" value="AP1" style="text;strokeColor=none;align=center;fillColor=none;html=1;verticalAlign=middle;whiteSpace=wrap;rounded=0;" parent="1" vertex="1">
          <mxGeometry x="1125" y="1321" width="60" height="30" as="geometry" />
        </mxCell>
        <mxCell id="AFzKZ3i9yK1nrJ4SzqqG-314" value="AP5" style="text;strokeColor=none;align=center;fillColor=none;html=1;verticalAlign=middle;whiteSpace=wrap;rounded=0;" parent="1" vertex="1">
          <mxGeometry x="1126" y="1265" width="60" height="30" as="geometry" />
        </mxCell>
        <mxCell id="AFzKZ3i9yK1nrJ4SzqqG-315" value="AP4" style="text;strokeColor=none;align=center;fillColor=none;html=1;verticalAlign=middle;whiteSpace=wrap;rounded=0;" parent="1" vertex="1">
          <mxGeometry x="1204" y="999" width="60" height="30" as="geometry" />
        </mxCell>
        <mxCell id="AFzKZ3i9yK1nrJ4SzqqG-316" value="AP3" style="text;strokeColor=none;align=center;fillColor=none;html=1;verticalAlign=middle;whiteSpace=wrap;rounded=0;" parent="1" vertex="1">
          <mxGeometry x="1203" y="1050" width="60" height="30" as="geometry" />
        </mxCell>
        <mxCell id="AFzKZ3i9yK1nrJ4SzqqG-317" value="AP3" style="text;strokeColor=none;align=center;fillColor=none;html=1;verticalAlign=middle;whiteSpace=wrap;rounded=0;" parent="1" vertex="1">
          <mxGeometry x="1203" y="1106" width="60" height="30" as="geometry" />
        </mxCell>
        <mxCell id="AFzKZ3i9yK1nrJ4SzqqG-318" value="AP5" style="text;strokeColor=none;align=center;fillColor=none;html=1;verticalAlign=middle;whiteSpace=wrap;rounded=0;" parent="1" vertex="1">
          <mxGeometry x="1204" y="1209" width="60" height="30" as="geometry" />
        </mxCell>
        <mxCell id="AFzKZ3i9yK1nrJ4SzqqG-319" value="AP3" style="text;strokeColor=none;align=center;fillColor=none;html=1;verticalAlign=middle;whiteSpace=wrap;rounded=0;" parent="1" vertex="1">
          <mxGeometry x="1204" y="1162" width="60" height="30" as="geometry" />
        </mxCell>
        <mxCell id="AFzKZ3i9yK1nrJ4SzqqG-320" value="AP3" style="text;strokeColor=none;align=center;fillColor=none;html=1;verticalAlign=middle;whiteSpace=wrap;rounded=0;" parent="1" vertex="1">
          <mxGeometry x="1203" y="1376" width="60" height="30" as="geometry" />
        </mxCell>
        <mxCell id="AFzKZ3i9yK1nrJ4SzqqG-321" value="AP3" style="text;strokeColor=none;align=center;fillColor=none;html=1;verticalAlign=middle;whiteSpace=wrap;rounded=0;" parent="1" vertex="1">
          <mxGeometry x="1204" y="1321" width="60" height="30" as="geometry" />
        </mxCell>
        <mxCell id="AFzKZ3i9yK1nrJ4SzqqG-322" value="AP3" style="text;strokeColor=none;align=center;fillColor=none;html=1;verticalAlign=middle;whiteSpace=wrap;rounded=0;" parent="1" vertex="1">
          <mxGeometry x="1205" y="1265" width="60" height="30" as="geometry" />
        </mxCell>
        <mxCell id="AFzKZ3i9yK1nrJ4SzqqG-323" value="AP1" style="text;strokeColor=none;align=center;fillColor=none;html=1;verticalAlign=middle;whiteSpace=wrap;rounded=0;" parent="1" vertex="1">
          <mxGeometry x="1051" y="999" width="60" height="30" as="geometry" />
        </mxCell>
        <mxCell id="AFzKZ3i9yK1nrJ4SzqqG-324" value="AP1" style="text;strokeColor=none;align=center;fillColor=none;html=1;verticalAlign=middle;whiteSpace=wrap;rounded=0;" parent="1" vertex="1">
          <mxGeometry x="1050" y="1050" width="60" height="30" as="geometry" />
        </mxCell>
        <mxCell id="AFzKZ3i9yK1nrJ4SzqqG-325" value="AP4" style="text;strokeColor=none;align=center;fillColor=none;html=1;verticalAlign=middle;whiteSpace=wrap;rounded=0;" parent="1" vertex="1">
          <mxGeometry x="1050" y="1106" width="60" height="30" as="geometry" />
        </mxCell>
        <mxCell id="AFzKZ3i9yK1nrJ4SzqqG-326" value="AP1" style="text;strokeColor=none;align=center;fillColor=none;html=1;verticalAlign=middle;whiteSpace=wrap;rounded=0;" parent="1" vertex="1">
          <mxGeometry x="1051" y="1209" width="60" height="30" as="geometry" />
        </mxCell>
        <mxCell id="AFzKZ3i9yK1nrJ4SzqqG-327" value="AP2" style="text;strokeColor=none;align=center;fillColor=none;html=1;verticalAlign=middle;whiteSpace=wrap;rounded=0;" parent="1" vertex="1">
          <mxGeometry x="1051" y="1162" width="60" height="30" as="geometry" />
        </mxCell>
        <mxCell id="AFzKZ3i9yK1nrJ4SzqqG-328" value="AP2" style="text;strokeColor=none;align=center;fillColor=none;html=1;verticalAlign=middle;whiteSpace=wrap;rounded=0;" parent="1" vertex="1">
          <mxGeometry x="1050" y="1376" width="60" height="30" as="geometry" />
        </mxCell>
        <mxCell id="AFzKZ3i9yK1nrJ4SzqqG-329" value="AP5" style="text;strokeColor=none;align=center;fillColor=none;html=1;verticalAlign=middle;whiteSpace=wrap;rounded=0;" parent="1" vertex="1">
          <mxGeometry x="1051" y="1321" width="60" height="30" as="geometry" />
        </mxCell>
        <mxCell id="AFzKZ3i9yK1nrJ4SzqqG-330" value="AP1" style="text;strokeColor=none;align=center;fillColor=none;html=1;verticalAlign=middle;whiteSpace=wrap;rounded=0;" parent="1" vertex="1">
          <mxGeometry x="1052" y="1265" width="60" height="30" as="geometry" />
        </mxCell>
        <mxCell id="AFzKZ3i9yK1nrJ4SzqqG-331" style="edgeStyle=orthogonalEdgeStyle;rounded=0;orthogonalLoop=1;jettySize=auto;html=1;exitX=0.5;exitY=1;exitDx=0;exitDy=0;entryX=0.5;entryY=0;entryDx=0;entryDy=0;" parent="1" source="AFzKZ3i9yK1nrJ4SzqqG-334" target="AFzKZ3i9yK1nrJ4SzqqG-337" edge="1">
          <mxGeometry relative="1" as="geometry" />
        </mxCell>
        <mxCell id="AFzKZ3i9yK1nrJ4SzqqG-332" style="rounded=0;orthogonalLoop=1;jettySize=auto;html=1;exitX=0.5;exitY=1;exitDx=0;exitDy=0;entryX=0.5;entryY=0;entryDx=0;entryDy=0;" parent="1" source="AFzKZ3i9yK1nrJ4SzqqG-334" target="AFzKZ3i9yK1nrJ4SzqqG-338" edge="1">
          <mxGeometry relative="1" as="geometry" />
        </mxCell>
        <mxCell id="AFzKZ3i9yK1nrJ4SzqqG-333" style="rounded=0;orthogonalLoop=1;jettySize=auto;html=1;exitX=0.5;exitY=1;exitDx=0;exitDy=0;entryX=0.5;entryY=0;entryDx=0;entryDy=0;" parent="1" source="AFzKZ3i9yK1nrJ4SzqqG-334" target="AFzKZ3i9yK1nrJ4SzqqG-339" edge="1">
          <mxGeometry relative="1" as="geometry" />
        </mxCell>
        <mxCell id="AFzKZ3i9yK1nrJ4SzqqG-334" value="S2" style="ellipse;whiteSpace=wrap;html=1;aspect=fixed;container=0;fillColor=#FF0000;" parent="1" vertex="1">
          <mxGeometry x="1826" y="1078" width="30" height="30" as="geometry" />
        </mxCell>
        <mxCell id="AFzKZ3i9yK1nrJ4SzqqG-335" style="edgeStyle=orthogonalEdgeStyle;rounded=0;orthogonalLoop=1;jettySize=auto;html=1;exitX=0.5;exitY=1;exitDx=0;exitDy=0;entryX=0.5;entryY=0;entryDx=0;entryDy=0;" parent="1" source="AFzKZ3i9yK1nrJ4SzqqG-336" target="AFzKZ3i9yK1nrJ4SzqqG-334" edge="1">
          <mxGeometry relative="1" as="geometry" />
        </mxCell>
        <mxCell id="AFzKZ3i9yK1nrJ4SzqqG-336" value="" style="ellipse;whiteSpace=wrap;html=1;aspect=fixed;container=0;fillColor=none;" parent="1" vertex="1">
          <mxGeometry x="1826" y="1016" width="30" height="30" as="geometry" />
        </mxCell>
        <mxCell id="AFzKZ3i9yK1nrJ4SzqqG-337" value="" style="ellipse;whiteSpace=wrap;html=1;aspect=fixed;container=0;fillColor=none;" parent="1" vertex="1">
          <mxGeometry x="1826" y="1140" width="30" height="30" as="geometry" />
        </mxCell>
        <mxCell id="AFzKZ3i9yK1nrJ4SzqqG-338" value="" style="ellipse;whiteSpace=wrap;html=1;aspect=fixed;container=0;fillColor=none;" parent="1" vertex="1">
          <mxGeometry x="1756" y="1141" width="30" height="30" as="geometry" />
        </mxCell>
        <mxCell id="AFzKZ3i9yK1nrJ4SzqqG-339" value="&lt;div&gt;S4&lt;br&gt;&lt;/div&gt;" style="ellipse;whiteSpace=wrap;html=1;aspect=fixed;container=0;fillColor=#FFFF99;" parent="1" vertex="1">
          <mxGeometry x="1686" y="1141" width="30" height="30" as="geometry" />
        </mxCell>
        <mxCell id="AFzKZ3i9yK1nrJ4SzqqG-340" value="" style="ellipse;whiteSpace=wrap;html=1;aspect=fixed;container=0;fillColor=none;" parent="1" vertex="1">
          <mxGeometry x="1606" y="1141" width="30" height="30" as="geometry" />
        </mxCell>
        <mxCell id="AFzKZ3i9yK1nrJ4SzqqG-342" value="" style="endArrow=classic;html=1;rounded=0;exitX=0.5;exitY=1;exitDx=0;exitDy=0;" parent="1" source="AFzKZ3i9yK1nrJ4SzqqG-334" edge="1">
          <mxGeometry width="50" height="50" relative="1" as="geometry">
            <mxPoint x="1706" y="1432" as="sourcePoint" />
            <mxPoint x="1621" y="1142" as="targetPoint" />
          </mxGeometry>
        </mxCell>
        <mxCell id="AFzKZ3i9yK1nrJ4SzqqG-343" value="" style="ellipse;whiteSpace=wrap;html=1;aspect=fixed;container=0;fillColor=none;" parent="1" vertex="1">
          <mxGeometry x="1796" y="1214" width="30" height="30" as="geometry" />
        </mxCell>
        <mxCell id="AFzKZ3i9yK1nrJ4SzqqG-344" value="" style="ellipse;whiteSpace=wrap;html=1;aspect=fixed;container=0;fillColor=none;" parent="1" vertex="1">
          <mxGeometry x="1726" y="1215" width="30" height="30" as="geometry" />
        </mxCell>
        <mxCell id="AFzKZ3i9yK1nrJ4SzqqG-345" value="S1" style="ellipse;whiteSpace=wrap;html=1;aspect=fixed;container=0;fillColor=#FFFF99;" parent="1" vertex="1">
          <mxGeometry x="1656" y="1215" width="30" height="30" as="geometry" />
        </mxCell>
        <mxCell id="AFzKZ3i9yK1nrJ4SzqqG-346" value="" style="ellipse;whiteSpace=wrap;html=1;aspect=fixed;container=0;fillColor=none;" parent="1" vertex="1">
          <mxGeometry x="1576" y="1215" width="30" height="30" as="geometry" />
        </mxCell>
        <mxCell id="AFzKZ3i9yK1nrJ4SzqqG-347" value="" style="endArrow=classic;html=1;rounded=0;exitX=0.5;exitY=1;exitDx=0;exitDy=0;entryX=0.5;entryY=0;entryDx=0;entryDy=0;" parent="1" source="AFzKZ3i9yK1nrJ4SzqqG-339" target="AFzKZ3i9yK1nrJ4SzqqG-346" edge="1">
          <mxGeometry width="50" height="50" relative="1" as="geometry">
            <mxPoint x="1666" y="1296" as="sourcePoint" />
            <mxPoint x="1716" y="1246" as="targetPoint" />
          </mxGeometry>
        </mxCell>
        <mxCell id="AFzKZ3i9yK1nrJ4SzqqG-348" value="" style="endArrow=classic;html=1;rounded=0;exitX=0.5;exitY=1;exitDx=0;exitDy=0;entryX=0.5;entryY=0;entryDx=0;entryDy=0;" parent="1" source="AFzKZ3i9yK1nrJ4SzqqG-339" target="AFzKZ3i9yK1nrJ4SzqqG-345" edge="1">
          <mxGeometry width="50" height="50" relative="1" as="geometry">
            <mxPoint x="1676" y="1306" as="sourcePoint" />
            <mxPoint x="1726" y="1256" as="targetPoint" />
          </mxGeometry>
        </mxCell>
        <mxCell id="AFzKZ3i9yK1nrJ4SzqqG-349" value="" style="endArrow=classic;html=1;rounded=0;exitX=0.5;exitY=1;exitDx=0;exitDy=0;entryX=0.5;entryY=0;entryDx=0;entryDy=0;" parent="1" source="AFzKZ3i9yK1nrJ4SzqqG-339" target="AFzKZ3i9yK1nrJ4SzqqG-344" edge="1">
          <mxGeometry width="50" height="50" relative="1" as="geometry">
            <mxPoint x="1686" y="1316" as="sourcePoint" />
            <mxPoint x="1736" y="1266" as="targetPoint" />
          </mxGeometry>
        </mxCell>
        <mxCell id="AFzKZ3i9yK1nrJ4SzqqG-350" value="" style="endArrow=classic;html=1;rounded=0;exitX=0.5;exitY=1;exitDx=0;exitDy=0;entryX=0.5;entryY=0;entryDx=0;entryDy=0;" parent="1" source="AFzKZ3i9yK1nrJ4SzqqG-339" target="AFzKZ3i9yK1nrJ4SzqqG-343" edge="1">
          <mxGeometry width="50" height="50" relative="1" as="geometry">
            <mxPoint x="1696" y="1326" as="sourcePoint" />
            <mxPoint x="1746" y="1276" as="targetPoint" />
          </mxGeometry>
        </mxCell>
        <mxCell id="AFzKZ3i9yK1nrJ4SzqqG-351" value="S3" style="ellipse;whiteSpace=wrap;html=1;aspect=fixed;container=0;fillColor=#33FF33;" parent="1" vertex="1">
          <mxGeometry x="1696" y="1286" width="30" height="30" as="geometry" />
        </mxCell>
        <mxCell id="AFzKZ3i9yK1nrJ4SzqqG-352" value="" style="ellipse;whiteSpace=wrap;html=1;aspect=fixed;container=0;fillColor=none;" parent="1" vertex="1">
          <mxGeometry x="1616" y="1286" width="30" height="30" as="geometry" />
        </mxCell>
        <mxCell id="AFzKZ3i9yK1nrJ4SzqqG-353" value="" style="endArrow=classic;html=1;rounded=0;exitX=0.5;exitY=1;exitDx=0;exitDy=0;entryX=0.5;entryY=0;entryDx=0;entryDy=0;" parent="1" source="AFzKZ3i9yK1nrJ4SzqqG-345" target="AFzKZ3i9yK1nrJ4SzqqG-352" edge="1">
          <mxGeometry width="50" height="50" relative="1" as="geometry">
            <mxPoint x="1711" y="1181" as="sourcePoint" />
            <mxPoint x="1601" y="1225" as="targetPoint" />
          </mxGeometry>
        </mxCell>
        <mxCell id="AFzKZ3i9yK1nrJ4SzqqG-354" value="" style="endArrow=classic;html=1;rounded=0;exitX=0.5;exitY=1;exitDx=0;exitDy=0;entryX=0.5;entryY=0;entryDx=0;entryDy=0;" parent="1" source="AFzKZ3i9yK1nrJ4SzqqG-345" target="AFzKZ3i9yK1nrJ4SzqqG-351" edge="1">
          <mxGeometry width="50" height="50" relative="1" as="geometry">
            <mxPoint x="1721" y="1191" as="sourcePoint" />
            <mxPoint x="1611" y="1235" as="targetPoint" />
          </mxGeometry>
        </mxCell>
        <mxCell id="AFzKZ3i9yK1nrJ4SzqqG-356" value="&lt;b&gt;T1999 rule3 matched&lt;br&gt;&lt;/b&gt;" style="text;strokeColor=none;align=center;fillColor=none;html=1;verticalAlign=middle;whiteSpace=wrap;rounded=0;" parent="1" vertex="1">
          <mxGeometry x="1681" y="1330.5" width="80" height="30" as="geometry" />
        </mxCell>
        <mxCell id="AFzKZ3i9yK1nrJ4SzqqG-357" value="R1-S2、R2-S2、R3-S2、R5-S2、R6-S2、R7-S2" style="text;strokeColor=#FF0000;align=left;fillColor=#FF0000;html=1;verticalAlign=middle;whiteSpace=wrap;rounded=0;" parent="1" vertex="1">
          <mxGeometry x="1870" y="1077" width="280" height="30" as="geometry" />
        </mxCell>
        <mxCell id="AFzKZ3i9yK1nrJ4SzqqG-358" value="R1-S2、R2-S2、R3-S4、R4-S4、R5-S2、R6-S2、R7-S2" style="text;strokeColor=#FFFF66;align=left;fillColor=#FFFF66;html=1;verticalAlign=middle;whiteSpace=wrap;rounded=0;" parent="1" vertex="1">
          <mxGeometry x="1870" y="1142" width="340" height="30" as="geometry" />
        </mxCell>
        <mxCell id="AFzKZ3i9yK1nrJ4SzqqG-359" value="R1-S1、R2-S1、R3-S1、R4-S4、R5-S1、R6-S1、R7-S2" style="text;strokeColor=none;align=left;fillColor=#FFFF66;html=1;verticalAlign=middle;whiteSpace=wrap;rounded=0;" parent="1" vertex="1">
          <mxGeometry x="1840" y="1217.5" width="340" height="30" as="geometry" />
        </mxCell>
        <mxCell id="AFzKZ3i9yK1nrJ4SzqqG-360" value="R1-S3、R2-S1、&lt;b&gt;R3-S3&lt;/b&gt;、R4-S4、R5-S3、R6-S1、R7-S2" style="text;strokeColor=none;align=left;fillColor=#33FF33;html=1;verticalAlign=middle;whiteSpace=wrap;rounded=0;" parent="1" vertex="1">
          <mxGeometry x="1736" y="1286" width="340" height="30" as="geometry" />
        </mxCell>
        <mxCell id="AFzKZ3i9yK1nrJ4SzqqG-361" value="" style="endArrow=none;html=1;rounded=0;" parent="1" edge="1">
          <mxGeometry width="50" height="50" relative="1" as="geometry">
            <mxPoint x="15" y="1580" as="sourcePoint" />
            <mxPoint x="1880" y="1580" as="targetPoint" />
          </mxGeometry>
        </mxCell>
        <mxCell id="AFzKZ3i9yK1nrJ4SzqqG-362" value="&lt;font style=&quot;font-size: 36px;&quot;&gt;三、状态机老化&lt;/font&gt;" style="text;strokeColor=none;align=center;fillColor=none;html=1;verticalAlign=middle;whiteSpace=wrap;rounded=0;" parent="1" vertex="1">
          <mxGeometry y="1610" width="290" height="30" as="geometry" />
        </mxCell>
        <mxCell id="AFzKZ3i9yK1nrJ4SzqqG-363" value="&lt;div align=&quot;left&quot;&gt;&lt;font style=&quot;font-size: 24px;&quot;&gt;1.叶子节点无法继续分裂，且未匹配到规则完全路径 错了&lt;br&gt;&lt;/font&gt;&lt;/div&gt;&lt;div align=&quot;left&quot;&gt;&lt;font style=&quot;font-size: 24px;&quot;&gt;2.节点的状态经过M次分裂后，状态仍未更新 删除分支&lt;br&gt;&lt;/font&gt;&lt;/div&gt;&lt;div align=&quot;left&quot;&gt;&lt;font style=&quot;font-size: 24px;&quot;&gt;3.节点的状态经过N mins后，状态仍未更新 删除分支&lt;/font&gt;&lt;/div&gt;&lt;div align=&quot;left&quot;&gt;&lt;font style=&quot;font-size: 24px;&quot;&gt;4.同一个TKG的某一条rule状态机已经匹配完成，则该TKG的其他rule状态可老化（optional） 删除状态&lt;br&gt;&lt;/font&gt;&lt;/div&gt;" style="text;strokeColor=none;align=left;fillColor=none;html=1;verticalAlign=middle;whiteSpace=wrap;rounded=0;" parent="1" vertex="1">
          <mxGeometry x="436" y="1690" width="1384" height="110" as="geometry" />
        </mxCell>
      </root>
    </mxGraphModel>
  </diagram>
  <diagram id="9mduATo4n04tBqJJanvy" name="V2">
    <mxGraphModel dx="1898" dy="853" grid="1" gridSize="10" guides="1" tooltips="1" connect="1" arrows="1" fold="1" page="1" pageScale="1" pageWidth="827" pageHeight="1169" math="0" shadow="0">
      <root>
        <mxCell id="0" />
        <mxCell id="1" parent="0" />
        <mxCell id="IC8ufoEpCNfzhhUC2e6s-276" value="" style="rounded=0;whiteSpace=wrap;html=1;shadow=0;" parent="1" vertex="1">
          <mxGeometry x="970" y="1220.5" width="610" height="599.5" as="geometry" />
        </mxCell>
        <mxCell id="IC8ufoEpCNfzhhUC2e6s-275" value="" style="rounded=0;whiteSpace=wrap;html=1;shadow=0;" parent="1" vertex="1">
          <mxGeometry x="90" y="1220.5" width="830" height="599.5" as="geometry" />
        </mxCell>
        <mxCell id="IC8ufoEpCNfzhhUC2e6s-181" value="" style="rounded=0;whiteSpace=wrap;html=1;shadow=0;" parent="1" vertex="1">
          <mxGeometry x="917" y="411" width="730" height="459" as="geometry" />
        </mxCell>
        <mxCell id="IC8ufoEpCNfzhhUC2e6s-80" value="" style="rounded=0;whiteSpace=wrap;html=1;shadow=0;" parent="1" vertex="1">
          <mxGeometry x="917" y="130" width="730" height="240" as="geometry" />
        </mxCell>
        <mxCell id="IC8ufoEpCNfzhhUC2e6s-128" value="" style="rounded=1;whiteSpace=wrap;html=1;" parent="1" vertex="1">
          <mxGeometry x="1279" y="152" width="36" height="60" as="geometry" />
        </mxCell>
        <mxCell id="IC8ufoEpCNfzhhUC2e6s-127" value="" style="rounded=1;whiteSpace=wrap;html=1;" parent="1" vertex="1">
          <mxGeometry x="1242" y="152" width="30" height="60" as="geometry" />
        </mxCell>
        <mxCell id="IC8ufoEpCNfzhhUC2e6s-125" value="" style="rounded=1;whiteSpace=wrap;html=1;" parent="1" vertex="1">
          <mxGeometry x="1201" y="152" width="34" height="60" as="geometry" />
        </mxCell>
        <mxCell id="IC8ufoEpCNfzhhUC2e6s-77" value="" style="rounded=0;whiteSpace=wrap;html=1;shadow=0;" parent="1" vertex="1">
          <mxGeometry x="105" y="130" width="515" height="740" as="geometry" />
        </mxCell>
        <mxCell id="IC8ufoEpCNfzhhUC2e6s-1" value="&lt;div align=&quot;left&quot;&gt;&lt;b&gt;TKG转状态规则的前提要求：&lt;/b&gt;&lt;/div&gt;&lt;div align=&quot;left&quot;&gt;&lt;b&gt;1.有向图中的每一条路径链包含时序关系，例如e2默认发生在e4前面发生&lt;/b&gt;&lt;/div&gt;&lt;div align=&quot;left&quot;&gt;&lt;b&gt;2.分支情况需要说明时序关系，例如e1，e2，e3三条分支需要注明时序关系还是或的关系&lt;/b&gt;&lt;/div&gt;&lt;div align=&quot;left&quot;&gt;&lt;b&gt;3.TKG的状态规则匹配成功的状态为匹配成功状态，如T1999中，最终n3-e4-n5或n4-e5-n5都可以进入匹配成功状态，这里要明确两条分支是或的关系还是时序关系&lt;br&gt;&lt;/b&gt;&lt;/div&gt;&lt;div align=&quot;left&quot;&gt;&lt;b&gt;3.每一个TKG包含两种状态信息，分别为节点状态和规则状态&lt;br&gt;&lt;/b&gt;&lt;/div&gt;" style="text;strokeColor=none;align=left;fillColor=none;html=1;verticalAlign=middle;whiteSpace=wrap;rounded=0;" parent="1" vertex="1">
          <mxGeometry x="30" y="30" width="990" height="80" as="geometry" />
        </mxCell>
        <mxCell id="IC8ufoEpCNfzhhUC2e6s-2" value="" style="ellipse;whiteSpace=wrap;html=1;aspect=fixed;" parent="1" vertex="1">
          <mxGeometry x="225" y="240" width="30" height="30" as="geometry" />
        </mxCell>
        <mxCell id="IC8ufoEpCNfzhhUC2e6s-3" value="" style="ellipse;whiteSpace=wrap;html=1;aspect=fixed;" parent="1" vertex="1">
          <mxGeometry x="335" y="160" width="30" height="30" as="geometry" />
        </mxCell>
        <mxCell id="IC8ufoEpCNfzhhUC2e6s-4" value="" style="ellipse;whiteSpace=wrap;html=1;aspect=fixed;" parent="1" vertex="1">
          <mxGeometry x="335" y="240" width="30" height="30" as="geometry" />
        </mxCell>
        <mxCell id="IC8ufoEpCNfzhhUC2e6s-5" value="" style="ellipse;whiteSpace=wrap;html=1;aspect=fixed;" parent="1" vertex="1">
          <mxGeometry x="335" y="320" width="30" height="30" as="geometry" />
        </mxCell>
        <mxCell id="IC8ufoEpCNfzhhUC2e6s-6" value="" style="ellipse;whiteSpace=wrap;html=1;aspect=fixed;" parent="1" vertex="1">
          <mxGeometry x="445" y="270" width="30" height="30" as="geometry" />
        </mxCell>
        <mxCell id="IC8ufoEpCNfzhhUC2e6s-7" value="" style="endArrow=classic;html=1;rounded=0;entryX=0;entryY=1;entryDx=0;entryDy=0;exitX=1;exitY=0;exitDx=0;exitDy=0;strokeColor=#0000FF;fillColor=#000000;" parent="1" source="IC8ufoEpCNfzhhUC2e6s-2" target="IC8ufoEpCNfzhhUC2e6s-3" edge="1">
          <mxGeometry width="50" height="50" relative="1" as="geometry">
            <mxPoint x="255" y="250" as="sourcePoint" />
            <mxPoint x="305" y="200" as="targetPoint" />
          </mxGeometry>
        </mxCell>
        <mxCell id="IC8ufoEpCNfzhhUC2e6s-8" value="" style="endArrow=classic;html=1;rounded=0;entryX=0;entryY=0.5;entryDx=0;entryDy=0;exitX=1;exitY=0.5;exitDx=0;exitDy=0;strokeColor=#FF0000;" parent="1" source="IC8ufoEpCNfzhhUC2e6s-2" target="IC8ufoEpCNfzhhUC2e6s-4" edge="1">
          <mxGeometry width="50" height="50" relative="1" as="geometry">
            <mxPoint x="261" y="254" as="sourcePoint" />
            <mxPoint x="349" y="196" as="targetPoint" />
          </mxGeometry>
        </mxCell>
        <mxCell id="IC8ufoEpCNfzhhUC2e6s-9" value="" style="endArrow=classic;html=1;rounded=0;entryX=0;entryY=0;entryDx=0;entryDy=0;exitX=1;exitY=1;exitDx=0;exitDy=0;fillColor=#000000;strokeColor=#0000FF;" parent="1" source="IC8ufoEpCNfzhhUC2e6s-2" target="IC8ufoEpCNfzhhUC2e6s-5" edge="1">
          <mxGeometry width="50" height="50" relative="1" as="geometry">
            <mxPoint x="271" y="264" as="sourcePoint" />
            <mxPoint x="359" y="206" as="targetPoint" />
          </mxGeometry>
        </mxCell>
        <mxCell id="IC8ufoEpCNfzhhUC2e6s-10" value="" style="endArrow=classic;html=1;rounded=0;entryX=0;entryY=0.5;entryDx=0;entryDy=0;exitX=1;exitY=0.5;exitDx=0;exitDy=0;strokeColor=#33FF33;" parent="1" source="IC8ufoEpCNfzhhUC2e6s-4" target="IC8ufoEpCNfzhhUC2e6s-6" edge="1">
          <mxGeometry width="50" height="50" relative="1" as="geometry">
            <mxPoint x="281" y="274" as="sourcePoint" />
            <mxPoint x="369" y="216" as="targetPoint" />
          </mxGeometry>
        </mxCell>
        <mxCell id="IC8ufoEpCNfzhhUC2e6s-11" value="" style="endArrow=classic;html=1;rounded=0;exitX=1;exitY=0;exitDx=0;exitDy=0;fillColor=#33FF33;strokeColor=#33FF33;" parent="1" edge="1">
          <mxGeometry width="50" height="50" relative="1" as="geometry">
            <mxPoint x="365" y="328" as="sourcePoint" />
            <mxPoint x="445" y="290" as="targetPoint" />
          </mxGeometry>
        </mxCell>
        <mxCell id="IC8ufoEpCNfzhhUC2e6s-12" value="n2" style="text;strokeColor=none;align=center;fillColor=none;html=1;verticalAlign=middle;whiteSpace=wrap;rounded=0;" parent="1" vertex="1">
          <mxGeometry x="320" y="160" width="60" height="30" as="geometry" />
        </mxCell>
        <mxCell id="IC8ufoEpCNfzhhUC2e6s-13" value="n1" style="text;strokeColor=none;align=center;fillColor=none;html=1;verticalAlign=middle;whiteSpace=wrap;rounded=0;" parent="1" vertex="1">
          <mxGeometry x="210" y="240" width="60" height="30" as="geometry" />
        </mxCell>
        <mxCell id="IC8ufoEpCNfzhhUC2e6s-14" value="n3" style="text;strokeColor=none;align=center;fillColor=none;html=1;verticalAlign=middle;whiteSpace=wrap;rounded=0;" parent="1" vertex="1">
          <mxGeometry x="320" y="240" width="60" height="30" as="geometry" />
        </mxCell>
        <mxCell id="IC8ufoEpCNfzhhUC2e6s-15" value="n4" style="text;strokeColor=none;align=center;fillColor=none;html=1;verticalAlign=middle;whiteSpace=wrap;rounded=0;" parent="1" vertex="1">
          <mxGeometry x="320" y="320" width="60" height="30" as="geometry" />
        </mxCell>
        <mxCell id="IC8ufoEpCNfzhhUC2e6s-16" value="n5" style="text;strokeColor=none;align=center;fillColor=none;html=1;verticalAlign=middle;whiteSpace=wrap;rounded=0;" parent="1" vertex="1">
          <mxGeometry x="430" y="270" width="60" height="30" as="geometry" />
        </mxCell>
        <mxCell id="IC8ufoEpCNfzhhUC2e6s-17" value="e1" style="text;strokeColor=none;align=center;fillColor=none;html=1;verticalAlign=middle;whiteSpace=wrap;rounded=0;" parent="1" vertex="1">
          <mxGeometry x="264" y="190" width="29" height="30" as="geometry" />
        </mxCell>
        <mxCell id="IC8ufoEpCNfzhhUC2e6s-18" value="e2" style="text;strokeColor=none;align=center;fillColor=none;html=1;verticalAlign=middle;whiteSpace=wrap;rounded=0;" parent="1" vertex="1">
          <mxGeometry x="264" y="232" width="60" height="30" as="geometry" />
        </mxCell>
        <mxCell id="IC8ufoEpCNfzhhUC2e6s-19" value="e3" style="text;strokeColor=none;align=center;fillColor=none;html=1;verticalAlign=middle;whiteSpace=wrap;rounded=0;" parent="1" vertex="1">
          <mxGeometry x="264" y="269" width="60" height="30" as="geometry" />
        </mxCell>
        <mxCell id="IC8ufoEpCNfzhhUC2e6s-20" value="e4" style="text;strokeColor=none;align=center;fillColor=none;html=1;verticalAlign=middle;whiteSpace=wrap;rounded=0;" parent="1" vertex="1">
          <mxGeometry x="375" y="246" width="60" height="30" as="geometry" />
        </mxCell>
        <mxCell id="IC8ufoEpCNfzhhUC2e6s-21" value="e5" style="text;strokeColor=none;align=center;fillColor=none;html=1;verticalAlign=middle;whiteSpace=wrap;rounded=0;" parent="1" vertex="1">
          <mxGeometry x="375" y="285" width="35" height="30" as="geometry" />
        </mxCell>
        <mxCell id="IC8ufoEpCNfzhhUC2e6s-22" value="&lt;b&gt;TKG&amp;nbsp; T1999&lt;/b&gt;" style="text;strokeColor=none;align=center;fillColor=none;html=1;verticalAlign=middle;whiteSpace=wrap;rounded=0;" parent="1" vertex="1">
          <mxGeometry x="310" y="356" width="80" height="30" as="geometry" />
        </mxCell>
        <mxCell id="IC8ufoEpCNfzhhUC2e6s-23" value="&lt;div align=&quot;left&quot;&gt;&quot;tkg_detection&quot;: &lt;br&gt;&amp;nbsp;&amp;nbsp;&amp;nbsp;&amp;nbsp;&amp;nbsp;&amp;nbsp;&amp;nbsp; {&lt;br&gt;&amp;nbsp;&amp;nbsp;&amp;nbsp;&amp;nbsp;&amp;nbsp;&amp;nbsp;&amp;nbsp;&amp;nbsp;&amp;nbsp;&amp;nbsp;&amp;nbsp; &quot;edge_orders&quot;: &lt;br&gt;&amp;nbsp;&amp;nbsp;&amp;nbsp;&amp;nbsp;&amp;nbsp;&amp;nbsp;&amp;nbsp;&amp;nbsp;&amp;nbsp;&amp;nbsp;&amp;nbsp; [&lt;br&gt;&amp;nbsp;&amp;nbsp;&amp;nbsp;&amp;nbsp;&amp;nbsp;&amp;nbsp;&amp;nbsp;&amp;nbsp;&amp;nbsp;&amp;nbsp;&amp;nbsp;&amp;nbsp;&amp;nbsp;&amp;nbsp;&amp;nbsp; {&lt;br&gt;&amp;nbsp;&amp;nbsp;&amp;nbsp;&amp;nbsp;&amp;nbsp;&amp;nbsp;&amp;nbsp;&amp;nbsp;&amp;nbsp;&amp;nbsp;&amp;nbsp;&amp;nbsp;&amp;nbsp;&amp;nbsp;&amp;nbsp;&amp;nbsp;&amp;nbsp;&amp;nbsp;&amp;nbsp; &quot;edges&quot;: [2, 1, 3],&lt;br&gt;&amp;nbsp;&amp;nbsp;&amp;nbsp;&amp;nbsp;&amp;nbsp;&amp;nbsp;&amp;nbsp;&amp;nbsp;&amp;nbsp;&amp;nbsp;&amp;nbsp;&amp;nbsp;&amp;nbsp;&amp;nbsp;&amp;nbsp; }&lt;br&gt;&amp;nbsp;&amp;nbsp;&amp;nbsp;&amp;nbsp;&amp;nbsp;&amp;nbsp;&amp;nbsp;&amp;nbsp;&amp;nbsp;&amp;nbsp;&amp;nbsp; ],&lt;br&gt;&amp;nbsp;&amp;nbsp;&amp;nbsp;&amp;nbsp;&amp;nbsp;&amp;nbsp;&amp;nbsp;&amp;nbsp;&amp;nbsp;&amp;nbsp;&amp;nbsp; &quot;or_edges&quot;: &lt;br&gt;&amp;nbsp;&amp;nbsp;&amp;nbsp;&amp;nbsp;&amp;nbsp;&amp;nbsp;&amp;nbsp;&amp;nbsp;&amp;nbsp;&amp;nbsp;&amp;nbsp; [&lt;br&gt;&amp;nbsp;&amp;nbsp;&amp;nbsp;&amp;nbsp;&amp;nbsp;&amp;nbsp;&amp;nbsp;&amp;nbsp;&amp;nbsp;&amp;nbsp;&amp;nbsp;&amp;nbsp;&amp;nbsp;&amp;nbsp;&amp;nbsp; {&lt;br&gt;&amp;nbsp;&amp;nbsp;&amp;nbsp;&amp;nbsp;&amp;nbsp;&amp;nbsp;&amp;nbsp;&amp;nbsp;&amp;nbsp;&amp;nbsp;&amp;nbsp;&amp;nbsp;&amp;nbsp;&amp;nbsp;&amp;nbsp;&amp;nbsp;&amp;nbsp;&amp;nbsp;&amp;nbsp; &quot;edges&quot;: [4, 5]&lt;br&gt;&amp;nbsp;&amp;nbsp;&amp;nbsp;&amp;nbsp;&amp;nbsp;&amp;nbsp;&amp;nbsp;&amp;nbsp;&amp;nbsp;&amp;nbsp;&amp;nbsp;&amp;nbsp;&amp;nbsp;&amp;nbsp;&amp;nbsp; }&lt;br&gt;&amp;nbsp;&amp;nbsp;&amp;nbsp;&amp;nbsp;&amp;nbsp;&amp;nbsp;&amp;nbsp;&amp;nbsp;&amp;nbsp;&amp;nbsp;&amp;nbsp; ]&lt;br&gt;&amp;nbsp;&amp;nbsp;&amp;nbsp;&amp;nbsp;&amp;nbsp;&amp;nbsp;&amp;nbsp; }&lt;/div&gt;" style="text;strokeColor=#000000;align=left;fillColor=none;html=1;verticalAlign=middle;whiteSpace=wrap;rounded=0;" parent="1" vertex="1">
          <mxGeometry x="264" y="459" width="190" height="280" as="geometry" />
        </mxCell>
        <mxCell id="IC8ufoEpCNfzhhUC2e6s-30" style="edgeStyle=orthogonalEdgeStyle;rounded=0;orthogonalLoop=1;jettySize=auto;html=1;exitX=1;exitY=0.5;exitDx=0;exitDy=0;entryX=0;entryY=0.5;entryDx=0;entryDy=0;strokeColor=#FF0000;" parent="1" source="IC8ufoEpCNfzhhUC2e6s-26" target="IC8ufoEpCNfzhhUC2e6s-27" edge="1">
          <mxGeometry relative="1" as="geometry" />
        </mxCell>
        <mxCell id="IC8ufoEpCNfzhhUC2e6s-26" value="n1" style="ellipse;whiteSpace=wrap;html=1;aspect=fixed;container=0;fillColor=none;" parent="1" vertex="1">
          <mxGeometry x="1003" y="518" width="30" height="30" as="geometry" />
        </mxCell>
        <mxCell id="IC8ufoEpCNfzhhUC2e6s-27" value="n3" style="ellipse;whiteSpace=wrap;html=1;aspect=fixed;container=0;fillColor=none;" parent="1" vertex="1">
          <mxGeometry x="1083" y="518" width="30" height="30" as="geometry" />
        </mxCell>
        <mxCell id="IC8ufoEpCNfzhhUC2e6s-31" style="edgeStyle=orthogonalEdgeStyle;rounded=0;orthogonalLoop=1;jettySize=auto;html=1;exitX=1;exitY=0.5;exitDx=0;exitDy=0;entryX=0;entryY=0.5;entryDx=0;entryDy=0;strokeColor=#0000FF;" parent="1" source="IC8ufoEpCNfzhhUC2e6s-32" target="IC8ufoEpCNfzhhUC2e6s-33" edge="1">
          <mxGeometry relative="1" as="geometry" />
        </mxCell>
        <mxCell id="IC8ufoEpCNfzhhUC2e6s-32" value="n1" style="ellipse;whiteSpace=wrap;html=1;aspect=fixed;container=0;fillColor=none;" parent="1" vertex="1">
          <mxGeometry x="1173" y="517" width="30" height="30" as="geometry" />
        </mxCell>
        <mxCell id="IC8ufoEpCNfzhhUC2e6s-33" value="n2" style="ellipse;whiteSpace=wrap;html=1;aspect=fixed;container=0;fillColor=none;" parent="1" vertex="1">
          <mxGeometry x="1253" y="517" width="30" height="30" as="geometry" />
        </mxCell>
        <mxCell id="IC8ufoEpCNfzhhUC2e6s-34" style="edgeStyle=orthogonalEdgeStyle;rounded=0;orthogonalLoop=1;jettySize=auto;html=1;exitX=1;exitY=0.5;exitDx=0;exitDy=0;entryX=0;entryY=0.5;entryDx=0;entryDy=0;strokeColor=#0000FF;" parent="1" source="IC8ufoEpCNfzhhUC2e6s-35" target="IC8ufoEpCNfzhhUC2e6s-36" edge="1">
          <mxGeometry relative="1" as="geometry" />
        </mxCell>
        <mxCell id="IC8ufoEpCNfzhhUC2e6s-35" value="n1" style="ellipse;whiteSpace=wrap;html=1;aspect=fixed;container=0;fillColor=none;" parent="1" vertex="1">
          <mxGeometry x="1333" y="517" width="30" height="30" as="geometry" />
        </mxCell>
        <mxCell id="IC8ufoEpCNfzhhUC2e6s-36" value="n4" style="ellipse;whiteSpace=wrap;html=1;aspect=fixed;container=0;fillColor=none;" parent="1" vertex="1">
          <mxGeometry x="1413" y="517" width="30" height="30" as="geometry" />
        </mxCell>
        <mxCell id="IC8ufoEpCNfzhhUC2e6s-37" style="edgeStyle=orthogonalEdgeStyle;rounded=0;orthogonalLoop=1;jettySize=auto;html=1;exitX=1;exitY=0.5;exitDx=0;exitDy=0;entryX=0;entryY=0.5;entryDx=0;entryDy=0;strokeColor=#33FF33;" parent="1" source="IC8ufoEpCNfzhhUC2e6s-38" target="IC8ufoEpCNfzhhUC2e6s-39" edge="1">
          <mxGeometry relative="1" as="geometry" />
        </mxCell>
        <mxCell id="IC8ufoEpCNfzhhUC2e6s-38" value="n3" style="ellipse;whiteSpace=wrap;html=1;aspect=fixed;container=0;fillColor=none;" parent="1" vertex="1">
          <mxGeometry x="1493" y="517" width="30" height="30" as="geometry" />
        </mxCell>
        <mxCell id="IC8ufoEpCNfzhhUC2e6s-39" value="n5" style="ellipse;whiteSpace=wrap;html=1;aspect=fixed;container=0;fillColor=none;" parent="1" vertex="1">
          <mxGeometry x="1573" y="517" width="30" height="30" as="geometry" />
        </mxCell>
        <mxCell id="IC8ufoEpCNfzhhUC2e6s-43" value="e2" style="text;strokeColor=none;align=center;fillColor=none;html=1;verticalAlign=middle;whiteSpace=wrap;rounded=0;" parent="1" vertex="1">
          <mxGeometry x="1023" y="505" width="60" height="30" as="geometry" />
        </mxCell>
        <mxCell id="IC8ufoEpCNfzhhUC2e6s-44" value="e1" style="text;strokeColor=none;align=center;fillColor=none;html=1;verticalAlign=middle;whiteSpace=wrap;rounded=0;" parent="1" vertex="1">
          <mxGeometry x="1208" y="505" width="27" height="30" as="geometry" />
        </mxCell>
        <mxCell id="IC8ufoEpCNfzhhUC2e6s-45" value="e3" style="text;strokeColor=none;align=center;fillColor=none;html=1;verticalAlign=middle;whiteSpace=wrap;rounded=0;" parent="1" vertex="1">
          <mxGeometry x="1363" y="505" width="37" height="30" as="geometry" />
        </mxCell>
        <mxCell id="IC8ufoEpCNfzhhUC2e6s-47" value="e4" style="text;strokeColor=none;align=center;fillColor=none;html=1;verticalAlign=middle;whiteSpace=wrap;rounded=0;" parent="1" vertex="1">
          <mxGeometry x="1513" y="505" width="60" height="30" as="geometry" />
        </mxCell>
        <mxCell id="IC8ufoEpCNfzhhUC2e6s-49" style="edgeStyle=orthogonalEdgeStyle;rounded=0;orthogonalLoop=1;jettySize=auto;html=1;exitX=1;exitY=0.5;exitDx=0;exitDy=0;entryX=0;entryY=0.5;entryDx=0;entryDy=0;strokeColor=#FF0000;" parent="1" source="IC8ufoEpCNfzhhUC2e6s-50" target="IC8ufoEpCNfzhhUC2e6s-51" edge="1">
          <mxGeometry relative="1" as="geometry" />
        </mxCell>
        <mxCell id="IC8ufoEpCNfzhhUC2e6s-50" value="n1" style="ellipse;whiteSpace=wrap;html=1;aspect=fixed;container=0;fillColor=none;" parent="1" vertex="1">
          <mxGeometry x="1003" y="692" width="30" height="30" as="geometry" />
        </mxCell>
        <mxCell id="IC8ufoEpCNfzhhUC2e6s-51" value="n3" style="ellipse;whiteSpace=wrap;html=1;aspect=fixed;container=0;fillColor=none;" parent="1" vertex="1">
          <mxGeometry x="1083" y="692" width="30" height="30" as="geometry" />
        </mxCell>
        <mxCell id="IC8ufoEpCNfzhhUC2e6s-52" style="edgeStyle=orthogonalEdgeStyle;rounded=0;orthogonalLoop=1;jettySize=auto;html=1;exitX=1;exitY=0.5;exitDx=0;exitDy=0;entryX=0;entryY=0.5;entryDx=0;entryDy=0;strokeColor=#0000FF;" parent="1" source="IC8ufoEpCNfzhhUC2e6s-53" target="IC8ufoEpCNfzhhUC2e6s-54" edge="1">
          <mxGeometry relative="1" as="geometry" />
        </mxCell>
        <mxCell id="IC8ufoEpCNfzhhUC2e6s-53" value="n1" style="ellipse;whiteSpace=wrap;html=1;aspect=fixed;container=0;fillColor=none;" parent="1" vertex="1">
          <mxGeometry x="1173" y="691" width="30" height="30" as="geometry" />
        </mxCell>
        <mxCell id="IC8ufoEpCNfzhhUC2e6s-54" value="n2" style="ellipse;whiteSpace=wrap;html=1;aspect=fixed;container=0;fillColor=none;" parent="1" vertex="1">
          <mxGeometry x="1253" y="691" width="30" height="30" as="geometry" />
        </mxCell>
        <mxCell id="IC8ufoEpCNfzhhUC2e6s-55" style="edgeStyle=orthogonalEdgeStyle;rounded=0;orthogonalLoop=1;jettySize=auto;html=1;exitX=1;exitY=0.5;exitDx=0;exitDy=0;entryX=0;entryY=0.5;entryDx=0;entryDy=0;strokeColor=#0000FF;" parent="1" source="IC8ufoEpCNfzhhUC2e6s-56" target="IC8ufoEpCNfzhhUC2e6s-57" edge="1">
          <mxGeometry relative="1" as="geometry" />
        </mxCell>
        <mxCell id="IC8ufoEpCNfzhhUC2e6s-56" value="n1" style="ellipse;whiteSpace=wrap;html=1;aspect=fixed;container=0;fillColor=none;" parent="1" vertex="1">
          <mxGeometry x="1333" y="691" width="30" height="30" as="geometry" />
        </mxCell>
        <mxCell id="IC8ufoEpCNfzhhUC2e6s-57" value="n4" style="ellipse;whiteSpace=wrap;html=1;aspect=fixed;container=0;fillColor=none;" parent="1" vertex="1">
          <mxGeometry x="1413" y="691" width="30" height="30" as="geometry" />
        </mxCell>
        <mxCell id="IC8ufoEpCNfzhhUC2e6s-58" style="edgeStyle=orthogonalEdgeStyle;rounded=0;orthogonalLoop=1;jettySize=auto;html=1;exitX=1;exitY=0.5;exitDx=0;exitDy=0;entryX=0;entryY=0.5;entryDx=0;entryDy=0;fillColor=#33FF33;strokeColor=#33FF33;" parent="1" source="IC8ufoEpCNfzhhUC2e6s-59" target="IC8ufoEpCNfzhhUC2e6s-60" edge="1">
          <mxGeometry relative="1" as="geometry" />
        </mxCell>
        <mxCell id="IC8ufoEpCNfzhhUC2e6s-59" value="n4" style="ellipse;whiteSpace=wrap;html=1;aspect=fixed;container=0;fillColor=none;" parent="1" vertex="1">
          <mxGeometry x="1493" y="691" width="30" height="30" as="geometry" />
        </mxCell>
        <mxCell id="IC8ufoEpCNfzhhUC2e6s-60" value="n5" style="ellipse;whiteSpace=wrap;html=1;aspect=fixed;container=0;fillColor=none;" parent="1" vertex="1">
          <mxGeometry x="1573" y="691" width="30" height="30" as="geometry" />
        </mxCell>
        <mxCell id="IC8ufoEpCNfzhhUC2e6s-63" value="e2" style="text;strokeColor=none;align=center;fillColor=none;html=1;verticalAlign=middle;whiteSpace=wrap;rounded=0;" parent="1" vertex="1">
          <mxGeometry x="1023" y="679" width="60" height="30" as="geometry" />
        </mxCell>
        <mxCell id="IC8ufoEpCNfzhhUC2e6s-64" value="e1" style="text;strokeColor=none;align=center;fillColor=none;html=1;verticalAlign=middle;whiteSpace=wrap;rounded=0;" parent="1" vertex="1">
          <mxGeometry x="1208" y="679" width="27" height="30" as="geometry" />
        </mxCell>
        <mxCell id="IC8ufoEpCNfzhhUC2e6s-65" value="e3" style="text;strokeColor=none;align=center;fillColor=none;html=1;verticalAlign=middle;whiteSpace=wrap;rounded=0;" parent="1" vertex="1">
          <mxGeometry x="1367" y="679" width="27" height="30" as="geometry" />
        </mxCell>
        <mxCell id="IC8ufoEpCNfzhhUC2e6s-66" value="e5" style="text;strokeColor=none;align=center;fillColor=none;html=1;verticalAlign=middle;whiteSpace=wrap;rounded=0;" parent="1" vertex="1">
          <mxGeometry x="1513" y="679" width="60" height="30" as="geometry" />
        </mxCell>
        <mxCell id="IC8ufoEpCNfzhhUC2e6s-73" value="&lt;b&gt;T1999 rule1(R1)&lt;/b&gt;" style="text;strokeColor=none;align=center;fillColor=none;html=1;verticalAlign=middle;whiteSpace=wrap;rounded=0;" parent="1" vertex="1">
          <mxGeometry x="936" y="575.5" width="97" height="30" as="geometry" />
        </mxCell>
        <mxCell id="IC8ufoEpCNfzhhUC2e6s-74" value="&lt;b&gt;T1999 rule2(R2)&lt;/b&gt;" style="text;strokeColor=none;align=center;fillColor=none;html=1;verticalAlign=middle;whiteSpace=wrap;rounded=0;" parent="1" vertex="1">
          <mxGeometry x="935" y="745.5" width="97" height="30" as="geometry" />
        </mxCell>
        <mxCell id="IC8ufoEpCNfzhhUC2e6s-75" value="&lt;b&gt;TKG&amp;nbsp; T1999 Order&lt;br&gt;&lt;/b&gt;" style="text;strokeColor=none;align=center;fillColor=none;html=1;verticalAlign=middle;whiteSpace=wrap;rounded=0;" parent="1" vertex="1">
          <mxGeometry x="290" y="740" width="140" height="30" as="geometry" />
        </mxCell>
        <mxCell id="IC8ufoEpCNfzhhUC2e6s-78" value="&lt;b&gt;&lt;font style=&quot;font-size: 24px;&quot;&gt;Graph Info&lt;br&gt;&lt;/font&gt;&lt;/b&gt;" style="text;strokeColor=none;align=center;fillColor=none;html=1;verticalAlign=middle;whiteSpace=wrap;rounded=0;" parent="1" vertex="1">
          <mxGeometry x="255" y="830" width="205" height="30" as="geometry" />
        </mxCell>
        <mxCell id="IC8ufoEpCNfzhhUC2e6s-79" value="" style="shape=flexArrow;endArrow=classic;html=1;rounded=0;width=40.76923076923077;endSize=12.026923076923076;endWidth=66.88;" parent="1" edge="1">
          <mxGeometry width="50" height="50" relative="1" as="geometry">
            <mxPoint x="750" y="499.81" as="sourcePoint" />
            <mxPoint x="810" y="499.81" as="targetPoint" />
          </mxGeometry>
        </mxCell>
        <mxCell id="IC8ufoEpCNfzhhUC2e6s-81" value="" style="endArrow=classic;html=1;rounded=0;exitX=1;exitY=0.5;exitDx=0;exitDy=0;entryX=0;entryY=0.5;entryDx=0;entryDy=0;" parent="1" source="IC8ufoEpCNfzhhUC2e6s-82" target="IC8ufoEpCNfzhhUC2e6s-83" edge="1">
          <mxGeometry width="50" height="50" relative="1" as="geometry">
            <mxPoint x="1244" y="655.5" as="sourcePoint" />
            <mxPoint x="1064" y="795.5" as="targetPoint" />
          </mxGeometry>
        </mxCell>
        <mxCell id="IC8ufoEpCNfzhhUC2e6s-82" value="S1" style="ellipse;whiteSpace=wrap;html=1;aspect=fixed;container=0;fillColor=none;strokeColor=#FF0000;" parent="1" vertex="1">
          <mxGeometry x="1159" y="575.5" width="30" height="30" as="geometry" />
        </mxCell>
        <mxCell id="IC8ufoEpCNfzhhUC2e6s-83" value="S2" style="ellipse;whiteSpace=wrap;html=1;aspect=fixed;container=0;fillColor=none;strokeColor=#0000FF;" parent="1" vertex="1">
          <mxGeometry x="1234" y="575.5" width="30" height="30" as="geometry" />
        </mxCell>
        <mxCell id="IC8ufoEpCNfzhhUC2e6s-84" value="S3" style="ellipse;whiteSpace=wrap;html=1;aspect=fixed;container=0;fillColor=none;strokeColor=#0000FF;" parent="1" vertex="1">
          <mxGeometry x="1314" y="575.5" width="30" height="30" as="geometry" />
        </mxCell>
        <mxCell id="IC8ufoEpCNfzhhUC2e6s-85" value="" style="endArrow=classic;html=1;rounded=0;exitX=1;exitY=0.5;exitDx=0;exitDy=0;entryX=0;entryY=0.5;entryDx=0;entryDy=0;" parent="1" source="IC8ufoEpCNfzhhUC2e6s-83" target="IC8ufoEpCNfzhhUC2e6s-84" edge="1">
          <mxGeometry width="50" height="50" relative="1" as="geometry">
            <mxPoint x="1199" y="600.5" as="sourcePoint" />
            <mxPoint x="1244" y="600.5" as="targetPoint" />
          </mxGeometry>
        </mxCell>
        <mxCell id="IC8ufoEpCNfzhhUC2e6s-86" value="" style="endArrow=classic;html=1;rounded=0;exitX=1;exitY=0.5;exitDx=0;exitDy=0;entryX=0;entryY=0.5;entryDx=0;entryDy=0;" parent="1" edge="1">
          <mxGeometry width="50" height="50" relative="1" as="geometry">
            <mxPoint x="1114" y="591.6700000000001" as="sourcePoint" />
            <mxPoint x="1159" y="591.6700000000001" as="targetPoint" />
          </mxGeometry>
        </mxCell>
        <mxCell id="IC8ufoEpCNfzhhUC2e6s-87" value="" style="endArrow=classic;html=1;rounded=0;exitX=1;exitY=0.5;exitDx=0;exitDy=0;entryX=0;entryY=0.5;entryDx=0;entryDy=0;" parent="1" edge="1">
          <mxGeometry width="50" height="50" relative="1" as="geometry">
            <mxPoint x="1114" y="591.6700000000001" as="sourcePoint" />
            <mxPoint x="1159" y="591.6700000000001" as="targetPoint" />
          </mxGeometry>
        </mxCell>
        <mxCell id="IC8ufoEpCNfzhhUC2e6s-88" value="S4" style="ellipse;whiteSpace=wrap;html=1;aspect=fixed;container=0;fillColor=none;strokeColor=#0000FF;" parent="1" vertex="1">
          <mxGeometry x="1394" y="575.5" width="30" height="30" as="geometry" />
        </mxCell>
        <mxCell id="IC8ufoEpCNfzhhUC2e6s-89" value="" style="endArrow=classic;html=1;rounded=0;entryX=0;entryY=0.5;entryDx=0;entryDy=0;exitX=1;exitY=0.5;exitDx=0;exitDy=0;" parent="1" source="IC8ufoEpCNfzhhUC2e6s-84" target="IC8ufoEpCNfzhhUC2e6s-88" edge="1">
          <mxGeometry width="50" height="50" relative="1" as="geometry">
            <mxPoint x="1352" y="600.5" as="sourcePoint" />
            <mxPoint x="1324" y="600.5" as="targetPoint" />
          </mxGeometry>
        </mxCell>
        <mxCell id="IC8ufoEpCNfzhhUC2e6s-90" value="S0+SP1" style="text;strokeColor=none;align=center;fillColor=none;html=1;verticalAlign=middle;whiteSpace=wrap;rounded=0;" parent="1" vertex="1">
          <mxGeometry x="1106" y="568" width="60" height="30" as="geometry" />
        </mxCell>
        <mxCell id="IC8ufoEpCNfzhhUC2e6s-91" value="S0" style="ellipse;whiteSpace=wrap;html=1;aspect=fixed;strokeColor=#FF0000;" parent="1" vertex="1">
          <mxGeometry x="1086" y="575.5" width="30" height="30" as="geometry" />
        </mxCell>
        <mxCell id="IC8ufoEpCNfzhhUC2e6s-92" value="S5" style="ellipse;whiteSpace=wrap;html=1;aspect=fixed;container=0;fillColor=none;strokeColor=#33FF33;" parent="1" vertex="1">
          <mxGeometry x="1466" y="575.5" width="30" height="30" as="geometry" />
        </mxCell>
        <mxCell id="IC8ufoEpCNfzhhUC2e6s-93" value="" style="endArrow=classic;html=1;rounded=0;entryX=0;entryY=0.5;entryDx=0;entryDy=0;exitX=1;exitY=0.5;exitDx=0;exitDy=0;" parent="1" source="IC8ufoEpCNfzhhUC2e6s-88" target="IC8ufoEpCNfzhhUC2e6s-92" edge="1">
          <mxGeometry width="50" height="50" relative="1" as="geometry">
            <mxPoint x="1156" y="602.5" as="sourcePoint" />
            <mxPoint x="1206" y="552.5" as="targetPoint" />
          </mxGeometry>
        </mxCell>
        <mxCell id="IC8ufoEpCNfzhhUC2e6s-94" value="S1+AP2" style="text;strokeColor=none;align=center;fillColor=none;html=1;verticalAlign=middle;whiteSpace=wrap;rounded=0;" parent="1" vertex="1">
          <mxGeometry x="1182" y="565.5" width="60" height="30" as="geometry" />
        </mxCell>
        <mxCell id="IC8ufoEpCNfzhhUC2e6s-95" value="S1+AP1" style="text;strokeColor=none;align=center;fillColor=none;html=1;verticalAlign=middle;whiteSpace=wrap;rounded=0;" parent="1" vertex="1">
          <mxGeometry x="1259" y="565.5" width="60" height="30" as="geometry" />
        </mxCell>
        <mxCell id="IC8ufoEpCNfzhhUC2e6s-96" value="S1+AP3" style="text;strokeColor=none;align=center;fillColor=none;html=1;verticalAlign=middle;whiteSpace=wrap;rounded=0;" parent="1" vertex="1">
          <mxGeometry x="1337" y="565" width="60" height="30" as="geometry" />
        </mxCell>
        <mxCell id="IC8ufoEpCNfzhhUC2e6s-97" value="S2+AP4" style="text;strokeColor=none;align=center;fillColor=none;html=1;verticalAlign=middle;whiteSpace=wrap;rounded=0;" parent="1" vertex="1">
          <mxGeometry x="1415" y="564.5" width="60" height="30" as="geometry" />
        </mxCell>
        <mxCell id="IC8ufoEpCNfzhhUC2e6s-118" value="e&lt;font style=&quot;font-size: 8px;&quot;&gt;t&lt;/font&gt;" style="text;strokeColor=none;align=center;fillColor=none;html=1;verticalAlign=middle;whiteSpace=wrap;rounded=0;" parent="1" vertex="1">
          <mxGeometry x="1022" y="170" width="60" height="30" as="geometry" />
        </mxCell>
        <mxCell id="IC8ufoEpCNfzhhUC2e6s-122" value="e&lt;font style=&quot;font-size: 8px;&quot;&gt;t&lt;/font&gt;" style="text;strokeColor=none;align=center;fillColor=none;html=1;verticalAlign=middle;whiteSpace=wrap;rounded=0;" parent="1" vertex="1">
          <mxGeometry x="1223" y="170" width="60" height="30" as="geometry" />
        </mxCell>
        <mxCell id="IC8ufoEpCNfzhhUC2e6s-115" style="edgeStyle=orthogonalEdgeStyle;rounded=0;orthogonalLoop=1;jettySize=auto;html=1;exitX=1;exitY=0.5;exitDx=0;exitDy=0;entryX=0;entryY=0.5;entryDx=0;entryDy=0;strokeColor=#000000;" parent="1" source="IC8ufoEpCNfzhhUC2e6s-116" target="IC8ufoEpCNfzhhUC2e6s-117" edge="1">
          <mxGeometry relative="1" as="geometry" />
        </mxCell>
        <mxCell id="IC8ufoEpCNfzhhUC2e6s-116" value="n&lt;font style=&quot;font-size: 8px;&quot;&gt;m&lt;/font&gt;" style="ellipse;whiteSpace=wrap;html=1;aspect=fixed;container=0;fillColor=none;" parent="1" vertex="1">
          <mxGeometry x="1002" y="180" width="30" height="30" as="geometry" />
        </mxCell>
        <mxCell id="IC8ufoEpCNfzhhUC2e6s-117" value="n&lt;font style=&quot;font-size: 8px;&quot;&gt;n&lt;/font&gt;" style="ellipse;whiteSpace=wrap;html=1;aspect=fixed;container=0;fillColor=none;" parent="1" vertex="1">
          <mxGeometry x="1082" y="180" width="30" height="30" as="geometry" />
        </mxCell>
        <mxCell id="IC8ufoEpCNfzhhUC2e6s-119" style="edgeStyle=orthogonalEdgeStyle;rounded=0;orthogonalLoop=1;jettySize=auto;html=1;exitX=1;exitY=0.5;exitDx=0;exitDy=0;entryX=0;entryY=0.5;entryDx=0;entryDy=0;strokeColor=#000000;" parent="1" edge="1">
          <mxGeometry relative="1" as="geometry">
            <mxPoint x="1233.0000000000034" y="195" as="sourcePoint" />
            <mxPoint x="1282.9999999999968" y="195" as="targetPoint" />
          </mxGeometry>
        </mxCell>
        <mxCell id="IC8ufoEpCNfzhhUC2e6s-120" value="n&lt;font style=&quot;font-size: 8px;&quot;&gt;m&lt;/font&gt;" style="ellipse;whiteSpace=wrap;html=1;aspect=fixed;container=0;fillColor=none;" parent="1" vertex="1">
          <mxGeometry x="1203" y="180" width="30" height="30" as="geometry" />
        </mxCell>
        <mxCell id="IC8ufoEpCNfzhhUC2e6s-121" value="n&lt;font style=&quot;font-size: 8px;&quot;&gt;n&lt;/font&gt;" style="ellipse;whiteSpace=wrap;html=1;aspect=fixed;container=0;fillColor=none;" parent="1" vertex="1">
          <mxGeometry x="1283" y="180" width="30" height="30" as="geometry" />
        </mxCell>
        <mxCell id="IC8ufoEpCNfzhhUC2e6s-124" value="" style="shape=flexArrow;endArrow=classic;html=1;rounded=0;width=12.916666666666668;endSize=5.6625000000000005;endWidth=19.54861111111111;" parent="1" edge="1">
          <mxGeometry width="50" height="50" relative="1" as="geometry">
            <mxPoint x="1142" y="195.22" as="sourcePoint" />
            <mxPoint x="1172" y="194.79" as="targetPoint" />
          </mxGeometry>
        </mxCell>
        <mxCell id="IC8ufoEpCNfzhhUC2e6s-129" value="&lt;font style=&quot;font-size: 9px;&quot;&gt;Subject&lt;/font&gt;" style="text;strokeColor=none;align=center;fillColor=none;html=1;verticalAlign=middle;whiteSpace=wrap;rounded=0;" parent="1" vertex="1">
          <mxGeometry x="1188" y="144" width="60" height="30" as="geometry" />
        </mxCell>
        <mxCell id="IC8ufoEpCNfzhhUC2e6s-130" value="&lt;font style=&quot;font-size: 9px;&quot;&gt;Edge&lt;/font&gt;" style="text;strokeColor=none;align=center;fillColor=none;html=1;verticalAlign=middle;whiteSpace=wrap;rounded=0;" parent="1" vertex="1">
          <mxGeometry x="1227" y="144" width="60" height="30" as="geometry" />
        </mxCell>
        <mxCell id="IC8ufoEpCNfzhhUC2e6s-131" value="&lt;font style=&quot;font-size: 9px;&quot;&gt;Object&lt;/font&gt;" style="text;strokeColor=none;align=center;fillColor=none;html=1;verticalAlign=middle;whiteSpace=wrap;rounded=0;" parent="1" vertex="1">
          <mxGeometry x="1267" y="143" width="60" height="30" as="geometry" />
        </mxCell>
        <mxCell id="IC8ufoEpCNfzhhUC2e6s-133" value="" style="rounded=1;whiteSpace=wrap;html=1;" parent="1" vertex="1">
          <mxGeometry x="1462" y="153" width="78" height="60" as="geometry" />
        </mxCell>
        <mxCell id="IC8ufoEpCNfzhhUC2e6s-134" value="" style="rounded=1;whiteSpace=wrap;html=1;" parent="1" vertex="1">
          <mxGeometry x="1421" y="153" width="34" height="60" as="geometry" />
        </mxCell>
        <mxCell id="IC8ufoEpCNfzhhUC2e6s-135" value="e&lt;font style=&quot;font-size: 8px;&quot;&gt;t&lt;/font&gt;" style="text;strokeColor=none;align=center;fillColor=none;html=1;verticalAlign=middle;whiteSpace=wrap;rounded=0;" parent="1" vertex="1">
          <mxGeometry x="1443" y="171" width="60" height="30" as="geometry" />
        </mxCell>
        <mxCell id="IC8ufoEpCNfzhhUC2e6s-136" style="edgeStyle=orthogonalEdgeStyle;rounded=0;orthogonalLoop=1;jettySize=auto;html=1;exitX=1;exitY=0.5;exitDx=0;exitDy=0;entryX=0;entryY=0.5;entryDx=0;entryDy=0;strokeColor=#000000;" parent="1" edge="1">
          <mxGeometry relative="1" as="geometry">
            <mxPoint x="1453.0000000000034" y="196" as="sourcePoint" />
            <mxPoint x="1502.9999999999968" y="196" as="targetPoint" />
          </mxGeometry>
        </mxCell>
        <mxCell id="IC8ufoEpCNfzhhUC2e6s-137" value="n&lt;font style=&quot;font-size: 8px;&quot;&gt;m&lt;/font&gt;" style="ellipse;whiteSpace=wrap;html=1;aspect=fixed;container=0;fillColor=none;" parent="1" vertex="1">
          <mxGeometry x="1423" y="181" width="30" height="30" as="geometry" />
        </mxCell>
        <mxCell id="IC8ufoEpCNfzhhUC2e6s-138" value="n&lt;font style=&quot;font-size: 8px;&quot;&gt;n&lt;/font&gt;" style="ellipse;whiteSpace=wrap;html=1;aspect=fixed;container=0;fillColor=none;" parent="1" vertex="1">
          <mxGeometry x="1503" y="181" width="30" height="30" as="geometry" />
        </mxCell>
        <mxCell id="IC8ufoEpCNfzhhUC2e6s-139" value="&lt;font style=&quot;font-size: 9px;&quot;&gt;Subject&lt;/font&gt;" style="text;strokeColor=none;align=center;fillColor=none;html=1;verticalAlign=middle;whiteSpace=wrap;rounded=0;" parent="1" vertex="1">
          <mxGeometry x="1408" y="145" width="60" height="30" as="geometry" />
        </mxCell>
        <mxCell id="IC8ufoEpCNfzhhUC2e6s-140" value="&lt;font style=&quot;font-size: 9px;&quot;&gt;Action t&lt;br&gt;&lt;/font&gt;" style="text;strokeColor=none;align=center;fillColor=none;html=1;verticalAlign=middle;whiteSpace=wrap;rounded=0;" parent="1" vertex="1">
          <mxGeometry x="1473" y="145" width="60" height="30" as="geometry" />
        </mxCell>
        <mxCell id="IC8ufoEpCNfzhhUC2e6s-142" value="" style="shape=flexArrow;endArrow=classic;html=1;rounded=0;width=12.916666666666668;endSize=5.6625000000000005;endWidth=19.54861111111111;" parent="1" edge="1">
          <mxGeometry width="50" height="50" relative="1" as="geometry">
            <mxPoint x="1351" y="195.18" as="sourcePoint" />
            <mxPoint x="1381" y="194.75" as="targetPoint" />
          </mxGeometry>
        </mxCell>
        <mxCell id="IC8ufoEpCNfzhhUC2e6s-143" value="&lt;font style=&quot;font-size: 12px;&quot;&gt;Action=Edge+Object&lt;/font&gt;" style="text;strokeColor=none;align=center;fillColor=none;html=1;verticalAlign=middle;whiteSpace=wrap;rounded=0;" parent="1" vertex="1">
          <mxGeometry x="1443" y="210" width="60" height="30" as="geometry" />
        </mxCell>
        <mxCell id="IC8ufoEpCNfzhhUC2e6s-144" value="SOE" style="text;strokeColor=none;align=center;fillColor=none;html=1;verticalAlign=middle;whiteSpace=wrap;rounded=0;" parent="1" vertex="1">
          <mxGeometry x="1226" y="210" width="60" height="30" as="geometry" />
        </mxCell>
        <mxCell id="IC8ufoEpCNfzhhUC2e6s-145" value="三元组" style="text;strokeColor=none;align=center;fillColor=none;html=1;verticalAlign=middle;whiteSpace=wrap;rounded=0;" parent="1" vertex="1">
          <mxGeometry x="1022" y="208" width="60" height="30" as="geometry" />
        </mxCell>
        <mxCell id="IC8ufoEpCNfzhhUC2e6s-146" value="&lt;div align=&quot;left&quot;&gt;SP_n=Subject_n Pattern&lt;/div&gt;&lt;div align=&quot;left&quot;&gt;AP_t=Action_t Pattern&lt;/div&gt;&lt;div align=&quot;left&quot;&gt;&amp;nbsp;&amp;nbsp;&amp;nbsp;&amp;nbsp;&amp;nbsp;&amp;nbsp;&amp;nbsp; =Edge_t pattern+Object_n pattern&lt;br&gt;&lt;/div&gt;" style="text;strokeColor=none;align=left;fillColor=none;html=1;verticalAlign=middle;whiteSpace=wrap;rounded=0;" parent="1" vertex="1">
          <mxGeometry x="951" y="256" width="268" height="56" as="geometry" />
        </mxCell>
        <mxCell id="IC8ufoEpCNfzhhUC2e6s-147" value="" style="endArrow=classic;html=1;rounded=0;exitX=1;exitY=0.5;exitDx=0;exitDy=0;entryX=0;entryY=0.5;entryDx=0;entryDy=0;" parent="1" source="IC8ufoEpCNfzhhUC2e6s-148" target="IC8ufoEpCNfzhhUC2e6s-149" edge="1">
          <mxGeometry width="50" height="50" relative="1" as="geometry">
            <mxPoint x="1253" y="825.5" as="sourcePoint" />
            <mxPoint x="1073" y="965.5" as="targetPoint" />
          </mxGeometry>
        </mxCell>
        <mxCell id="IC8ufoEpCNfzhhUC2e6s-148" value="S1" style="ellipse;whiteSpace=wrap;html=1;aspect=fixed;container=0;fillColor=none;strokeColor=#FF0000;" parent="1" vertex="1">
          <mxGeometry x="1168" y="745.5" width="30" height="30" as="geometry" />
        </mxCell>
        <mxCell id="IC8ufoEpCNfzhhUC2e6s-149" value="S2" style="ellipse;whiteSpace=wrap;html=1;aspect=fixed;container=0;fillColor=none;strokeColor=#0000FF;" parent="1" vertex="1">
          <mxGeometry x="1243" y="745.5" width="30" height="30" as="geometry" />
        </mxCell>
        <mxCell id="IC8ufoEpCNfzhhUC2e6s-150" value="S3" style="ellipse;whiteSpace=wrap;html=1;aspect=fixed;container=0;fillColor=none;strokeColor=#0000FF;" parent="1" vertex="1">
          <mxGeometry x="1323" y="745.5" width="30" height="30" as="geometry" />
        </mxCell>
        <mxCell id="IC8ufoEpCNfzhhUC2e6s-151" value="" style="endArrow=classic;html=1;rounded=0;exitX=1;exitY=0.5;exitDx=0;exitDy=0;entryX=0;entryY=0.5;entryDx=0;entryDy=0;" parent="1" source="IC8ufoEpCNfzhhUC2e6s-149" target="IC8ufoEpCNfzhhUC2e6s-150" edge="1">
          <mxGeometry width="50" height="50" relative="1" as="geometry">
            <mxPoint x="1208" y="770.5" as="sourcePoint" />
            <mxPoint x="1253" y="770.5" as="targetPoint" />
          </mxGeometry>
        </mxCell>
        <mxCell id="IC8ufoEpCNfzhhUC2e6s-152" value="" style="endArrow=classic;html=1;rounded=0;exitX=1;exitY=0.5;exitDx=0;exitDy=0;entryX=0;entryY=0.5;entryDx=0;entryDy=0;" parent="1" edge="1">
          <mxGeometry width="50" height="50" relative="1" as="geometry">
            <mxPoint x="1123" y="761.6700000000001" as="sourcePoint" />
            <mxPoint x="1168" y="761.6700000000001" as="targetPoint" />
          </mxGeometry>
        </mxCell>
        <mxCell id="IC8ufoEpCNfzhhUC2e6s-153" value="" style="endArrow=classic;html=1;rounded=0;exitX=1;exitY=0.5;exitDx=0;exitDy=0;entryX=0;entryY=0.5;entryDx=0;entryDy=0;" parent="1" edge="1">
          <mxGeometry width="50" height="50" relative="1" as="geometry">
            <mxPoint x="1123" y="761.6700000000001" as="sourcePoint" />
            <mxPoint x="1168" y="761.6700000000001" as="targetPoint" />
          </mxGeometry>
        </mxCell>
        <mxCell id="IC8ufoEpCNfzhhUC2e6s-154" value="S4" style="ellipse;whiteSpace=wrap;html=1;aspect=fixed;container=0;fillColor=none;strokeColor=#0000FF;" parent="1" vertex="1">
          <mxGeometry x="1403" y="745.5" width="30" height="30" as="geometry" />
        </mxCell>
        <mxCell id="IC8ufoEpCNfzhhUC2e6s-155" value="" style="endArrow=classic;html=1;rounded=0;entryX=0;entryY=0.5;entryDx=0;entryDy=0;exitX=1;exitY=0.5;exitDx=0;exitDy=0;" parent="1" source="IC8ufoEpCNfzhhUC2e6s-150" target="IC8ufoEpCNfzhhUC2e6s-154" edge="1">
          <mxGeometry width="50" height="50" relative="1" as="geometry">
            <mxPoint x="1361" y="770.5" as="sourcePoint" />
            <mxPoint x="1333" y="770.5" as="targetPoint" />
          </mxGeometry>
        </mxCell>
        <mxCell id="IC8ufoEpCNfzhhUC2e6s-156" value="S0+SP1" style="text;strokeColor=none;align=center;fillColor=none;html=1;verticalAlign=middle;whiteSpace=wrap;rounded=0;" parent="1" vertex="1">
          <mxGeometry x="1115" y="738" width="60" height="30" as="geometry" />
        </mxCell>
        <mxCell id="IC8ufoEpCNfzhhUC2e6s-157" value="S0" style="ellipse;whiteSpace=wrap;html=1;aspect=fixed;strokeColor=#FF0000;" parent="1" vertex="1">
          <mxGeometry x="1095" y="745.5" width="30" height="30" as="geometry" />
        </mxCell>
        <mxCell id="IC8ufoEpCNfzhhUC2e6s-158" value="S5" style="ellipse;whiteSpace=wrap;html=1;aspect=fixed;container=0;fillColor=none;strokeColor=#33FF33;" parent="1" vertex="1">
          <mxGeometry x="1475" y="745.5" width="30" height="30" as="geometry" />
        </mxCell>
        <mxCell id="IC8ufoEpCNfzhhUC2e6s-159" value="" style="endArrow=classic;html=1;rounded=0;entryX=0;entryY=0.5;entryDx=0;entryDy=0;exitX=1;exitY=0.5;exitDx=0;exitDy=0;" parent="1" source="IC8ufoEpCNfzhhUC2e6s-154" target="IC8ufoEpCNfzhhUC2e6s-158" edge="1">
          <mxGeometry width="50" height="50" relative="1" as="geometry">
            <mxPoint x="1165" y="772.5" as="sourcePoint" />
            <mxPoint x="1215" y="722.5" as="targetPoint" />
          </mxGeometry>
        </mxCell>
        <mxCell id="IC8ufoEpCNfzhhUC2e6s-160" value="S1+AP2" style="text;strokeColor=none;align=center;fillColor=none;html=1;verticalAlign=middle;whiteSpace=wrap;rounded=0;" parent="1" vertex="1">
          <mxGeometry x="1191" y="735.5" width="60" height="30" as="geometry" />
        </mxCell>
        <mxCell id="IC8ufoEpCNfzhhUC2e6s-161" value="S1+AP1" style="text;strokeColor=none;align=center;fillColor=none;html=1;verticalAlign=middle;whiteSpace=wrap;rounded=0;" parent="1" vertex="1">
          <mxGeometry x="1268" y="735.5" width="60" height="30" as="geometry" />
        </mxCell>
        <mxCell id="IC8ufoEpCNfzhhUC2e6s-162" value="S1+AP3" style="text;strokeColor=none;align=center;fillColor=none;html=1;verticalAlign=middle;whiteSpace=wrap;rounded=0;" parent="1" vertex="1">
          <mxGeometry x="1346" y="735" width="60" height="30" as="geometry" />
        </mxCell>
        <mxCell id="IC8ufoEpCNfzhhUC2e6s-163" value="S4+AP5" style="text;strokeColor=none;align=center;fillColor=none;html=1;verticalAlign=middle;whiteSpace=wrap;rounded=0;" parent="1" vertex="1">
          <mxGeometry x="1424" y="734.5" width="60" height="30" as="geometry" />
        </mxCell>
        <mxCell id="IC8ufoEpCNfzhhUC2e6s-182" value="&lt;b&gt;&lt;font style=&quot;font-size: 24px;&quot;&gt;State Machine Rule&lt;br&gt;&lt;/font&gt;&lt;/b&gt;" style="text;strokeColor=none;align=center;fillColor=none;html=1;verticalAlign=middle;whiteSpace=wrap;rounded=0;" parent="1" vertex="1">
          <mxGeometry x="1155" y="830" width="269" height="30" as="geometry" />
        </mxCell>
        <mxCell id="IC8ufoEpCNfzhhUC2e6s-183" value="&lt;b&gt;&lt;font style=&quot;font-size: 24px;&quot;&gt;Background Info&lt;/font&gt;&lt;font style=&quot;font-size: 24px;&quot;&gt;&lt;br&gt;&lt;/font&gt;&lt;/b&gt;" style="text;strokeColor=none;align=center;fillColor=none;html=1;verticalAlign=middle;whiteSpace=wrap;rounded=0;" parent="1" vertex="1">
          <mxGeometry x="1202" y="334" width="205" height="30" as="geometry" />
        </mxCell>
        <mxCell id="IC8ufoEpCNfzhhUC2e6s-219" style="edgeStyle=orthogonalEdgeStyle;rounded=0;orthogonalLoop=1;jettySize=auto;html=1;exitX=0.5;exitY=1;exitDx=0;exitDy=0;entryX=0.5;entryY=0;entryDx=0;entryDy=0;" parent="1" source="IC8ufoEpCNfzhhUC2e6s-222" target="IC8ufoEpCNfzhhUC2e6s-225" edge="1">
          <mxGeometry relative="1" as="geometry" />
        </mxCell>
        <mxCell id="IC8ufoEpCNfzhhUC2e6s-253" value="AP1" style="edgeLabel;html=1;align=center;verticalAlign=middle;resizable=0;points=[];" parent="IC8ufoEpCNfzhhUC2e6s-219" vertex="1" connectable="0">
          <mxGeometry x="-0.0935" relative="1" as="geometry">
            <mxPoint as="offset" />
          </mxGeometry>
        </mxCell>
        <mxCell id="IC8ufoEpCNfzhhUC2e6s-220" style="rounded=0;orthogonalLoop=1;jettySize=auto;html=1;exitX=0.5;exitY=1;exitDx=0;exitDy=0;entryX=0.5;entryY=0;entryDx=0;entryDy=0;" parent="1" source="IC8ufoEpCNfzhhUC2e6s-222" target="IC8ufoEpCNfzhhUC2e6s-226" edge="1">
          <mxGeometry relative="1" as="geometry" />
        </mxCell>
        <mxCell id="IC8ufoEpCNfzhhUC2e6s-255" value="AP3" style="edgeLabel;html=1;align=center;verticalAlign=middle;resizable=0;points=[];" parent="IC8ufoEpCNfzhhUC2e6s-220" vertex="1" connectable="0">
          <mxGeometry x="0.0143" relative="1" as="geometry">
            <mxPoint as="offset" />
          </mxGeometry>
        </mxCell>
        <mxCell id="IC8ufoEpCNfzhhUC2e6s-221" style="rounded=0;orthogonalLoop=1;jettySize=auto;html=1;exitX=0.5;exitY=1;exitDx=0;exitDy=0;entryX=0.5;entryY=0;entryDx=0;entryDy=0;" parent="1" source="IC8ufoEpCNfzhhUC2e6s-222" target="IC8ufoEpCNfzhhUC2e6s-227" edge="1">
          <mxGeometry relative="1" as="geometry" />
        </mxCell>
        <mxCell id="IC8ufoEpCNfzhhUC2e6s-251" value="&lt;font color=&quot;#ff0000&quot;&gt;SP1,AP2&lt;/font&gt;" style="edgeLabel;html=1;align=center;verticalAlign=middle;resizable=0;points=[];" parent="IC8ufoEpCNfzhhUC2e6s-221" vertex="1" connectable="0">
          <mxGeometry x="0.1236" y="2" relative="1" as="geometry">
            <mxPoint as="offset" />
          </mxGeometry>
        </mxCell>
        <mxCell id="IC8ufoEpCNfzhhUC2e6s-222" value="" style="ellipse;whiteSpace=wrap;html=1;aspect=fixed;container=0;fillColor=none;" parent="1" vertex="1">
          <mxGeometry x="629" y="1319" width="30" height="30" as="geometry" />
        </mxCell>
        <mxCell id="IC8ufoEpCNfzhhUC2e6s-225" value="log3" style="ellipse;whiteSpace=wrap;html=1;aspect=fixed;container=0;fillColor=none;" parent="1" vertex="1">
          <mxGeometry x="629" y="1414" width="30" height="30" as="geometry" />
        </mxCell>
        <mxCell id="IC8ufoEpCNfzhhUC2e6s-226" value="log5" style="ellipse;whiteSpace=wrap;html=1;aspect=fixed;container=0;fillColor=none;" parent="1" vertex="1">
          <mxGeometry x="779" y="1414" width="30" height="30" as="geometry" />
        </mxCell>
        <mxCell id="IC8ufoEpCNfzhhUC2e6s-227" value="log1" style="ellipse;whiteSpace=wrap;html=1;aspect=fixed;container=0;fillColor=none;" parent="1" vertex="1">
          <mxGeometry x="447" y="1415" width="30" height="30" as="geometry" />
        </mxCell>
        <mxCell id="IC8ufoEpCNfzhhUC2e6s-228" value="log6" style="ellipse;whiteSpace=wrap;html=1;aspect=fixed;container=0;fillColor=none;" parent="1" vertex="1">
          <mxGeometry x="447" y="1520" width="30" height="30" as="geometry" />
        </mxCell>
        <mxCell id="IC8ufoEpCNfzhhUC2e6s-259" style="rounded=0;orthogonalLoop=1;jettySize=auto;html=1;exitX=0.5;exitY=1;exitDx=0;exitDy=0;entryX=0.5;entryY=0;entryDx=0;entryDy=0;" parent="1" source="IC8ufoEpCNfzhhUC2e6s-229" target="IC8ufoEpCNfzhhUC2e6s-257" edge="1">
          <mxGeometry relative="1" as="geometry" />
        </mxCell>
        <mxCell id="IC8ufoEpCNfzhhUC2e6s-229" value="log2" style="ellipse;whiteSpace=wrap;html=1;aspect=fixed;container=0;fillColor=none;" parent="1" vertex="1">
          <mxGeometry x="293" y="1520" width="30" height="30" as="geometry" />
        </mxCell>
        <mxCell id="IC8ufoEpCNfzhhUC2e6s-230" value="" style="endArrow=classic;html=1;rounded=0;exitX=0.5;exitY=1;exitDx=0;exitDy=0;entryX=0.5;entryY=0;entryDx=0;entryDy=0;" parent="1" source="IC8ufoEpCNfzhhUC2e6s-227" target="IC8ufoEpCNfzhhUC2e6s-229" edge="1">
          <mxGeometry width="50" height="50" relative="1" as="geometry">
            <mxPoint x="445" y="1570" as="sourcePoint" />
            <mxPoint x="495" y="1520" as="targetPoint" />
          </mxGeometry>
        </mxCell>
        <mxCell id="IC8ufoEpCNfzhhUC2e6s-231" value="" style="endArrow=classic;html=1;rounded=0;exitX=0.5;exitY=1;exitDx=0;exitDy=0;entryX=0.5;entryY=0;entryDx=0;entryDy=0;" parent="1" source="IC8ufoEpCNfzhhUC2e6s-227" target="IC8ufoEpCNfzhhUC2e6s-228" edge="1">
          <mxGeometry width="50" height="50" relative="1" as="geometry">
            <mxPoint x="455" y="1580" as="sourcePoint" />
            <mxPoint x="505" y="1530" as="targetPoint" />
          </mxGeometry>
        </mxCell>
        <mxCell id="IC8ufoEpCNfzhhUC2e6s-262" value="AP4，&lt;font color=&quot;#ff0000&quot;&gt;SPn，APm&lt;/font&gt;" style="edgeLabel;html=1;align=center;verticalAlign=middle;resizable=0;points=[];" parent="IC8ufoEpCNfzhhUC2e6s-231" vertex="1" connectable="0">
          <mxGeometry x="0.0293" relative="1" as="geometry">
            <mxPoint as="offset" />
          </mxGeometry>
        </mxCell>
        <mxCell id="IC8ufoEpCNfzhhUC2e6s-232" value="log7" style="ellipse;whiteSpace=wrap;html=1;aspect=fixed;container=0;fillColor=none;" parent="1" vertex="1">
          <mxGeometry x="357" y="1630" width="30" height="30" as="geometry" />
        </mxCell>
        <mxCell id="IC8ufoEpCNfzhhUC2e6s-233" value="" style="endArrow=classic;html=1;rounded=0;exitX=0.5;exitY=1;exitDx=0;exitDy=0;entryX=0.5;entryY=0;entryDx=0;entryDy=0;" parent="1" source="IC8ufoEpCNfzhhUC2e6s-228" target="IC8ufoEpCNfzhhUC2e6s-232" edge="1">
          <mxGeometry width="50" height="50" relative="1" as="geometry">
            <mxPoint x="502" y="1486" as="sourcePoint" />
            <mxPoint x="392" y="1530" as="targetPoint" />
          </mxGeometry>
        </mxCell>
        <mxCell id="IC8ufoEpCNfzhhUC2e6s-264" value="AP66" style="edgeLabel;html=1;align=center;verticalAlign=middle;resizable=0;points=[];" parent="IC8ufoEpCNfzhhUC2e6s-233" vertex="1" connectable="0">
          <mxGeometry x="-0.0363" y="1" relative="1" as="geometry">
            <mxPoint as="offset" />
          </mxGeometry>
        </mxCell>
        <mxCell id="IC8ufoEpCNfzhhUC2e6s-234" value="" style="endArrow=classic;html=1;rounded=0;exitX=0.5;exitY=1;exitDx=0;exitDy=0;entryX=0.5;entryY=0;entryDx=0;entryDy=0;" parent="1" source="IC8ufoEpCNfzhhUC2e6s-228" target="IC8ufoEpCNfzhhUC2e6s-245" edge="1">
          <mxGeometry width="50" height="50" relative="1" as="geometry">
            <mxPoint x="512" y="1496" as="sourcePoint" />
            <mxPoint x="502" y="1591" as="targetPoint" />
          </mxGeometry>
        </mxCell>
        <mxCell id="IC8ufoEpCNfzhhUC2e6s-236" value="&lt;font color=&quot;#ff0000&quot;&gt;R1-S1&lt;/font&gt;、&lt;font color=&quot;#ff0000&quot;&gt;R2-S1&lt;/font&gt;" style="text;strokeColor=#000000;align=left;fillColor=none;html=1;verticalAlign=middle;whiteSpace=wrap;rounded=0;" parent="1" vertex="1">
          <mxGeometry x="673" y="1318" width="88" height="30" as="geometry" />
        </mxCell>
        <mxCell id="IC8ufoEpCNfzhhUC2e6s-237" value="&lt;font color=&quot;#0000ff&quot;&gt;R1-S2&lt;/font&gt;、&lt;font color=&quot;#0000ff&quot;&gt;R2-S2、&lt;/font&gt;&lt;font color=&quot;#ff0000&quot;&gt;Rn-S1&lt;/font&gt;" style="text;strokeColor=#000000;align=left;fillColor=none;html=1;verticalAlign=middle;whiteSpace=wrap;rounded=0;" parent="1" vertex="1">
          <mxGeometry x="480" y="1415" width="140" height="30" as="geometry" />
        </mxCell>
        <mxCell id="IC8ufoEpCNfzhhUC2e6s-238" value="&lt;font color=&quot;#33ff33&quot;&gt;&lt;b&gt;R1-S5&lt;/b&gt;&lt;/font&gt;、&lt;font color=&quot;#0000ff&quot;&gt;R2-S2&lt;/font&gt;、&lt;font color=&quot;#0000ff&quot;&gt;Rn-S2&lt;/font&gt;" style="text;strokeColor=#000000;align=left;fillColor=none;html=1;verticalAlign=middle;whiteSpace=wrap;rounded=0;" parent="1" vertex="1">
          <mxGeometry x="489" y="1520" width="142" height="30" as="geometry" />
        </mxCell>
        <mxCell id="IC8ufoEpCNfzhhUC2e6s-242" value="&lt;font color=&quot;#0000ff&quot;&gt;R1-S3&lt;/font&gt;、&lt;font color=&quot;#0000ff&quot;&gt;R2-S3&lt;/font&gt;" style="text;strokeColor=#000000;align=left;fillColor=none;html=1;verticalAlign=middle;whiteSpace=wrap;rounded=0;" parent="1" vertex="1">
          <mxGeometry x="660" y="1415" width="88" height="30" as="geometry" />
        </mxCell>
        <mxCell id="IC8ufoEpCNfzhhUC2e6s-243" value="&lt;font color=&quot;#0000ff&quot;&gt;R1-S4&lt;/font&gt;、&lt;font color=&quot;#0000ff&quot;&gt;R2-S4&lt;/font&gt;" style="text;strokeColor=#000000;align=left;fillColor=none;html=1;verticalAlign=middle;whiteSpace=wrap;rounded=0;" parent="1" vertex="1">
          <mxGeometry x="813" y="1414" width="88" height="30" as="geometry" />
        </mxCell>
        <mxCell id="IC8ufoEpCNfzhhUC2e6s-245" value="log8" style="ellipse;whiteSpace=wrap;html=1;aspect=fixed;container=0;fillColor=none;" parent="1" vertex="1">
          <mxGeometry x="560" y="1630" width="30" height="30" as="geometry" />
        </mxCell>
        <mxCell id="IC8ufoEpCNfzhhUC2e6s-246" value="&lt;div align=&quot;left&quot;&gt;&lt;b&gt;States for this process tree:&lt;/b&gt;&lt;/div&gt;&lt;div align=&quot;left&quot;&gt;&lt;br&gt;&lt;/div&gt;&lt;div align=&quot;left&quot;&gt;&lt;br&gt;&lt;/div&gt;&lt;div align=&quot;left&quot;&gt;log1:&amp;nbsp;&amp;nbsp;&amp;nbsp; R1-S2, R2-S2&lt;/div&gt;&lt;div align=&quot;left&quot;&gt;&lt;br&gt;&lt;/div&gt;&lt;div align=&quot;left&quot;&gt;log2:&amp;nbsp;&amp;nbsp;&amp;nbsp; R1-S2, R2-S2&lt;/div&gt;&lt;div align=&quot;left&quot;&gt;&lt;br&gt;&lt;/div&gt;&lt;div align=&quot;left&quot;&gt;log3:&amp;nbsp;&amp;nbsp;&amp;nbsp; R1-S3, R2-S3&lt;/div&gt;&lt;div align=&quot;left&quot;&gt;&lt;br&gt;&lt;/div&gt;&lt;div align=&quot;left&quot;&gt;log4:&amp;nbsp;&amp;nbsp;&amp;nbsp; R1-S3, R2-S3&lt;/div&gt;&lt;div align=&quot;left&quot;&gt;&lt;br&gt;&lt;/div&gt;&lt;div align=&quot;left&quot;&gt;log5: &amp;nbsp;&amp;nbsp; R1-S4, R2-S4&lt;/div&gt;&lt;div align=&quot;left&quot;&gt;&amp;nbsp;&lt;br&gt;&lt;/div&gt;&lt;div align=&quot;left&quot;&gt;log6: &amp;nbsp;&amp;nbsp; &lt;font color=&quot;#33ff33&quot;&gt;R1-S5&lt;/font&gt;, R2-S4, Rn-S2&lt;br&gt;&lt;/div&gt;&lt;div align=&quot;left&quot;&gt;&lt;br&gt;&lt;/div&gt;&lt;div align=&quot;left&quot;&gt;log7:&amp;nbsp;&amp;nbsp;&amp;nbsp; R2-S4, Rn-S3&lt;/div&gt;&lt;div align=&quot;left&quot;&gt;&lt;br&gt;&lt;/div&gt;&lt;div align=&quot;left&quot;&gt;log8:&amp;nbsp;&amp;nbsp;&amp;nbsp; R2-S4, Rn-S3&lt;div align=&quot;left&quot;&gt;&lt;br&gt;&lt;/div&gt;&lt;/div&gt;&lt;div align=&quot;left&quot;&gt;....&lt;/div&gt;&lt;div align=&quot;left&quot;&gt;&lt;br&gt;&lt;/div&gt;" style="text;strokeColor=#FF0000;align=left;fillColor=none;html=1;verticalAlign=middle;whiteSpace=wrap;rounded=0;" parent="1" vertex="1">
          <mxGeometry x="1147" y="1278.5" width="259" height="379" as="geometry" />
        </mxCell>
        <mxCell id="IC8ufoEpCNfzhhUC2e6s-247" value="" style="endArrow=classic;html=1;rounded=0;" parent="1" edge="1">
          <mxGeometry width="50" height="50" relative="1" as="geometry">
            <mxPoint x="1120" y="1276.5" as="sourcePoint" />
            <mxPoint x="1120" y="1647.5" as="targetPoint" />
          </mxGeometry>
        </mxCell>
        <mxCell id="IC8ufoEpCNfzhhUC2e6s-248" value="time, log" style="text;strokeColor=none;align=center;fillColor=none;html=1;verticalAlign=middle;whiteSpace=wrap;rounded=0;" parent="1" vertex="1">
          <mxGeometry x="1080" y="1647.5" width="60" height="30" as="geometry" />
        </mxCell>
        <mxCell id="IC8ufoEpCNfzhhUC2e6s-250" value="&lt;font style=&quot;font-size: 24px;&quot;&gt;&lt;b&gt;Process Tree的流匹配机制&lt;/b&gt;&lt;/font&gt;" style="text;strokeColor=none;align=center;fillColor=none;html=1;verticalAlign=middle;whiteSpace=wrap;rounded=0;" parent="1" vertex="1">
          <mxGeometry x="724" y="1160" width="345" height="30" as="geometry" />
        </mxCell>
        <mxCell id="IC8ufoEpCNfzhhUC2e6s-256" value="&lt;font color=&quot;#0000ff&quot;&gt;R1-S2&lt;/font&gt;、&lt;font color=&quot;#0000ff&quot;&gt;R2-S2&lt;/font&gt;" style="text;strokeColor=#000000;align=left;fillColor=none;html=1;verticalAlign=middle;whiteSpace=wrap;rounded=0;" parent="1" vertex="1">
          <mxGeometry x="328" y="1520" width="88" height="30" as="geometry" />
        </mxCell>
        <mxCell id="IC8ufoEpCNfzhhUC2e6s-257" value="log4" style="ellipse;whiteSpace=wrap;html=1;aspect=fixed;container=0;fillColor=none;" parent="1" vertex="1">
          <mxGeometry x="160" y="1630" width="30" height="30" as="geometry" />
        </mxCell>
        <mxCell id="IC8ufoEpCNfzhhUC2e6s-260" value="&lt;font color=&quot;#0000ff&quot;&gt;R1-S2&lt;/font&gt;、&lt;font color=&quot;#0000ff&quot;&gt;R2-S2&lt;/font&gt;" style="text;strokeColor=#000000;align=left;fillColor=none;html=1;verticalAlign=middle;whiteSpace=wrap;rounded=0;" parent="1" vertex="1">
          <mxGeometry x="190" y="1630" width="140" height="30" as="geometry" />
        </mxCell>
        <mxCell id="IC8ufoEpCNfzhhUC2e6s-265" value="&lt;font color=&quot;#0000ff&quot;&gt;R2-S2&lt;/font&gt;、&lt;font color=&quot;#0000ff&quot;&gt;Rn-S3&lt;/font&gt;" style="text;strokeColor=#000000;align=left;fillColor=none;html=1;verticalAlign=middle;whiteSpace=wrap;rounded=0;" parent="1" vertex="1">
          <mxGeometry x="391" y="1630" width="99" height="30" as="geometry" />
        </mxCell>
        <mxCell id="IC8ufoEpCNfzhhUC2e6s-266" value="&lt;font color=&quot;#0000ff&quot;&gt;R2-S2&lt;/font&gt;、&lt;font color=&quot;#0000ff&quot;&gt;Rn-S2&lt;/font&gt;" style="text;strokeColor=#000000;align=left;fillColor=none;html=1;verticalAlign=middle;whiteSpace=wrap;rounded=0;" parent="1" vertex="1">
          <mxGeometry x="595" y="1630" width="95" height="30" as="geometry" />
        </mxCell>
        <mxCell id="IC8ufoEpCNfzhhUC2e6s-267" value="&lt;div align=&quot;left&quot;&gt;&lt;font style=&quot;font-size: 12px;&quot;&gt;点状态：如果当前叶子节点相比父节点有状态更新，则记录新状态，否则继承父节点的状态&lt;/font&gt;&lt;/div&gt;" style="text;strokeColor=none;align=left;fillColor=none;html=1;verticalAlign=middle;whiteSpace=wrap;rounded=0;" parent="1" vertex="1">
          <mxGeometry x="160" y="1710" width="610" height="30" as="geometry" />
        </mxCell>
        <mxCell id="IC8ufoEpCNfzhhUC2e6s-268" value="&lt;div align=&quot;left&quot;&gt;&lt;font style=&quot;font-size: 12px;&quot;&gt;树状态：树状态不记录历史信息，只记录当前日志log n进入进程树后，进程树中相关规则的最新状态&lt;/font&gt;&lt;/div&gt;" style="text;strokeColor=none;align=left;fillColor=none;html=1;verticalAlign=middle;whiteSpace=wrap;rounded=0;" parent="1" vertex="1">
          <mxGeometry x="1010" y="1720" width="593" height="30" as="geometry" />
        </mxCell>
        <mxCell id="IC8ufoEpCNfzhhUC2e6s-269" style="rounded=0;orthogonalLoop=1;jettySize=auto;html=1;exitX=0.5;exitY=1;exitDx=0;exitDy=0;entryX=0.5;entryY=0;entryDx=0;entryDy=0;" parent="1" source="IC8ufoEpCNfzhhUC2e6s-271" target="IC8ufoEpCNfzhhUC2e6s-272" edge="1">
          <mxGeometry relative="1" as="geometry" />
        </mxCell>
        <mxCell id="IC8ufoEpCNfzhhUC2e6s-271" value="" style="ellipse;whiteSpace=wrap;html=1;aspect=fixed;container=0;fillColor=none;" parent="1" vertex="1">
          <mxGeometry x="186" y="1265.5" width="30" height="30" as="geometry" />
        </mxCell>
        <mxCell id="IC8ufoEpCNfzhhUC2e6s-272" value="log n" style="ellipse;whiteSpace=wrap;html=1;aspect=fixed;container=0;fillColor=none;" parent="1" vertex="1">
          <mxGeometry x="256" y="1339" width="30" height="30" as="geometry" />
        </mxCell>
        <mxCell id="IC8ufoEpCNfzhhUC2e6s-274" value="一个三元组代表日志log n，日志编号存储在Object节点当中" style="text;strokeColor=none;align=center;fillColor=none;html=1;verticalAlign=middle;whiteSpace=wrap;rounded=0;" parent="1" vertex="1">
          <mxGeometry x="121" y="1379" width="165" height="30" as="geometry" />
        </mxCell>
        <mxCell id="IC8ufoEpCNfzhhUC2e6s-277" value="&lt;font style=&quot;font-size: 24px;&quot;&gt;&lt;b&gt;Node State&lt;br&gt;&lt;/b&gt;&lt;/font&gt;" style="text;strokeColor=none;align=center;fillColor=none;html=1;verticalAlign=middle;whiteSpace=wrap;rounded=0;" parent="1" vertex="1">
          <mxGeometry x="293" y="1780" width="345" height="30" as="geometry" />
        </mxCell>
        <mxCell id="IC8ufoEpCNfzhhUC2e6s-278" value="&lt;font style=&quot;font-size: 24px;&quot;&gt;&lt;b&gt;tree State&lt;br&gt;&lt;/b&gt;&lt;/font&gt;" style="text;strokeColor=none;align=center;fillColor=none;html=1;verticalAlign=middle;whiteSpace=wrap;rounded=0;" parent="1" vertex="1">
          <mxGeometry x="1113" y="1780" width="345" height="30" as="geometry" />
        </mxCell>
        <mxCell id="IC8ufoEpCNfzhhUC2e6s-279" value="" style="whiteSpace=wrap;html=1;fillColor=none;" parent="1" vertex="1">
          <mxGeometry x="107" y="1250.5" width="200" height="179.5" as="geometry" />
        </mxCell>
      </root>
    </mxGraphModel>
  </diagram>
</mxfile>
